<?xml version="1.0" standalone="no"?>
<!DOCTYPE svg PUBLIC "-//W3C//DTD SVG 1.1//EN" "http://www.w3.org/Graphics/SVG/1.1/DTD/svg11.dtd" >
<svg xmlns="http://www.w3.org/2000/svg">
<metadata></metadata>
<defs>
<font id="akzidenz-grotesk_proLtCn" horiz-adv-x="354" >
<font-face units-per-em="1000" ascent="750" descent="-250" />
<missing-glyph horiz-adv-x="187" />
<glyph horiz-adv-x="1000" />
<glyph horiz-adv-x="1000" />
<glyph unicode="&#xd;" horiz-adv-x="1000" />
<glyph unicode=" "  horiz-adv-x="187" />
<glyph unicode="&#x09;" horiz-adv-x="187" />
<glyph unicode="&#xa0;" horiz-adv-x="187" />
<glyph unicode="!" horiz-adv-x="187" d="M92 0v90h45v-90h-45zM92 330v376h48v-383l-11 -136h-28z" />
<glyph unicode="&#x22;" horiz-adv-x="272" d="M39 740h58l-18 -288h-21zM175 740h58l-19 -288h-21z" />
<glyph unicode="#" horiz-adv-x="514" d="M20 263v40h138l10 112h-132v41h136l21 250h44l-21 -250h99l21 250h42l-21 -250h136v-41h-140l-9 -112h137v-40h-141l-21 -263h-43l23 263h-100l-22 -263h-44l22 263h-135zM203 303h99l9 112h-99z" />
<glyph unicode="$" horiz-adv-x="358" d="M30 180v44h44v-38q0 -75 25 -108.5t80 -33.5q99 0 99 119q0 51 -17 82t-72 85q-12 12 -39.5 38t-34.5 33.5t-24 26.5t-20.5 29t-11 28.5t-9 36.5t-1.5 43q0 131 113 140v50h31v-50q59 -8 85.5 -40.5t26.5 -117.5v-21h-45v21q0 64 -19 89.5t-64 25.5q-43 0 -62 -23.5 t-19 -76.5q0 -16 2 -30t4.5 -24t10 -22.5t11 -19t17 -20.5t19 -19.5t24 -23t26.5 -24.5q69 -66 91.5 -107t22.5 -104q0 -154 -130 -167v-72h-31v72q-67 6 -100 48t-33 131z" />
<glyph unicode="%" horiz-adv-x="583" d="M20 367v241q0 100 95 100q47 0 68 -25t21 -77v-240q0 -106 -91 -106q-93 0 -93 107zM58 371q0 -74 55 -74q54 0 54 69v233q0 38 -11 54t-42 16q-27 0 -41.5 -14t-14.5 -49v-235zM91 -59l366 845l26 -12l-367 -844zM374 102v241q0 100 95 100q47 0 68 -24t21 -76v-242 q0 -106 -91 -106q-93 0 -93 107zM412 106q0 -74 55 -74q54 0 54 69v238q0 35 -12.5 50t-40.5 15q-56 0 -56 -60v-238z" />
<glyph unicode="&#x26;" horiz-adv-x="437" d="M32 132q0 39 15 76.5t31.5 60.5t49.5 62q-35 105 -35 161q0 17 3.5 34t12.5 37.5t30 33.5t50 13q39 0 62 -23.5t23 -62.5q0 -37 -20.5 -78t-76.5 -119q51 -118 124 -233q17 25 25 43t15 69t7 136h44q0 -54 -1.5 -87t-11.5 -80t-30 -81q-3 -5 -21 -32q33 -24 70 -24l21 1 v-41q-52 0 -75 6.5t-48 25.5q-39 -39 -116 -39q-64 0 -102 33q-46 41 -46 108zM77 137q0 -52 31 -78.5t77 -26.5q51 0 84 29q-58 83 -123 223q-69 -85 -69 -147zM135 492q0 -73 25 -118q22 32 33.5 49.5t24.5 47t13 51.5q0 21 -11.5 35.5t-32.5 14.5q-23 0 -37.5 -20.5 t-14.5 -59.5z" />
<glyph unicode="'" horiz-adv-x="137" d="M39 740h58l-18 -288h-21z" />
<glyph unicode="(" horiz-adv-x="229" d="M29 291q0 91 28.5 185.5t80.5 166.5q16 22 52 64v-56q-22 -32 -32 -48q-39 -64 -61.5 -152t-22.5 -166q0 -98 30.5 -196.5t87.5 -170.5v-58q-43 47 -57 68q-49 72 -77.5 171.5t-28.5 191.5z" />
<glyph unicode=")" horiz-adv-x="229" d="M37 650v58q76 -75 119.5 -193t43.5 -237q0 -88 -27 -180.5t-76 -162.5q-9 -13 -59 -73v56q56 70 86.5 170t30.5 195q0 100 -31 199t-87 168z" />
<glyph unicode="*" horiz-adv-x="305" d="M29 601l12 38l91 -25v96h40v-98l93 32l13 -36l-94 -35l57 -80l-31 -24l-59 79l-52 -79l-32 24l53 81z" />
<glyph unicode="+" horiz-adv-x="558" d="M84 276v41h173v184h45v-184h172v-41h-172v-184h-45v184h-173z" />
<glyph unicode="," horiz-adv-x="146" d="M50 -68q25 14 25 62v6h-24v91h45v-91q0 -36 -9 -57t-37 -33v22z" />
<glyph unicode="-" horiz-adv-x="248" d="M35 271v42h177v-42h-177z" />
<glyph unicode="." horiz-adv-x="146" d="M52 0v90h44v-90h-44z" />
<glyph unicode="/" horiz-adv-x="313" d="M34 0l200 706h45l-199 -706h-46z" />
<glyph unicode="0" d="M36 148v411q0 67 34.5 108.5t112.5 41.5q62 0 99.5 -36t37.5 -114v-409q0 -73 -39.5 -111.5t-103.5 -38.5q-62 0 -101.5 39t-39.5 109zM82 147q0 -44 25.5 -73.5t69.5 -29.5q12 0 25.5 3.5t31.5 13.5t29 33t11 56v410q0 104 -94 104q-98 0 -98 -108v-409z" />
<glyph unicode="1" d="M50 564v39q30 5 54 17.5t37.5 28.5t20 29t9.5 24h45v-702h-50v615q-51 -43 -116 -51z" />
<glyph unicode="2" d="M41 0v53q13 43 70 127q9 12 38.5 54.5t37 54.5t26.5 45.5t24.5 53.5t11.5 51.5t6 64.5v41q0 120 -78 120q-22 0 -37 -8.5t-23 -20t-12.5 -32t-5.5 -37t-1 -41.5v-48h-44v67q0 33 3.5 56.5t15 50t38 41t66.5 14.5q64 0 93.5 -42.5t29.5 -100.5v-59q0 -88 -26 -147.5 t-101 -165.5q-3 -3 -18 -23.5t-18.5 -26t-14.5 -22.5t-16 -26t-11.5 -23.5t-11.5 -28.5h222v-42h-264z" />
<glyph unicode="3" d="M35 180v35h44v-23q0 -36 2.5 -59.5t11.5 -48.5t29.5 -37.5t53.5 -12.5q44 0 69 31.5t25 77.5v75q0 79 -36 105.5t-116 31.5v46h4q52 0 90 26.5t38 76.5v65q0 46 -16 70.5t-63 24.5q-73 0 -73 -89v-77h-44v79q0 129 121 129q120 0 120 -131v-67q0 -21 -4 -38t-12 -29.5 t-15.5 -21.5t-19.5 -16t-18.5 -10.5t-18.5 -8t-13 -5.5q28 -7 41 -12t35.5 -20.5t33 -45.5t10.5 -75v-76q0 -82 -39.5 -120t-100.5 -38q-44 0 -73.5 17t-42.5 47t-18 58.5t-5 65.5z" />
<glyph unicode="4" d="M19 225v46l182 430h62v-434h84v-42h-84v-225h-46v225h-198zM64 267h153v369z" />
<glyph unicode="5" d="M46 147v75h44v-55q0 -25 0.5 -39t5 -33.5t12 -29.5t23 -18t38.5 -8q57 0 72.5 33.5t15.5 113.5v146q0 48 -16.5 75t-60.5 27q-32 0 -57.5 -19t-25.5 -68v-10h-37v366h232v-43h-187v-210q39 27 80 27q117 0 117 -159v-133q0 -27 -1 -43t-4 -41.5t-11.5 -41t-22 -32 t-36 -24t-53.5 -7.5q-39 0 -66 12.5t-39.5 35.5t-17.5 47t-5 56z" />
<glyph unicode="6" d="M48 140v424q0 60 31.5 103.5t112.5 43.5q72 0 100 -39t28 -114v-40h-45v10q0 27 -1 43.5t-5.5 37t-13 31.5t-25 19t-40.5 8q-54 0 -75 -32t-21 -71v-178q18 19 48.5 31t57.5 12q59 0 89 -37t30 -98v-168q0 -39 -14 -66.5t-37 -40t-43.5 -18t-41.5 -5.5q-65 0 -100 37 t-35 107zM93 166q0 -19 1 -32.5t6 -32.5t14 -30.5t26.5 -20.5t41.5 -9q46 0 69 28.5t23 67.5v157q0 42 -20 66.5t-57 24.5q-49 0 -76.5 -31.5t-27.5 -79.5v-108z" />
<glyph unicode="7" d="M47 659v44h271v-44q-73 -164 -111.5 -304t-38.5 -294v-61h-49v42q0 279 152 617h-224z" />
<glyph unicode="8" d="M41 131v139q0 43 15.5 71.5t29 37t33.5 16.5q-68 27 -68 97v104q0 117 128 117q127 0 127 -123v-89q0 -49 -18 -71t-55 -35q46 -17 64 -47t18 -91v-129q0 -67 -36.5 -101t-99.5 -34q-64 0 -101 36.5t-37 101.5zM87 149q0 -113 92 -113q90 0 90 105v124q0 107 -89 107 q-93 0 -93 -103v-120zM97 496q0 -40 22.5 -59.5t58.5 -19.5q37 0 59.5 22t22.5 66v72q0 47 -17.5 70.5t-67.5 23.5q-78 0 -78 -78v-97z" />
<glyph unicode="9" d="M33 133v57h46v-55q0 -97 86 -97q49 0 73 26.5t24 70.5v188q-41 -43 -106 -43q-57 0 -89.5 32.5t-32.5 95.5v154q0 151 139 151q136 0 136 -147v-419q0 -84 -40 -119t-103 -35q-133 0 -133 140zM81 406q0 -37 20 -59.5t54 -22.5q50 0 79 30.5t29 92.5v112q0 50 -19 79.5 t-74 29.5q-37 0 -63 -22t-26 -66v-174z" />
<glyph unicode=":" horiz-adv-x="187" d="M92 0v90h44v-90h-44zM92 364v91h44v-91h-44z" />
<glyph unicode=";" horiz-adv-x="187" d="M91 0v91h45v-91q0 -36 -8.5 -56t-36.5 -34v22q16 12 20.5 25.5t4.5 36.5v6h-25zM91 364v91h46v-91h-46z" />
<glyph unicode="&#x3c;" horiz-adv-x="559" d="M89 270v45l357 195v-49l-312 -166l312 -167v-52z" />
<glyph unicode="=" horiz-adv-x="559" d="M85 203v42h389v-42h-389zM85 347v42h389v-42h-389z" />
<glyph unicode="&#x3e;" horiz-adv-x="559" d="M113 76v48l312 167l-312 167v51l357 -193v-45z" />
<glyph unicode="?" d="M70 482v61q0 27 2 48t9 46t20 41.5t36.5 28t56.5 11.5t57 -13t36.5 -31t20 -45.5t9 -48.5t1.5 -49q0 -58 -8.5 -91.5t-34.5 -72.5q-3 -4 -18.5 -25.5t-21 -30t-12 -26t-6.5 -33.5v-78h-47v87q0 36 22 68l46 67q33 48 33 112v29q0 139 -79 139q-42 0 -58.5 -35.5 t-16.5 -82.5v-76h-47zM170 0v90h48v-90h-48z" />
<glyph unicode="@" horiz-adv-x="878" d="M57 232q0 199 135.5 340t327.5 141q136 0 215.5 -78t79.5 -210q0 -135 -72 -243.5t-155 -108.5q-35 0 -56.5 22.5t-21.5 58.5q0 10 1 17q-64 -96 -149 -96q-59 0 -93 42t-34 114q0 112 62 197.5t143 85.5q49 0 78.5 -31.5t40.5 -69.5l18 78h46l-50 -227q-12 -55 -12 -92 q0 -56 45 -56q26 0 53 24q54 48 85.5 125.5t31.5 161.5q0 115 -70.5 182.5t-189.5 67.5q-112 0 -208.5 -60t-152.5 -162t-56 -221q0 -143 93.5 -231.5t244.5 -88.5q125 0 238 66q55 33 105 80l23 -26q-156 -156 -365 -156q-169 0 -275 98.5t-106 255.5zM283 230 q0 -53 25.5 -85t68.5 -32q52 0 91.5 43t56 97t16.5 104q0 53 -27 86.5t-69 33.5q-64 0 -113 -74.5t-49 -172.5z" />
<glyph unicode="A" horiz-adv-x="375" d="M24 0l129 710h68l128 -710h-52l-36 215h-148l-37 -215h-52zM121 261h131l-65 384z" />
<glyph unicode="B" horiz-adv-x="375" d="M59 0v706h144q55 0 81 -30q24 -28 24 -81v-114q0 -23 -6.5 -41t-14.5 -27.5t-21 -16.5t-21 -9t-20 -4q48 -4 75 -27q33 -28 33 -104v-125q0 -127 -127 -127h-147zM108 402h54q98 0 98 91v101q0 20 -5.5 33.5t-13 20.5t-21 11t-23.5 4.5t-27 0.5h-62v-262zM109 43h83 q58 0 75 24t17 86v103q0 63 -34 83t-91 20h-50v-316z" />
<glyph unicode="C" horiz-adv-x="375" d="M52 144v428q0 73 41 107t99 34q60 0 97 -33.5t37 -97.5v-104h-49v61q0 31 -2 50t-10 39.5t-26 30t-46 9.5q-30 0 -50.5 -12t-28.5 -31.5t-11 -33.5t-3 -28v-382q0 -76 21 -111t77 -35q45 0 65.5 26t20.5 67v115h50v-109q0 -145 -144 -145q-42 0 -71.5 15t-43 40.5 t-18.5 49t-5 50.5z" />
<glyph unicode="D" horiz-adv-x="396" d="M60 0v706h61q59 0 101 -11t72 -47q28 -34 38 -85.5t10 -145.5v-199q0 -27 -3 -51t-14.5 -56.5t-30.5 -55t-55.5 -39t-85.5 -16.5h-93zM109 44h40q78 0 111.5 47.5t33.5 153.5v173q0 132 -25 179q-35 64 -123 64h-37v-617z" />
<glyph unicode="E" horiz-adv-x="333" d="M59 0v706h250v-44h-202v-272h166v-43h-166v-303h201v-44h-249z" />
<glyph unicode="F" horiz-adv-x="313" d="M59 0v706h249v-44h-201v-272h177v-43h-177v-347h-48z" />
<glyph unicode="G" horiz-adv-x="396" d="M55 182v376q0 76 34 116t113 40q70 0 103 -37t33 -92v-106h-47v83q0 50 -19 80t-73 30q-96 0 -96 -115v-361q0 -87 14 -115q8 -17 27 -32.5t50 -15.5q44 0 72 39t28 79v128h-104v43h153v-322h-37v56q-15 -24 -44.5 -45t-73.5 -21q-72 0 -106 54q-16 25 -21.5 53.5 t-5.5 84.5z" />
<glyph unicode="H" horiz-adv-x="396" d="M59 0v706h48v-314h182v314h49v-706h-49v349h-182v-349h-48z" />
<glyph unicode="I" horiz-adv-x="167" d="M58 0v706h51v-706h-51z" />
<glyph unicode="J" horiz-adv-x="333" d="M42 117v106h48v-110q0 -32 17.5 -55.5t51.5 -23.5q38 0 53.5 25t15.5 55v592h48v-583q0 -71 -34 -102t-85 -31q-36 0 -61 14t-35.5 37t-14.5 40.5t-4 35.5z" />
<glyph unicode="K" d="M58 0v706h49v-346l176 346h55l-150 -281l152 -425h-53l-129 366l-52 -98v-268h-48z" />
<glyph unicode="L" horiz-adv-x="313" d="M58 0v706h49v-662h184v-44h-233z" />
<glyph unicode="M" horiz-adv-x="500" d="M54 0l6 706h72l116 -603l118 603h72l8 -706h-48q0 9 -0.5 283.5t-0.5 369.5l-125 -653h-45l-125 653v-653h-48z" />
<glyph unicode="N" horiz-adv-x="396" d="M55 0v706h72l169 -679q-7 640 -7 679h48v-706h-75l-164 667q4 -595 4 -667h-47z" />
<glyph unicode="O" horiz-adv-x="396" d="M54 146v413q0 69 35.5 112t107.5 43q38 0 65.5 -11t42.5 -27t23 -41.5t10 -45.5t2 -48v-403q0 -37 -10.5 -67.5t-45 -55t-89.5 -24.5q-141 0 -141 155zM102 148q0 -113 96 -113q95 0 95 121v370q0 80 -24.5 112t-71.5 32q-49 0 -72 -31t-23 -76v-415z" />
<glyph unicode="P" horiz-adv-x="375" d="M58 0v706h125q78 0 112 -28q18 -15 26.5 -37.5t10 -40t1.5 -51.5v-80q0 -69 -28 -102q-38 -45 -126 -45h-72v-322h-49zM106 363h80q52 0 76 25q23 23 23 71v71q0 79 -17 107t-82 28h-80v-302z" />
<glyph unicode="Q" horiz-adv-x="396" d="M54 187v361q0 168 147 168q68 0 103.5 -39.5t35.5 -116.5v-388q0 -53 -11.5 -89.5t-50.5 -65.5l92 -84l-29 -31l-107 95q-25 -5 -40 -5q-38 0 -65.5 13t-41.5 31.5t-22 48t-9.5 50.5t-1.5 52zM102 195q0 -89 22 -124t71 -35q51 0 74 37t23 95v393q0 52 -24 81t-70 29 q-96 0 -96 -118v-358z" />
<glyph unicode="R" horiz-adv-x="375" d="M59 0v706h141q135 0 135 -123v-118q0 -97 -99 -117l130 -348h-52l-129 344h-77v-344h-49zM108 386h90q85 0 85 73v111q0 47 -16.5 70.5t-61.5 23.5h-97v-278z" />
<glyph unicode="S" horiz-adv-x="375" d="M42 132v99h49v-56q0 -33 1 -47.5t5.5 -31.5t14.5 -30q27 -34 82 -34q91 0 91 116q0 56 -20.5 92t-82.5 98q-49 49 -69.5 73t-37 63t-16.5 86q0 22 1.5 39.5t9.5 40.5t21.5 38.5t40 26.5t62.5 11q37 0 62.5 -11.5t38.5 -26t20 -40t8 -42t1 -43.5v-51h-48v63 q0 23 -1.5 36.5t-8.5 33t-25.5 29.5t-47.5 10q-85 0 -85 -106q0 -53 21 -90t99 -116q62 -64 84 -102t22 -103q0 -25 -2 -44t-10 -44t-22.5 -41t-42.5 -27.5t-67 -11.5q-66 0 -107 35.5t-41 107.5z" />
<glyph unicode="T" horiz-adv-x="313" d="M7 662v44h298v-44h-125v-662h-50v662h-123z" />
<glyph unicode="U" horiz-adv-x="396" d="M57 140v566h48v-547q0 -23 1.5 -38.5t7 -33t15 -28.5t27.5 -18t43 -7q52 0 71 30t19 88v554h49v-566q0 -80 -38.5 -116t-103.5 -36q-61 0 -100 35.5t-39 116.5z" />
<glyph unicode="V" d="M27 706h51l95 -602l103 602h50l-128 -706h-51z" />
<glyph unicode="W" horiz-adv-x="562" d="M21 706h50l95 -600l91 600h52l92 -600l92 600h49l-115 -706h-53l-91 607l-91 -607h-51z" />
<glyph unicode="X" d="M24 0l128 389l-99 317h51l76 -268l82 268h51l-107 -318l124 -388h-51l-102 335l-103 -335h-50z" />
<glyph unicode="Y" d="M14 706h52l113 -332l112 332h54l-144 -394v-312h-48v312z" />
<glyph unicode="Z" d="M27 0v32l234 631h-192v43h249v-33l-236 -629h235v-44h-290z" />
<glyph unicode="[" horiz-adv-x="229" d="M53 -141v847h142v-36h-99v-773h99v-38h-142z" />
<glyph unicode="\" horiz-adv-x="313" d="M34 706h44l203 -706h-47z" />
<glyph unicode="]" horiz-adv-x="229" d="M32 670v36h144v-847h-141v38h98v773h-101z" />
<glyph unicode="^" horiz-adv-x="559" d="M75 357l180 349h47l181 -349h-51l-154 304l-151 -304h-52z" />
<glyph unicode="_" horiz-adv-x="500" d="M-10 -155h520v-43h-520v43z" />
<glyph unicode="`" horiz-adv-x="229" d="M22 678h97l87 -109h-33z" />
<glyph unicode="a" horiz-adv-x="313" d="M28 118q0 50 22.5 85.5t50.5 51t66 35.5t56 36v69q0 71 -62 71q-39 0 -54 -20.5t-15 -71.5v-26h-43v27q0 71 28 101t86 30q103 0 103 -101v-347q0 -18 30 -18v-40h-9q-30 1 -44 10t-19 29q-49 -39 -98 -39t-73.5 33.5t-24.5 84.5zM71 117q0 -10 1.5 -19.5t7.5 -24.5 t20.5 -24t36.5 -9q44 0 87 47v192q-1 -1 -83 -48q-70 -41 -70 -114z" />
<glyph unicode="b" horiz-adv-x="333" d="M52 0v706h42v-246q36 49 93 49q97 0 97 -129v-264q0 -26 -9 -51.5t-34 -46.5t-63 -21q-57 0 -81 45v-42h-45zM95 135q0 -53 27.5 -76.5t52.5 -23.5q34 0 50.5 26.5t16.5 69.5v250q0 8 -0.5 15.5t-4.5 22t-10.5 24.5t-20 18t-31.5 8q-36 0 -58 -24.5t-22 -66.5v-243z" />
<glyph unicode="c" horiz-adv-x="313" d="M40 124v252q0 127 116 127q115 0 115 -133v-46h-42v40q0 102 -72 102q-74 0 -74 -93v-222q0 -24 2 -39.5t9 -35t24 -29.5t44 -10q70 0 70 82v73h44v-65q0 -63 -28.5 -96.5t-94.5 -33.5q-60 0 -86.5 37t-26.5 90z" />
<glyph unicode="d" horiz-adv-x="333" d="M48 115v267q0 61 29.5 91t71.5 30q11 0 21 -2t18.5 -5.5t14.5 -7t12 -9t9 -8.5t8 -8.5t6 -6.5v250h42v-706h-40v53q-30 -57 -92 -57q-41 0 -70.5 28.5t-29.5 90.5zM90 123q0 -89 69 -89q31 0 52 21.5t27 51.5v267q-12 89 -79 89q-33 0 -51 -24t-18 -55v-261z" />
<glyph unicode="e" horiz-adv-x="313" d="M43 116v270q0 52 27 86t87 34q116 0 116 -130v-129h-188v-124q0 -85 72 -85q25 0 41 8.5t22.5 25t8.5 31t2 36.5v36h42v-63q0 -46 -28 -79.5t-88 -33.5q-51 0 -82.5 29t-31.5 88zM85 283h145v100q0 42 -20 63.5t-52 21.5q-36 0 -54.5 -24t-18.5 -65v-96z" />
<glyph unicode="f" horiz-adv-x="187" d="M17 463v40h60v122q0 32 22 56.5t67 24.5q9 0 25 -2v-39l-5 1h-10q-58 0 -58 -59v-104h62v-40h-64v-463h-42v463h-57z" />
<glyph unicode="g" horiz-adv-x="333" d="M46 -51h43q0 -1 0.5 -7.5t2 -14.5t4.5 -15q15 -29 62 -29q9 0 19 2t25.5 8.5t25.5 23.5t10 41v87l-7 -7t-10 -9.5t-12.5 -9.5t-16.5 -9.5t-19 -6t-23 -2.5q-51 0 -75 32.5t-24 85.5v275q0 114 103 114q51 0 84 -46v41h43v-539q0 -60 -35.5 -91t-88.5 -31 q-31 0 -59.5 12.5t-40.5 38.5q-8 17 -11 56zM93 128q0 -86 67 -86q26 0 48.5 19.5t29.5 55.5v282q-6 30 -26 50t-49 20q-70 0 -70 -91v-250z" />
<glyph unicode="h" horiz-adv-x="333" d="M54 0v706h43v-243q36 46 91 46q37 0 67.5 -23.5t30.5 -79.5v-406h-43v376q0 42 -13 66.5t-53 24.5q-34 0 -55 -20.5t-25 -45.5v-401h-43z" />
<glyph unicode="i" horiz-adv-x="146" d="M51 0v503h42v-503h-42zM51 562v78h43v-78h-43z" />
<glyph unicode="j" horiz-adv-x="167" d="M7 -120q63 15 63 99v524h42v-545q0 -102 -105 -121v43zM70 561v78h42v-78h-42z" />
<glyph unicode="k" horiz-adv-x="313" d="M52 0v706h42v-439l145 236h49l-117 -192l129 -311h-47l-110 265l-48 -78v-187h-43z" />
<glyph unicode="l" horiz-adv-x="146" d="M52 0v706h42v-706h-42z" />
<glyph unicode="m" horiz-adv-x="521" d="M53 0v503h43v-42q37 48 94 48q56 0 86 -60q42 61 101 61q39 0 66.5 -27.5t27.5 -83.5v-399h-43v381q0 45 -12.5 66.5t-50.5 21.5q-59 0 -82 -62v-407h-43v399q0 33 -17 52t-47 19t-51.5 -18t-29.5 -37v-415h-42z" />
<glyph unicode="n" horiz-adv-x="333" d="M55 0v503h42v-48q33 54 93 54q37 0 66 -24t29 -77v-408h-42v396q0 76 -62 76q-57 0 -84 -63v-409h-42z" />
<glyph unicode="o" horiz-adv-x="313" d="M39 107v278q0 52 29.5 86.5t91.5 34.5q114 0 114 -122v-252q0 -68 -33 -101t-86 -33t-84.5 29t-31.5 80zM82 120q0 -39 19 -60t54 -21q76 0 76 87v252q0 86 -71 86q-46 0 -62 -26t-16 -70v-248z" />
<glyph unicode="p" horiz-adv-x="333" d="M54 -163v666h43v-44q33 49 93 49q95 0 95 -134v-261q0 -51 -28 -83.5t-74 -32.5q-28 0 -52 13.5t-34 30.5v-204h-43zM97 94q7 -26 29 -41.5t49 -15.5q22 0 36.5 8.5t20.5 25t8 30.5t2 34v258q0 32 -17 54t-48 22q-32 0 -54 -20.5t-26 -44.5v-310z" />
<glyph unicode="q" horiz-adv-x="333" d="M49 103v284q0 51 26 86.5t78 35.5q60 0 84 -47v41h41v-666h-42v209q-30 -49 -91 -49q-46 0 -71 31.5t-25 74.5zM91 127q0 -92 66 -92q35 0 57.5 28t22.5 62v239q0 48 -23 76.5t-55 28.5q-34 0 -51 -26t-17 -66v-250z" />
<glyph unicode="r" horiz-adv-x="208" d="M53 0v503h41v-88q25 61 105 101v-57q-30 -9 -39 -15q-41 -24 -65 -89v-355h-42z" />
<glyph unicode="s" horiz-adv-x="292" d="M28 139v38h42v-44q0 -17 1.5 -28.5t8 -29t24 -27t44.5 -9.5q74 0 74 84q0 36 -14.5 56.5t-69.5 67.5q-35 29 -50.5 45.5t-28 43.5t-12.5 61q0 108 106 108q30 0 51 -9.5t31 -21t15.5 -31t6.5 -30.5t1 -28v-35h-43v35q0 41 -14.5 60.5t-47.5 19.5q-63 0 -63 -65 q0 -38 15 -60t84 -79q41 -34 58.5 -61.5t17.5 -75.5q0 -126 -117 -126q-70 0 -95 36t-25 105z" />
<glyph unicode="t" horiz-adv-x="187" d="M9 463v40h53v130h43v-130h76v-40h-76v-396q0 -29 38 -29q16 0 38 2v-40q-34 -2 -45 -2q-41 0 -57.5 13.5t-16.5 44.5v407h-53z" />
<glyph unicode="u" horiz-adv-x="333" d="M50 97v406h42v-372q0 -97 66 -97q57 0 78 65v404h43v-503h-43v47q-14 -22 -39 -36t-52 -14q-47 0 -71 32t-24 68z" />
<glyph unicode="v" horiz-adv-x="271" d="M14 503h44l76 -437l74 437h46l-96 -503h-49z" />
<glyph unicode="w" horiz-adv-x="437" d="M14 503h43l69 -431l76 431h35l68 -431l76 431h44l-97 -503h-43l-66 411l-72 -411h-44z" />
<glyph unicode="x" horiz-adv-x="313" d="M12 0l109 262l-100 241h46l78 -198l80 198h46l-101 -236l107 -267h-47l-85 226l-86 -226h-47z" />
<glyph unicode="y" horiz-adv-x="292" d="M9 -122q8 -2 21 -2q67 0 82 70l13 58l-110 499h43l88 -418l89 418h45l-129 -560q-12 -51 -35 -75q-31 -32 -107 -32v42z" />
<glyph unicode="z" horiz-adv-x="292" d="M36 0v38l173 423h-159v42h210v-35l-175 -426h174v-42h-223z" />
<glyph unicode="{" d="M77 267v33q25 5 35 13q30 22 30 120v88q0 82 29 131t106 54v-31q-56 -14 -74 -46t-18 -117v-39q0 -86 -10.5 -129t-50.5 -58v-4q37 -15 48.5 -53.5t11.5 -110.5v-60q0 -86 19 -120t74 -46v-32q-44 4 -72 21t-41 47.5t-17 60t-4 71.5v77q0 60 -13 93t-53 37z" />
<glyph unicode="|" horiz-adv-x="229" d="M93 -250v998h43v-998h-43z" />
<glyph unicode="}" d="M77 -108q55 12 74 46t19 120v60q0 72 11.5 110.5t48.5 53.5v4q-39 15 -50 58.5t-11 128.5v39q0 85 -18 117t-74 46v31q77 -5 105 -54t28 -131v-88q0 -97 32 -120q10 -8 35 -13v-33q-39 -4 -53 -37.5t-14 -92.5v-77q0 -43 -4 -71.5t-16.5 -59.5t-40.5 -48t-72 -21v32z" />
<glyph unicode="~" horiz-adv-x="568" d="M66 277q35 42 59 56.5t61 14.5q34 0 76 -18l58 -25q41 -18 61 -18q39 0 87 55l33 -27q-59 -71 -122 -71q-36 0 -93 26l-26 12q-48 22 -78 22q-38 0 -77 -47l-6 -6z" />
<glyph unicode="&#xa2;" horiz-adv-x="313" d="M40 138v238q0 116 98 126v62h29v-61q60 -6 82 -41.5t22 -93.5v-44h-42v40q0 102 -72 102q-25 0 -41.5 -10.5t-22.5 -28t-8 -28.5t-2 -22v-228q0 -24 2 -39.5t9 -34.5t24 -28.5t44 -9.5q70 0 70 79v76h44v-74q0 -105 -103 -120v-69h-29v69q-56 6 -80 40t-24 100z" />
<glyph unicode="&#xa3;" horiz-adv-x="399" d="M30 0v49q80 15 119 54t39 109q0 33 -8 54.5t-31 52.5h-113v37h89q-22 38 -28 70.5t-6 126.5q0 160 130 160q69 0 95.5 -42.5t26.5 -118.5v-66h-46v35q0 33 -1 51t-5 40.5t-12 33t-23.5 18t-38.5 7.5q-44 0 -62 -26.5t-18 -88.5q0 -92 6 -124t36 -76h121v-37h-97 q33 -50 33 -104q0 -112 -101 -166q20 -1 74 -5.5t65 -4.5q44 0 102 12v-44q-55 -11 -88 -11q-4 0 -84 5t-101 5q-36 0 -73 -6z" />
<glyph unicode="&#xa5;" d="M14 706h52l114 -333l118 333h47l-109 -298h86v-43h-101l-16 -43v-17h117v-43h-121v-262h-48v262h-121v43h118v17l-15 43h-103v43h87z" />
<glyph unicode="&#xa8;" horiz-adv-x="229" d="M41 585v77h48v-77h-48zM140 585v77h48v-77h-48z" />
<glyph unicode="&#xa9;" horiz-adv-x="833" d="M61 355q0 149 103 251.5t253 102.5q149 0 252.5 -103.5t103.5 -254.5q0 -149 -104.5 -251.5t-252.5 -102.5q-149 0 -252 104t-103 254zM93 352q0 -134 95 -228.5t229 -94.5t229 94.5t95 227.5q0 137 -93.5 231.5t-229.5 94.5t-230.5 -94.5t-94.5 -230.5zM296 240v225 q0 115 116 115q114 0 114 -105v-58h-49v54q0 37 -17.5 49t-48.5 12q-65 0 -65 -62v-231q0 -43 15.5 -57.5t49.5 -14.5q44 0 55 18.5t11 61.5v39h49v-58q0 -55 -27 -82t-87 -27q-38 0 -63 11t-35.5 31.5t-14 38t-3.5 40.5z" />
<glyph unicode="&#xaa;" horiz-adv-x="187" d="M16 490q0 20 4.5 34.5t17 26.5t22 18.5t32 19.5t35.5 21v26q0 24 -6 35.5t-27 11.5q-23 0 -29 -15.5t-6 -50.5h-31v17q0 79 68 79q64 0 64 -65v-185q0 -5 0.5 -7t4.5 -4.5t11 -2.5v-28q-1 0 -5.5 -0.5t-6.5 -0.5q-27 0 -37 18q-27 -18 -51 -18q-29 0 -44.5 21t-15.5 49z M50 492q0 -20 9.5 -30.5t23.5 -10.5q21 0 44 23v98q-47 -23 -62 -38.5t-15 -41.5z" />
<glyph unicode="&#xab;" horiz-adv-x="375" d="M27 293l125 100h61l-126 -99l122 -101h-60zM168 293l125 100h59l-122 -100l117 -100h-56z" />
<glyph unicode="&#xac;" horiz-adv-x="559" d="M66 274v41h409v-226h-45v185h-364z" />
<glyph unicode="&#xad;" horiz-adv-x="248" d="M35 271v42h177v-42h-177z" />
<glyph unicode="&#xae;" horiz-adv-x="833" d="M61 355q0 149 103 251.5t253 102.5q149 0 252.5 -103.5t103.5 -254.5q0 -149 -104.5 -251.5t-252.5 -102.5q-149 0 -252 104t-103 254zM93 352q0 -134 95 -228.5t229 -94.5t229 94.5t95 227.5q0 137 -93.5 231.5t-229.5 94.5t-230.5 -94.5t-94.5 -230.5zM317 126v449h92 q62 0 95.5 -24.5t33.5 -96.5q0 -104 -82 -122l98 -206h-56l-94 200h-36v-200h-51zM368 370h40q45 0 61.5 22t16.5 60q0 77 -65 77h-53v-159z" />
<glyph unicode="&#xb1;" horiz-adv-x="559" d="M85 0v42h389v-42h-389zM85 274v42h174v184h42v-184h173v-42h-173v-183h-42v183h-174z" />
<glyph unicode="&#xb4;" horiz-adv-x="229" d="M25 567l84 109h95l-143 -109h-36z" />
<glyph unicode="&#xb5;" horiz-adv-x="333" d="M50 -163v666h42v-384q0 -41 17.5 -63t48.5 -22q28 0 45.5 14.5t32.5 50.5v404h42v-430q0 -22 4 -28t19 -6h9v-40h-5q-37 0 -50.5 9t-16.5 36q-33 -46 -85 -46q-38 0 -61 27v-188h-42z" />
<glyph unicode="&#xb8;" horiz-adv-x="229" d="M33 -129l19 22q34 -19 55 -19q19 0 27.5 11t8.5 21q0 34 -55 42l4 78h34l-4 -50q30 -8 51.5 -27t21.5 -47q0 -21 -17.5 -41.5t-53.5 -20.5q-38 0 -91 31z" />
<glyph unicode="&#xba;" horiz-adv-x="187" d="M22 492v143q0 80 71 80q70 0 70 -77v-140q0 -79 -71 -79q-70 0 -70 73zM53 495q0 -44 39 -44q38 0 38 44v138q0 50 -36 50q-41 0 -41 -47v-141z" />
<glyph unicode="&#xbb;" horiz-adv-x="375" d="M20 191l124 102l-116 98h55l122 -98l-124 -102h-61zM159 191l129 101l-122 99h61l121 -98l-126 -102h-63z" />
<glyph unicode="&#xc0;" horiz-adv-x="375" d="M24 0l129 710h68l128 -710h-52l-36 215h-148l-37 -215h-52zM45 880h97l88 -109h-33zM121 261h131l-65 384z" />
<glyph unicode="&#xc8;" horiz-adv-x="333" d="M39 880h97l88 -109h-33zM59 0v706h250v-44h-202v-272h166v-43h-166v-303h201v-44h-249z" />
<glyph unicode="&#xc9;" horiz-adv-x="333" d="M59 0v706h250v-44h-202v-272h166v-43h-166v-303h201v-44h-249zM131 769l85 109h94l-142 -109h-37z" />
<glyph unicode="&#xcc;" horiz-adv-x="167" d="M-44 880h97l88 -109h-33zM58 0v706h51v-706h-51z" />
<glyph unicode="&#xd2;" horiz-adv-x="396" d="M54 146v413q0 69 35.5 112t107.5 43q38 0 65.5 -11t42.5 -27t23 -41.5t10 -45.5t2 -48v-403q0 -37 -10.5 -67.5t-45 -55t-89.5 -24.5q-141 0 -141 155zM60 880h97l88 -109h-33zM102 148q0 -113 96 -113q95 0 95 121v370q0 80 -24.5 112t-71.5 32q-49 0 -72 -31t-23 -76 v-415z" />
<glyph unicode="&#xd3;" horiz-adv-x="396" d="M54 146v413q0 69 35.5 112t107.5 43q38 0 65.5 -11t42.5 -27t23 -41.5t10 -45.5t2 -48v-403q0 -37 -10.5 -67.5t-45 -55t-89.5 -24.5q-141 0 -141 155zM102 148q0 -113 96 -113q95 0 95 121v370q0 80 -24.5 112t-71.5 32q-49 0 -72 -31t-23 -76v-415zM146 769l85 109h94 l-142 -109h-37z" />
<glyph unicode="&#xd9;" horiz-adv-x="396" d="M57 140v566h48v-547q0 -23 1.5 -38.5t7 -33t15 -28.5t27.5 -18t43 -7q52 0 71 30t19 88v554h49v-566q0 -80 -38.5 -116t-103.5 -36q-61 0 -100 35.5t-39 116.5zM60 880h97l88 -109h-33z" />
<glyph unicode="&#xe0;" horiz-adv-x="313" d="M28 118q0 50 22.5 85.5t50.5 51t66 35.5t56 36v69q0 71 -62 71q-39 0 -54 -20.5t-15 -71.5v-26h-43v27q0 71 28 101t86 30q103 0 103 -101v-347q0 -18 30 -18v-40h-9q-30 1 -44 10t-19 29q-49 -39 -98 -39t-73.5 33.5t-24.5 84.5zM30 678h97l87 -109h-33zM71 117 q0 -10 1.5 -19.5t7.5 -24.5t20.5 -24t36.5 -9q44 0 87 47v192q-1 -1 -83 -48q-70 -41 -70 -114z" />
<glyph unicode="&#xe8;" horiz-adv-x="313" d="M14 678h97l87 -109h-33zM43 116v270q0 52 27 86t87 34q116 0 116 -130v-129h-188v-124q0 -85 72 -85q25 0 41 8.5t22.5 25t8.5 31t2 36.5v36h42v-63q0 -46 -28 -79.5t-88 -33.5q-51 0 -82.5 29t-31.5 88zM85 283h145v100q0 42 -20 63.5t-52 21.5q-36 0 -54.5 -24 t-18.5 -65v-96z" />
<glyph unicode="&#xe9;" horiz-adv-x="313" d="M43 116v270q0 52 27 86t87 34q116 0 116 -130v-129h-188v-124q0 -85 72 -85q25 0 41 8.5t22.5 25t8.5 31t2 36.5v36h42v-63q0 -46 -28 -79.5t-88 -33.5q-51 0 -82.5 29t-31.5 88zM85 283h145v100q0 42 -20 63.5t-52 21.5q-36 0 -54.5 -24t-18.5 -65v-96zM103 567l84 109 h95l-143 -109h-36z" />
<glyph unicode="&#xec;" horiz-adv-x="146" d="M-54 678h97l87 -109h-33zM52 0v503h43v-503h-43z" />
<glyph unicode="&#xf2;" horiz-adv-x="313" d="M19 678h97l87 -109h-33zM39 107v278q0 52 29.5 86.5t91.5 34.5q114 0 114 -122v-252q0 -68 -33 -101t-86 -33t-84.5 29t-31.5 80zM82 120q0 -39 19 -60t54 -21q76 0 76 87v252q0 86 -71 86q-46 0 -62 -26t-16 -70v-248z" />
<glyph unicode="&#xf3;" horiz-adv-x="313" d="M39 107v278q0 52 29.5 86.5t91.5 34.5q114 0 114 -122v-252q0 -68 -33 -101t-86 -33t-84.5 29t-31.5 80zM82 120q0 -39 19 -60t54 -21q76 0 76 87v252q0 86 -71 86q-46 0 -62 -26t-16 -70v-248zM104 567l84 109h95l-143 -109h-36z" />
<glyph unicode="&#xf7;" horiz-adv-x="559" d="M85 275v42h390v-42h-390zM256 139v74h49v-74h-49zM256 378v74h49v-74h-49z" />
<glyph unicode="&#xf9;" horiz-adv-x="333" d="M30 678h97l87 -109h-33zM50 97v406h42v-372q0 -97 66 -97q57 0 78 65v404h43v-503h-43v47q-14 -22 -39 -36t-52 -14q-47 0 -71 32t-24 68z" />
<glyph unicode="&#x192;" horiz-adv-x="283" d="M-46 -144l6 40l22 -2q34 0 49.5 17t21.5 65l63 476h-64l6 41h66l13 99q9 73 35 98t79 25q9 0 31 -3l-6 -42q-15 4 -26 4q-36 0 -47.5 -17.5t-18.5 -63.5l-14 -100h69l-6 -41h-71l-65 -489q-8 -61 -36.5 -85t-76.5 -24q-2 0 -30 2z" />
<glyph unicode="&#x2c6;" horiz-adv-x="229" d="M14 568l78 109h50l73 -109h-40l-58 69l-61 -69h-42z" />
<glyph unicode="&#x2da;" horiz-adv-x="229" d="M48 616q0 28 19.5 47.5t46.5 19.5t46.5 -20t19.5 -47q0 -28 -19.5 -47t-46.5 -19q-21 0 -43.5 15.5t-22.5 50.5zM70 616q0 -20 14 -32t30 -12q19 0 31.5 13t12.5 31q0 19 -13 32t-31 13t-31 -13.5t-13 -31.5z" />
<glyph unicode="&#x2dc;" horiz-adv-x="229" d="M6 575q0 34 14.5 57t46.5 23q19 0 54 -17t47 -17q25 0 25 34h30q0 -39 -10 -59.5t-41 -20.5q-18 0 -57.5 17.5t-50.5 17.5q-27 0 -29 -35h-29z" />
<glyph unicode="&#x3a9;" horiz-adv-x="420" d="M56 0v44h80q-43 35 -56.5 103t-13.5 187v233q0 148 144 148q81 0 113 -41t32 -115v-225q0 -130 -14.5 -188.5t-57.5 -101.5h80v-44h-129v44q40 32 57 100t17 193v195q0 28 -1 45t-6.5 37.5t-15.5 31t-28.5 18t-45.5 7.5q-28 0 -46.5 -7t-28.5 -17t-15.5 -30.5t-6.5 -37.5 t-1 -47v-195q0 -121 14.5 -187t58.5 -106v-44h-130z" />
<glyph unicode="&#x3c0;" horiz-adv-x="351" d="M31 461v42h284v-43h-32v-378q0 -29 4.5 -35.5t22.5 -6.5h8v-40h-10q-39 0 -54 19.5t-15 56.5v384h-134v-460h-45v461h-29z" />
<glyph unicode="&#x2000;" horiz-adv-x="440" />
<glyph unicode="&#x2001;" horiz-adv-x="880" />
<glyph unicode="&#x2002;" horiz-adv-x="440" />
<glyph unicode="&#x2003;" horiz-adv-x="880" />
<glyph unicode="&#x2004;" horiz-adv-x="293" />
<glyph unicode="&#x2005;" horiz-adv-x="220" />
<glyph unicode="&#x2006;" horiz-adv-x="146" />
<glyph unicode="&#x2007;" horiz-adv-x="146" />
<glyph unicode="&#x2008;" horiz-adv-x="110" />
<glyph unicode="&#x2009;" horiz-adv-x="176" />
<glyph unicode="&#x200a;" horiz-adv-x="48" />
<glyph unicode="&#x2010;" horiz-adv-x="248" d="M35 271v42h177v-42h-177z" />
<glyph unicode="&#x2011;" horiz-adv-x="248" d="M35 271v42h177v-42h-177z" />
<glyph unicode="&#x2012;" horiz-adv-x="248" d="M35 271v42h177v-42h-177z" />
<glyph unicode="&#x2013;" horiz-adv-x="355" d="M35 271v42h284v-42h-284z" />
<glyph unicode="&#x2014;" horiz-adv-x="559" d="M69 271v42h421v-42h-421z" />
<glyph unicode="&#x2018;" horiz-adv-x="146" d="M54 525v91q0 35 9 55.5t36 34.5v-22q-24 -18 -24 -62v-6h24v-91h-45z" />
<glyph unicode="&#x2019;" horiz-adv-x="146" d="M50 525v22q17 11 21 26t4 42h-24v91h45v-91q0 -35 -9 -55.5t-37 -34.5z" />
<glyph unicode="&#x201a;" horiz-adv-x="146" d="M50 -68q17 11 21 26t4 42h-24v91h45v-91q0 -36 -9 -56t-37 -34v22z" />
<glyph unicode="&#x201c;" horiz-adv-x="250" d="M43 525v91q0 36 8.5 56.5t36.5 34.5v-22q-24 -18 -24 -63v-6h24v-91h-45zM152 525v91q0 35 9 56t36 35v-22q-16 -12 -20 -26t-4 -37v-6h24v-91h-45z" />
<glyph unicode="&#x201d;" horiz-adv-x="250" d="M47 525v22q17 11 21 26t4 42h-24v91h45v-91q0 -35 -9 -55.5t-37 -34.5zM156 525v22q17 11 21 26t4 42h-25v91h45v-91q0 -36 -8.5 -56t-36.5 -34z" />
<glyph unicode="&#x201e;" horiz-adv-x="250" d="M48 0v91h45v-90q0 -36 -9 -57t-36 -34v22q24 13 24 68h-24zM156 -68q17 9 21 25t4 43h-24v91h45v-91q0 -36 -9 -56.5t-37 -33.5v22z" />
<glyph unicode="&#x2022;" horiz-adv-x="333" d="M95 256v199h143v-199h-143z" />
<glyph unicode="&#x2026;" horiz-adv-x="1000" d="M141 0v65h52v-65h-52zM474 0v65h52v-65h-52zM807 0v65h51v-65h-51z" />
<glyph unicode="&#x202f;" horiz-adv-x="176" />
<glyph unicode="&#x2030;" horiz-adv-x="812" d="M20 367v241q0 100 95 100q47 0 68 -25t21 -77v-240q0 -106 -91 -106q-93 0 -93 107zM58 371q0 -74 55 -74q54 0 54 69v233q0 38 -11 54t-42 16q-27 0 -41.5 -14t-14.5 -49v-235zM91 -59l366 845l26 -12l-367 -844zM374 102v241q0 100 95 100q47 0 68 -24t21 -76v-242 q0 -106 -91 -106q-93 0 -93 107zM412 106q0 -74 55 -74q54 0 54 69v238q0 35 -12.5 50t-40.5 15q-56 0 -56 -60v-238zM604 102v241q0 100 95 100q46 0 67 -24.5t21 -75.5v-242q0 -106 -90 -106q-93 0 -93 107zM642 106q0 -74 55 -74q53 0 53 69v238q0 36 -12 50.5t-40 14.5 q-56 0 -56 -60v-238z" />
<glyph unicode="&#x2039;" horiz-adv-x="250" d="M35 293l124 100h60l-122 -100l117 -100h-56z" />
<glyph unicode="&#x203a;" horiz-adv-x="250" d="M27 191l129 101l-122 99h60l121 -98l-126 -102h-62z" />
<glyph unicode="&#x2044;" horiz-adv-x="125" d="M-138 -59l367 845l25 -12l-367 -844z" />
<glyph unicode="&#x205f;" horiz-adv-x="220" />
<glyph unicode="&#x20ac;" horiz-adv-x="386" d="M26 310l8 38h52v51h-60l8 38h52v114q0 163 143 163q84 0 129 -58l-16 -50q-24 35 -49.5 49.5t-62.5 14.5q-52 0 -75 -29.5t-23 -105.5v-98h179l-12 -38h-167v-51h158l-11 -38h-146v-104q0 -36 1.5 -58t7 -46t16 -37.5t29.5 -22t47 -8.5q69 0 123 62v-63q-58 -44 -127 -44 q-144 0 -144 160v161h-60z" />
<glyph unicode="&#x2122;" horiz-adv-x="514" d="M22 670v36h162v-36h-60v-296h-40v296h-62zM214 706h57l60 -296l60 296h58q0 -82 0.5 -202.5t0.5 -129.5h-39l4 300l-62 -300h-44l-62 300q6 -267 7 -300h-39z" />
<glyph unicode="&#x2202;" horiz-adv-x="409" d="M41 198q0 100 43.5 160.5t116.5 60.5q63 0 115 -54q1 15 1 31q0 145 -30 210.5t-91 65.5q-29 0 -64 -12l-6 41q38 13 73 13q50 0 83.5 -25t51 -73t24 -103t6.5 -130q0 -195 -39.5 -294t-124.5 -99q-71 0 -115 57.5t-44 150.5zM93 203q0 -78 28.5 -124.5t76.5 -46.5 q25 0 47.5 17.5t32.5 44.5q17 44 25.5 105t8.5 87v26q-50 66 -112 66q-50 0 -78.5 -47t-28.5 -128z" />
<glyph unicode="&#x2206;" horiz-adv-x="377" d="M4 0l157 706h59l154 -706h-370zM66 44h247l-124 600z" />
<glyph unicode="&#x220f;" horiz-adv-x="414" d="M69 -122v828h275v-828h-48v784h-179v-784h-48z" />
<glyph unicode="&#x2211;" horiz-adv-x="385" d="M49 -79l191 379l-191 362v44h281v-44h-228l195 -361l-199 -379h232v-44h-281v43z" />
<glyph unicode="&#x221a;" horiz-adv-x="559" d="M63 152l106 46l105 -304l163 812h49l-186 -891h-47l-116 319l-54 -23z" />
<glyph unicode="&#x221e;" horiz-adv-x="559" d="M28 291q0 68 33 109.5t90 41.5q40 0 68.5 -23.5t64.5 -84.5q39 61 68 84t72 23q51 0 79.5 -38t28.5 -103q0 -70 -32 -112t-87 -42q-40 0 -71 23t-67 84l-33 -46q-42 -58 -103 -58q-51 0 -81 39t-30 103zM74 293q0 -46 19 -75t49 -29q22 0 43.5 18.5t55.5 72.5l9 14 q-30 53 -53 79.5t-53 26.5q-31 0 -50.5 -29.5t-19.5 -77.5zM309 296q16 -28 24.5 -41.5t23 -31.5t28.5 -25.5t31 -7.5q30 0 49 29.5t19 77.5q0 46 -19 75t-48 29q-23 0 -44 -18.5t-55 -72.5z" />
<glyph unicode="&#x222b;" horiz-adv-x="231" d="M-6 -117q26 -15 47 -15q28 0 37 18t9 59v674q0 52 18.5 76t58.5 24q27 0 58 -12v-48q-26 18 -50 18q-25 0 -31 -20t-6 -72v-640q0 -65 -18.5 -94t-66.5 -29q-27 0 -56 10v51z" />
<glyph unicode="&#x2248;" horiz-adv-x="568" d="M66 204q35 41 59 56t61 15q34 0 76 -18l58 -25q41 -18 61 -18q22 0 41 12t46 42l33 -26q-59 -72 -122 -72q-34 0 -93 27l-26 12q-48 22 -78 22q-21 0 -39 -11.5t-44 -42.5zM66 347q35 41 59.5 56t60.5 15q34 0 76 -18l58 -25q41 -18 61 -18q39 0 87 55l33 -27 q-59 -71 -122 -71q-36 0 -93 26l-26 12q-48 22 -78 22q-21 0 -39 -11.5t-44 -41.5z" />
<glyph unicode="&#x2260;" horiz-adv-x="559" d="M85 202v42h147l47 103h-194v41h213l62 136h44l-62 -136h132v-41h-150l-47 -103h197v-42h-216l-67 -145h-44l66 145h-128z" />
<glyph unicode="&#x2264;" horiz-adv-x="559" d="M92 0v42h357v-42h-357zM92 280v45l357 195v-50l-310 -165l310 -170v-49z" />
<glyph unicode="&#x2265;" horiz-adv-x="559" d="M109 86v50l311 165l-311 170v49l358 -194v-45zM110 0v42h357v-42h-357z" />
<glyph unicode="&#xe000;" horiz-adv-x="505" d="M0 0v505h505v-505h-505z" />
</font>
</defs>
</svg>
