<?xml version="1.0" standalone="no"?>
<!DOCTYPE svg PUBLIC "-//W3C//DTD SVG 1.1//EN" "http://www.w3.org/Graphics/SVG/1.1/DTD/svg11.dtd" >
<svg xmlns="http://www.w3.org/2000/svg">
<metadata></metadata>
<defs>
<font id="akzidenz-grotesk_proLtCnIt" horiz-adv-x="559" >
<font-face units-per-em="1000" ascent="750" descent="-250" />
<missing-glyph horiz-adv-x="186" />
<glyph horiz-adv-x="1000" />
<glyph horiz-adv-x="1000" />
<glyph unicode="&#xd;" horiz-adv-x="1000" />
<glyph unicode=" "  horiz-adv-x="186" />
<glyph unicode="&#x09;" horiz-adv-x="186" />
<glyph unicode="&#xa0;" horiz-adv-x="186" />
<glyph unicode="!" horiz-adv-x="184" d="M25 0l21 90h45l-21 -90h-45zM78 187l26 143l90 376h48l-92 -383l-44 -136h-28z" />
<glyph unicode="&#x22;" horiz-adv-x="272" d="M105 452l48 288h58l-85 -288h-21zM240 452l48 288h58l-85 -288h-21z" />
<glyph unicode="#" horiz-adv-x="514" d="M25 263l9 40h138l35 112h-133l10 41h136l78 250h43l-77 -250h99l80 250h40l-77 -250h136l-9 -41h-141l-35 -112h137l-9 -40h-141l-85 -263h-42l85 263h-100l-84 -263h-42l83 263h-134zM215 303h99l35 112h-98z" />
<glyph unicode="$" horiz-adv-x="391" d="M8 121q0 26 11 71l8 33h48l-7 -30q-12 -49 -12 -73q0 -37 25.5 -58t71.5 -21q62 0 89 38q16 23 28.5 64t12.5 71q0 33 -15 59.5t-66 82.5q-50 54 -64.5 82.5t-14.5 64.5q0 28 7 59t23.5 64.5t51 55t81.5 21.5l11 47h33l-11 -49q87 -17 87 -95q0 -26 -14 -81h-49 q14 55 14 72q0 64 -76 64q-52 0 -79.5 -44t-27.5 -103q0 -31 13.5 -55t58.5 -75q52 -58 69 -90t17 -74q0 -35 -14 -80.5t-34 -76.5q-41 -63 -136 -63l-17 -71h-34l17 72q-106 22 -106 118z" />
<glyph unicode="%" horiz-adv-x="583" d="M22 -56l568 843l24 -16l-567 -841zM48 332q0 19 8 52l48 201q16 65 37 94.5t71 29.5q39 0 61.5 -19t22.5 -53q0 -19 -8 -52l-48 -200q-17 -72 -40.5 -98.5t-68.5 -26.5q-38 0 -60.5 19.5t-22.5 52.5zM86 339q0 -43 49 -43q30 0 42 18.5t23 64.5l51 206q8 34 8 44 q0 21 -13 32.5t-34 11.5q-28 0 -41.5 -15.5t-23.5 -55.5l-54 -218q-7 -28 -7 -45zM335 69q0 19 8 52l48 201q16 65 37 94.5t71 29.5q39 0 61.5 -19t22.5 -53q0 -23 -7 -52l-48 -200q-17 -73 -40.5 -99t-69.5 -26q-38 0 -60.5 19.5t-22.5 52.5zM373 76q0 -43 49 -43 q30 0 42 18.5t23 64.5l51 206q8 34 8 44q0 21 -13 32.5t-34 11.5q-30 0 -42.5 -16.5t-22.5 -56.5l-54 -216q-7 -28 -7 -45z" />
<glyph unicode="&#x26;" horiz-adv-x="432" d="M20 119q0 59 34 105.5t112 107.5q-7 45 -7 77q0 93 34 147t93 54q35 0 55 -19.5t20 -53.5q0 -90 -148 -214q10 -61 32.5 -132t37.5 -97q38 38 62.5 90.5t44.5 157.5h44q-42 -198 -129 -280q23 -24 62 -24q13 0 22 1l-10 -41h-12q-38 0 -56.5 6.5t-40.5 27.5 q-54 -41 -121 -41q-60 0 -94.5 34.5t-34.5 93.5zM66 125q0 -44 23.5 -68.5t65.5 -24.5t94 33q-46 73 -75 222q-58 -48 -83 -85t-25 -77zM204 410q0 -23 2 -40q112 99 112 163q0 18 -10.5 29t-29.5 11q-35 0 -54.5 -43t-19.5 -120z" />
<glyph unicode="'" horiz-adv-x="137" d="M105 452l48 288h58l-85 -288h-21z" />
<glyph unicode="(" horiz-adv-x="229" d="M45 153q2 178 93 340q52 90 120 158q26 25 70 60l-13 -57q-51 -48 -80.5 -87.5t-62.5 -104.5q-43 -84 -63 -164q-17 -74 -17 -162q0 -122 51 -224l-15 -57q-44 72 -60 127q-23 77 -23 171z" />
<glyph unicode=")" horiz-adv-x="229" d="M-80 -146l14 57q51 48 80.5 87.5t62.5 104.5q44 86 62 164q18 79 18 162q0 121 -51 224l14 57q44 -71 61 -127q23 -77 23 -171q0 -172 -94 -340q-51 -90 -120 -158q-20 -20 -70 -60z" />
<glyph unicode="*" horiz-adv-x="305" d="M113 628l19 34l84 -44l21 94l39 -9l-21 -96l97 11l5 -37l-100 -14l39 -91l-36 -16l-40 90l-68 -66l-26 30l69 68z" />
<glyph unicode="+" horiz-adv-x="558" d="M95 275l10 41h173l41 184h45l-41 -184h173l-11 -41h-172l-42 -184h-44l41 184h-173z" />
<glyph unicode="," horiz-adv-x="146" d="M-25 -90l5 23q30 17 40 67h-24l21 91h45l-21 -90q-10 -42 -23 -60.5t-43 -30.5z" />
<glyph unicode="-" horiz-adv-x="248" d="M45 271l10 42h177l-10 -42h-177z" />
<glyph unicode="." horiz-adv-x="146" d="M-4 0l21 90h44l-21 -90h-44z" />
<glyph unicode="/" horiz-adv-x="313" d="M-17 0l362 706h45l-361 -706h-46z" />
<glyph unicode="0" horiz-adv-x="354" d="M9 112q0 27 11 74l84 363q21 88 61 123t103 35q59 0 94.5 -31t35.5 -83q0 -28 -11 -74l-84 -364q-20 -87 -60.5 -122.5t-103.5 -35.5q-59 0 -94.5 31.5t-35.5 83.5zM58 121q0 -38 23 -59.5t64 -21.5q50 0 73.5 32t38.5 96l77 327q15 65 15 89q0 38 -23 59t-64 21 q-51 0 -74 -31.5t-38 -95.5l-77 -328q-15 -64 -15 -88z" />
<glyph unicode="1" horiz-adv-x="354" d="M110 0l141 613q-46 -44 -128 -52l11 44q46 8 84.5 34t57.5 63h43l-162 -702h-47z" />
<glyph unicode="2" horiz-adv-x="354" d="M-15 0l12 52q26 51 99 128l22 23q65 69 105 120q43 55 74.5 135t31.5 144q0 30 -18 47t-49 17q-39 0 -59.5 -29t-39.5 -111l-11 -48h-47l16 67q21 89 53.5 125.5t91.5 36.5q52 0 81.5 -26.5t29.5 -73.5q0 -39 -19.5 -111t-40.5 -113q-36 -68 -135 -175l-43 -46 q-73 -79 -98 -120h217l-10 -42h-263z" />
<glyph unicode="3" horiz-adv-x="354" d="M7 104q0 19 9 67l9 44h45q-19 -85 -19 -109q0 -33 21.5 -52.5t58.5 -19.5q75 0 102 81q31 90 31 152q0 46 -27 65.5t-96 22.5l12 46h4q46 0 85 20.5t55 54.5q9 18 19 64t10 67q0 56 -64 56q-38 0 -57.5 -20t-31.5 -71l-17 -74h-45l18 77q17 72 49 102t92 30q49 0 76 -24 t27 -67q0 -69 -27 -137q-15 -40 -44 -64t-79 -36q47 -10 67 -35t20 -74q0 -41 -17 -107q-10 -38 -20 -63.5t-28 -52t-46 -40t-66 -13.5q-60 0 -93 29t-33 81z" />
<glyph unicode="4" horiz-adv-x="354" d="M16 225l11 46l281 430h62l-98 -434h82l-10 -42h-82l-52 -225h-48l52 225h-198zM71 267h153l85 369z" />
<glyph unicode="5" horiz-adv-x="354" d="M22 88q0 24 9 63l17 71h44l-13 -55q-11 -49 -11 -66q0 -63 68 -63q22 0 39 8t27.5 19.5t20 33.5t14 39t11.5 48l24 102q15 65 15 87q0 59 -63 59q-40 0 -62 -21.5t-35 -74.5h-39l85 365h232l-10 -43h-187l-49 -210q33 27 79 27q44 0 70 -25.5t26 -68.5q0 -29 -14 -89 l-33 -143q-17 -72 -50.5 -113.5t-102.5 -41.5q-49 0 -80.5 25.5t-31.5 66.5z" />
<glyph unicode="6" horiz-adv-x="354" d="M21 96q0 19 12 70l88 381q19 82 52 121.5t107 39.5q58 0 90 -26t32 -73q0 -24 -9 -63l-7 -31h-46l7 35q8 43 8 46q0 31 -19.5 50t-58.5 19q-52 0 -73.5 -29.5t-38.5 -101.5l-35 -153q40 43 104 43q45 0 73.5 -27t28.5 -70q0 -27 -9 -64l-26 -112q-13 -55 -25.5 -82 t-35.5 -45q-41 -33 -100 -33q-119 0 -119 105zM69 102q0 -66 76 -66q45 0 69.5 25.5t38.5 86.5l27 118q7 28 7 51q0 29 -18.5 46t-49.5 17q-43 0 -73.5 -30t-43.5 -85l-24 -104q-9 -37 -9 -59z" />
<glyph unicode="7" horiz-adv-x="354" d="M47 0q50 205 116 344q63 128 188 315h-223l10 44h271l-11 -44q-113 -166 -180 -308q-51 -111 -71 -171q-26 -80 -48 -180h-52z" />
<glyph unicode="8" horiz-adv-x="354" d="M16 90q0 22 12 74l23 101q15 64 37.5 90.5t68.5 37.5q-25 18 -35 34t-10 42q0 14 5 36l18 78q16 70 49 98t95 28q55 0 84.5 -22.5t29.5 -64.5q0 -27 -7 -55l-15 -64q-12 -53 -33.5 -80.5t-65.5 -35.5q58 -19 58 -80q0 -20 -8 -55l-29 -125q-31 -135 -158 -135 q-54 0 -86.5 26.5t-32.5 71.5zM63 101q0 -67 83 -67q41 0 65.5 25t37.5 81l28 120q5 20 5 35q0 73 -81 73q-43 0 -67 -23.5t-37 -80.5l-25 -109q-9 -43 -9 -54zM157 470q0 -27 19.5 -42.5t52.5 -15.5q39 0 61.5 20.5t35.5 75.5l15 64q5 20 5 38q0 27 -20 42t-57 15 q-36 0 -57 -18.5t-33 -70.5l-17 -76q-5 -22 -5 -32z" />
<glyph unicode="9" horiz-adv-x="354" d="M10 90q0 20 9 63l7 31h45q-13 -61 -13 -86q0 -30 20.5 -47t56.5 -17q49 0 73 29q21 24 39 102l35 153q-40 -43 -104 -43q-45 0 -73.5 27t-28.5 70q0 27 9 64l26 112q13 55 25.5 82t35.5 46q40 32 100 32q119 0 119 -105q0 -18 -12 -70l-93 -403q-17 -73 -55 -105.5 t-99 -32.5q-58 0 -90 25.5t-32 72.5zM125 382q0 -28 18.5 -45.5t49.5 -17.5q43 0 73.5 30.5t43.5 84.5l24 104q9 38 9 59q0 66 -76 66q-45 0 -69.5 -25t-38.5 -86l-28 -119q-6 -24 -6 -51z" />
<glyph unicode=":" horiz-adv-x="186" d="M36 0l21 90h44l-21 -90h-44zM120 364l21 90h44l-21 -90h-44z" />
<glyph unicode=";" horiz-adv-x="186" d="M16 -90l5 23q21 15 26 23.5t13 43.5h-24l21 91h45l-20 -90q-9 -42 -22.5 -60.5t-43.5 -30.5zM120 364l21 90h44l-21 -90h-44z" />
<glyph unicode="&#x3c;" d="M86 269l11 45l402 195l-12 -54l-349 -165l274 -170l-9 -45z" />
<glyph unicode="=" d="M83 203l9 42h390l-10 -42h-389zM116 347l10 42h389l-9 -42h-390z" />
<glyph unicode="&#x3e;" d="M82 75l13 54l348 165l-274 170l10 44l316 -193l-10 -46z" />
<glyph unicode="?" horiz-adv-x="347" d="M102 0l21 90h48l-21 -90h-48zM119 482q22 130 58.5 183.5t103.5 53.5q51 0 79.5 -28.5t28.5 -77.5q0 -48 -18 -111.5t-52 -105.5q-19 -23 -47.5 -52t-42 -48.5t-20.5 -47.5l-18 -74h-48l20 83q8 30 18 48.5t35 44.5q82 87 96 119q11 26 20.5 76t9.5 69q0 63 -63 63 q-44 0 -65.5 -36.5t-39.5 -121.5l-8 -37h-47z" />
<glyph unicode="@" horiz-adv-x="878" d="M65 217q0 133 65 247.5t176 181.5t239 67q131 0 208 -73.5t77 -200.5q0 -67 -21.5 -134.5t-55.5 -118t-77.5 -82t-85.5 -31.5q-34 0 -54 21.5t-20 56.5q0 11 1 20q-66 -96 -153 -96q-56 0 -89 39.5t-33 106.5q0 113 66.5 203t149.5 90q87 0 116 -101l20 78h46l-37 -144 q-37 -143 -37 -179q0 -52 44 -52q27 0 54 24q57 49 92 131t35 166q0 110 -67.5 174.5t-183.5 64.5q-176 0 -306.5 -136.5t-130.5 -320.5q0 -137 91.5 -221t239.5 -84q125 0 241 66q54 31 107 80l22 -26q-162 -156 -370 -156q-164 0 -266.5 94t-102.5 245zM291 224 q0 -51 24 -81t65 -30q67 0 120 70t53 167q0 60 -24.5 93.5t-65.5 33.5q-67 0 -119.5 -77.5t-52.5 -175.5z" />
<glyph unicode="A" horiz-adv-x="375" d="M-32 0l296 710h68l-39 -710h-48l13 215h-150l-88 -215h-52zM127 261h133l28 395z" />
<glyph unicode="B" horiz-adv-x="371" d="M1 0l163 706h107q109 0 109 -98q0 -23 -4 -42l-21 -95q-10 -45 -34.5 -64.5t-68.5 -23.5q37 -4 59 -30t22 -66q0 -28 -7 -56l-21 -89q-19 -80 -54.5 -111t-108.5 -31h-141zM59 43h58q75 0 101 21t41 89l19 84q6 24 6 42q0 80 -103 80h-49zM141 402h36q70 0 96.5 19.5 t37.5 68.5l18 77q3 15 3 31q0 37 -18.5 51.5t-64.5 14.5h-47z" />
<glyph unicode="C" horiz-adv-x="373" d="M28 109q0 33 17 104l82 350q20 84 55 117t97 33t96 -26.5t34 -75.5q0 -37 -11 -79l-14 -58h-48l13 58q11 50 11 71q0 31 -21.5 48.5t-59.5 17.5q-42 0 -65.5 -23.5t-36.5 -77.5l-90 -384q-9 -38 -9 -65q0 -39 22.5 -60.5t62.5 -21.5q52 0 72.5 29t35.5 98l14 65h48 l-13 -59q-17 -78 -32 -108q-17 -32 -50 -50.5t-76 -18.5q-62 0 -98 31.5t-36 84.5z" />
<glyph unicode="D" horiz-adv-x="391" d="M1 0l163 706h58q88 0 132 -33.5t44 -111.5q0 -60 -20 -144l-33 -143q-39 -172 -84.5 -223t-169.5 -51h-90zM58 44h51q83 0 118.5 42t61.5 154l41 178q20 85 20 134q0 57 -31 83t-98 26h-21z" />
<glyph unicode="E" horiz-adv-x="330" d="M-1 0l163 706h243l-10 -44h-195l-63 -272h163l-10 -43h-163l-70 -303h201l-10 -44h-249z" />
<glyph unicode="F" horiz-adv-x="310" d="M-1 0l163 706h245l-10 -44h-197l-63 -272h177l-10 -43h-177l-80 -347h-48z" />
<glyph unicode="G" horiz-adv-x="392" d="M28 102q0 36 10 80l83 358q24 103 61.5 138.5t105.5 35.5q59 0 92.5 -28t33.5 -78q0 -26 -6 -50l-18 -79h-47l17 73q7 32 7 50q0 33 -22.5 52t-62.5 19q-24 0 -42 -8t-29 -18.5t-20 -33t-13 -37t-11 -46.5l-81 -353q-11 -46 -11 -67q0 -36 20 -56.5t54 -20.5 q44 0 77.5 36t47.5 97l26 113h-104l10 43h153l-75 -322h-37l13 56q-25 -35 -51 -49.5t-63 -14.5q-54 0 -86 30t-32 80z" />
<glyph unicode="H" horiz-adv-x="396" d="M1 0l163 706h48l-74 -314h185l73 314h48l-162 -706h-48l80 350h-185l-80 -350h-48z" />
<glyph unicode="I" horiz-adv-x="164" d="M1 0l163 706h48l-163 -706h-48z" />
<glyph unicode="J" horiz-adv-x="328" d="M3 81q0 19 8 56l20 86h48l-21 -92q-6 -25 -6 -41q0 -57 61 -57q40 0 55.5 23.5t29.5 84.5l130 565h48l-131 -571q-19 -83 -49.5 -113.5t-87.5 -30.5q-47 0 -76 24.5t-29 65.5z" />
<glyph unicode="K" horiz-adv-x="346" d="M-1 0l163 706h49l-81 -347l249 347h58l-214 -284l65 -422h-49l-56 367l-74 -99l-62 -268h-48z" />
<glyph unicode="L" horiz-adv-x="309" d="M-1 0l163 706h48l-152 -662h184l-10 -44h-233z" />
<glyph unicode="M" horiz-adv-x="494" d="M-3 0l169 706h72l-26 -621l260 621h72l-156 -706h-47l154 663l-280 -663h-45l25 666l-149 -666h-49z" />
<glyph unicode="N" horiz-adv-x="391" d="M-1 0l163 706h72l14 -675l148 675h48l-163 -706h-75q-12 590 -13 655l-147 -655h-47z" />
<glyph unicode="O" horiz-adv-x="396" d="M27 105q0 32 10 75l88 378q20 85 59 121t105 36q59 0 94 -31t35 -83q0 -32 -10 -75l-88 -376q-21 -90 -60 -124.5t-104 -34.5q-59 0 -94 31t-35 83zM76 114q0 -38 23 -59t64 -21q28 0 48.5 11t32.5 32.5t18 39t12 44.5l81 342q14 61 14 89q0 38 -22.5 59t-64.5 21 q-28 0 -48.5 -10.5t-32 -31.5t-17 -36.5t-11.5 -41.5l-83 -349q-14 -61 -14 -89z" />
<glyph unicode="P" horiz-adv-x="371" d="M-1 0l163 706h105q71 0 105 -23t34 -88q0 -29 -11 -71l-13 -55q-20 -83 -55.5 -115t-112.5 -32h-92l-74 -322h-49zM131 363h76q62 0 87 21.5t40 84.5l12 50q10 43 10 71q0 44 -20 59.5t-77 15.5h-58z" />
<glyph unicode="Q" horiz-adv-x="396" d="M27 105q0 32 10 75l90 384q19 81 57.5 116t104.5 35q59 0 94 -31t35 -83q0 -32 -10 -75l-88 -376q-13 -55 -27.5 -82.5t-42.5 -49.5l87 -90l-31 -29l-98 99q-27 -7 -53 -7q-59 0 -93.5 31t-34.5 83zM76 114q0 -38 23 -59t64 -21q24 0 43 9t29.5 20t19 31.5t11.5 31 t7 30.5l82 347q14 61 14 89q0 38 -22.5 59t-64.5 21q-50 0 -73 -31t-38 -94l-81 -344q-14 -61 -14 -89z" />
<glyph unicode="R" horiz-adv-x="372" d="M-1 0l163 706h129q118 0 118 -98q0 -24 -6 -50l-16 -72q-11 -49 -21.5 -71.5t-29.5 -37.5q-33 -26 -83 -30l56 -347h-49l-56 344h-77l-79 -344h-49zM137 386h57q47 0 66.5 3.5t35.5 14.5q26 18 41 88l16 73q5 20 5 37q0 39 -22 50.5t-59 11.5h-76z" />
<glyph unicode="S" horiz-adv-x="371" d="M10 101q0 27 13 82l11 48h49l-20 -87q-5 -22 -5 -38q0 -75 92 -75q34 0 58 17t35.5 45t16.5 54.5t5 53.5q0 53 -43 112l-59 80q-42 57 -42 122q0 49 19 98q20 54 55 78.5t89 24.5q56 0 86.5 -24.5t30.5 -68.5q0 -22 -11 -70l-12 -51h-48l15 63q7 28 7 44q0 34 -18 50 t-57 16q-51 0 -76 -43q-13 -22 -22.5 -57t-9.5 -61q0 -43 35 -92l57 -80q32 -44 42 -74t10 -64q0 -38 -8 -73t-26 -68.5t-53.5 -53.5t-83.5 -20q-62 0 -97 30t-35 82z" />
<glyph unicode="T" horiz-adv-x="304" d="M69 0l153 662h-120l10 44h288l-10 -44h-118l-153 -662h-50z" />
<glyph unicode="U" horiz-adv-x="390" d="M24 91q0 27 11 76l125 539h48l-126 -547q-9 -38 -9 -62q0 -30 22 -46.5t62 -16.5q43 0 66.5 22t40.5 97l128 553h48l-129 -557q-20 -88 -54 -123.5t-104 -35.5q-61 0 -95 26.5t-34 74.5z" />
<glyph unicode="V" horiz-adv-x="350" d="M88 0l43 706h51l-44 -602l242 602h50l-291 -706h-51z" />
<glyph unicode="W" horiz-adv-x="562" d="M88 0l43 706h50l-49 -616l235 616h52l-52 -611l232 611h53l-278 -706h-53l51 607l-233 -607h-51z" />
<glyph unicode="X" horiz-adv-x="349" d="M-30 0l215 391l-29 315h49l18 -260l139 260h54l-179 -319l39 -387h-48l-29 329l-177 -329h-52z" />
<glyph unicode="Y" horiz-adv-x="350" d="M93 0l72 312l-48 394h51l36 -332l190 332h54l-235 -394l-72 -312h-48z" />
<glyph unicode="Z" horiz-adv-x="349" d="M-26 0l7 32l372 631h-191l10 43h249l-8 -33l-370 -629h231l-10 -44h-290z" />
<glyph unicode="[" horiz-adv-x="229" d="M-12 -141l196 847h142l-9 -36h-99l-178 -773h99l-9 -38h-142z" />
<glyph unicode="\" horiz-adv-x="313" d="M130 706h40l64 -706h-41z" />
<glyph unicode="]" horiz-adv-x="229" d="M-73 -139l8 36h99l178 772h-99l9 38h142l-196 -846h-141z" />
<glyph unicode="^" d="M95 357l268 349h46l109 -352l-47 1l-93 306l-228 -304h-55z" />
<glyph unicode="_" horiz-adv-x="500" d="M-110 -198l10 43h520l-10 -43h-520z" />
<glyph unicode="`" horiz-adv-x="304" d="M31 679h95l72 -109h-33z" />
<glyph unicode="a" horiz-adv-x="311" d="M-2 98q0 42 12 73t37 51.5t43.5 30.5t51.5 24q68 28 99 50l10 41q9 36 9 55q0 43 -58 43q-37 0 -55 -24.5t-31 -93.5h-43q8 38 12 55t14.5 41.5t23.5 35t35.5 18.5t53.5 8q42 0 67 -20t25 -54q0 -23 -12 -73l-66 -281q-3 -12 -3 -22q0 -16 23 -16h7l-9 -40h-10 q-41 0 -48 38q-39 -39 -93 -39q-44 0 -69.5 26.5t-25.5 72.5zM41 105q0 -66 57 -66q50 0 89 48l44 192q-38 -22 -64 -34l-31 -14q-95 -43 -95 -126z" />
<glyph unicode="b" horiz-adv-x="327" d="M-4 0l163 706h42l-56 -241q36 42 90 42q39 0 62 -23.5t23 -63.5q0 -19 -10 -65l-55 -239q-27 -120 -118 -120q-57 0 -86 46l-10 -42h-45zM66 103q0 -31 20.5 -50t52.5 -19q55 0 77 97l54 232q7 32 7 48q0 28 -15 43t-42 15q-34 0 -59 -22q-15 -12 -21.5 -29t-18.5 -66 l-47 -201q-8 -37 -8 -48z" />
<glyph unicode="c" horiz-adv-x="307" d="M9 92q0 24 9 64l48 207q19 79 47.5 110t84.5 31q51 0 78.5 -23t27.5 -66q0 -29 -16 -90h-42q14 63 14 81q0 61 -64 61q-38 0 -55.5 -24t-28.5 -69l-50 -216q-9 -41 -9 -58q0 -63 66 -63q29 0 47.5 15t24.5 31t13 46l15 64h43l-14 -61q-18 -77 -47 -103q-33 -31 -87 -31 q-49 0 -77 25t-28 69z" />
<glyph unicode="d" horiz-adv-x="330" d="M9 81q0 17 9 58l52 223q7 31 13 48t20 42.5t38 38t57 12.5q55 0 83 -47l58 250h42l-163 -706h-40l7 31q-34 -35 -82 -35q-43 0 -68.5 23t-25.5 62zM52 89q0 -56 65 -56q30 0 53.5 20t30.5 54l58 250q4 16 4 37q0 31 -18 50.5t-46 19.5q-29 0 -47.5 -16.5t-25.5 -35.5 t-15 -54l-52 -227q-7 -30 -7 -42z" />
<glyph unicode="e" horiz-adv-x="311" d="M14 84q0 16 7 50l58 251q13 55 30 78q33 43 97 43q49 0 76.5 -24t27.5 -68q0 -24 -10 -67l-23 -101h-188l-26 -113q-6 -27 -6 -43q0 -27 17 -42.5t47 -15.5q36 0 54 19.5t32 79.5l9 39h43l-11 -47q-17 -74 -46 -102t-83 -28q-50 0 -77.5 23.5t-27.5 67.5zM97 282h145 l19 82q6 24 6 44q0 60 -65 60q-38 0 -58 -25q-14 -18 -27 -73z" />
<glyph unicode="f" horiz-adv-x="179" d="M7 0l105 457h-56l10 41h56l19 89q15 68 40.5 95t71.5 27q11 0 32 -3l-9 -40q-20 3 -26 3q-21 0 -34.5 -12t-18.5 -25.5t-11 -40.5l-22 -93h65l-10 -41h-64l-105 -457h-43z" />
<glyph unicode="g" horiz-adv-x="330" d="M-30 -69q0 10 1 18h43q-1 -7 -1 -16q0 -51 67 -51q45 0 63.5 23t30.5 84l8 39q-32 -32 -82 -32q-41 0 -66 23.5t-25 61.5q0 17 9 58l51 220q7 31 14 51.5t21.5 44.5t38 36t55.5 12q30 0 49 -10.5t34 -36.5l11 42h41l-129 -553q-24 -103 -128 -103q-50 0 -78 23.5 t-28 65.5zM52 89q0 -56 65 -56q30 0 53.5 20t30.5 54l58 250q4 16 4 38q0 30 -18 49.5t-46 19.5q-22 0 -37.5 -7.5t-25 -24.5t-14.5 -32t-11 -41l-52 -228q-7 -30 -7 -42z" />
<glyph unicode="h" horiz-adv-x="333" d="M-4 0l162 706h42l-59 -257q39 56 93 56q39 0 62.5 -23.5t23.5 -61.5q0 -28 -10 -69l-82 -351h-42l81 349q10 45 10 64q0 25 -16 40.5t-42 15.5q-33 0 -59 -28t-37 -77l-84 -364h-43z" />
<glyph unicode="i" horiz-adv-x="143" d="M-4 0l114 498h43l-114 -498h-43zM125 559l18 78h43l-18 -78h-43z" />
<glyph unicode="j" horiz-adv-x="151" d="M-97 -163l10 43q37 9 55.5 31.5t30.5 72.5l119 514h43l-119 -515q-17 -74 -49 -105t-90 -41zM132 559l18 78h43l-18 -78h-43z" />
<glyph unicode="k" horiz-adv-x="305" d="M-4 0l163 706h42l-104 -448l193 241h49l-157 -195l62 -304h-44l-53 263l-65 -76l-43 -187h-43z" />
<glyph unicode="l" horiz-adv-x="143" d="M-4 0l162 706h43l-162 -706h-43z" />
<glyph unicode="m" horiz-adv-x="522" d="M-4 0l114 498h43l-11 -50q36 57 92 57q62 0 83 -61q43 61 105 61q39 0 63 -23.5t24 -61.5q0 -28 -10 -69l-82 -351h-42l81 349q10 45 10 64q0 25 -16 40.5t-42 15.5q-40 0 -62 -30t-35 -83l-83 -356h-42l81 349q10 45 10 64q0 25 -16 40.5t-42 15.5q-33 0 -59 -28 t-37 -77l-84 -364h-43z" />
<glyph unicode="n" horiz-adv-x="333" d="M-4 0l114 498h42l-11 -49q36 56 93 56q38 0 61.5 -23.5t23.5 -61.5q0 -31 -9 -68l-82 -352h-42l80 349q10 45 10 64q0 26 -15.5 41.5t-42.5 15.5q-33 0 -59 -28.5t-37 -76.5l-84 -365h-42z" />
<glyph unicode="o" horiz-adv-x="313" d="M10 86q0 18 10 67l48 218q14 65 42 99.5t91 34.5q49 0 79 -25.5t30 -67.5q0 -21 -10 -67l-47 -212q-15 -71 -42.5 -105.5t-89.5 -34.5q-51 0 -81 25t-30 68zM55 94q0 -28 18.5 -44t51.5 -16q23 0 38 7.5t24.5 26t14 34t11.5 46.5l44 199q8 35 8 56q0 29 -18.5 45 t-51.5 16q-23 0 -38.5 -9t-25.5 -29t-14 -33.5t-10 -42.5l-44 -199q-8 -34 -8 -57z" />
<glyph unicode="p" horiz-adv-x="330" d="M-42 -163l152 661h40l-7 -31q33 36 83 36q43 0 68 -23t25 -63q0 -17 -9 -58l-50 -219q-15 -67 -44 -106t-87 -39q-30 0 -48 10.5t-34 36.5l-47 -205h-42zM65 104q0 -31 18 -50t47 -19q22 0 37 7.5t24.5 24.5t14.5 31.5t11 41.5l53 227q6 27 6 42q0 27 -17 42t-47 15 q-31 0 -54.5 -20.5t-30.5 -54.5l-57 -250q-5 -18 -5 -37z" />
<glyph unicode="q" horiz-adv-x="327" d="M10 82q0 17 10 64l54 237q27 120 118 120q58 0 86 -46l10 41h45l-153 -661h-42l47 199q-38 -42 -90 -42q-39 0 -62 24t-23 64zM53 90q0 -58 57 -58q33 0 58 22q15 13 23 31t18 64l46 199q7 32 7 48q0 31 -19.5 50t-50.5 19q-56 0 -79 -97l-53 -230q-7 -32 -7 -48z" />
<glyph unicode="r" horiz-adv-x="204" d="M-4 0l115 498h41l-20 -85q52 92 127 97l-12 -54q-49 -4 -85.5 -42t-51.5 -102l-72 -312h-42z" />
<glyph unicode="s" horiz-adv-x="288" d="M-5 92q0 22 7 51l9 41h42l-6 -31q-8 -44 -8 -53q0 -66 72 -66q41 0 63.5 28t22.5 78q0 37 -27 69l-66 80q-30 37 -30 83q0 60 33 96.5t88 36.5q47 0 73 -23t26 -64q0 -15 -7 -45l-7 -32h-43l8 38q4 16 4 36q0 23 -15.5 36.5t-43.5 13.5q-33 0 -53 -23t-20 -62 q0 -38 30 -74l48 -57q46 -54 46 -107q0 -67 -36.5 -107.5t-97.5 -40.5q-51 0 -81.5 27t-30.5 71z" />
<glyph unicode="t" horiz-adv-x="182" d="M16 45q0 5 2 15l92 398h-56l10 40h55l31 135h43l-31 -135h70l-9 -40h-70l-88 -377q-3 -12 -3 -21q0 -22 36 -22q8 0 34 2l-9 -38q-28 -4 -43 -4q-64 0 -64 47z" />
<glyph unicode="u" horiz-adv-x="333" d="M18 78q0 28 10 69l81 351h43l-81 -349q-10 -44 -10 -64q0 -25 16 -40.5t42 -15.5q33 0 59 28.5t37 76.5l84 364h43l-114 -498h-43l11 50q-36 -57 -93 -57q-38 0 -61.5 23.5t-23.5 61.5z" />
<glyph unicode="v" horiz-adv-x="269" d="M57 0l20 498h44l-25 -432l175 432h46l-211 -498h-49z" />
<glyph unicode="w" horiz-adv-x="436" d="M52 0l26 498h43l-29 -421l176 421h35l-27 -416l169 416h44l-212 -498h-43l29 404l-167 -404h-44z" />
<glyph unicode="x" horiz-adv-x="306" d="M-37 0l168 261l-47 237h44l35 -199l123 199h49l-156 -238l49 -260h-46l-35 221l-135 -221h-49z" />
<glyph unicode="y" horiz-adv-x="288" d="M-87 -157l9 38q25 -5 42 -5q25 0 44 19t40 66l19 42q8 456 9 495h42l-12 -414l190 414h45l-264 -559q-29 -61 -54.5 -81t-62.5 -20q-16 0 -47 5z" />
<glyph unicode="z" horiz-adv-x="286" d="M-31 0l9 38l266 419h-159l10 41h210l-8 -34l-269 -422h173l-10 -42h-222z" />
<glyph unicode="{" horiz-adv-x="212" d="M12 -67q0 15 13 75l38 167q6 24 6 42q0 26 -11 39.5t-38 20.5l7 29q40 7 58 27t29 67l37 159q11 48 18.5 70t23 46t40 32.5t63.5 8.5h27l-8 -36h-24q-25 0 -41 -6t-25.5 -21.5t-14 -29t-10.5 -40.5l-39 -171q-14 -62 -34.5 -87.5t-65.5 -35.5q50 -22 50 -76q0 -21 -6 -47 l-45 -196q-4 -16 -4 -33q0 -26 16.5 -36.5t60.5 -11.5l-8 -35h-9q-54 0 -79 19t-25 60z" />
<glyph unicode="|" horiz-adv-x="229" d="M-26 -250l229 998h43l-230 -998h-42z" />
<glyph unicode="}" horiz-adv-x="212" d="M-93 -145l7 35h22q26 0 42.5 6t26.5 23.5t14 30t11 42.5l39 166q15 63 34.5 88t64.5 35q-50 22 -50 76q0 17 7 47l44 196q4 16 4 33q0 26 -16.5 36.5t-60.5 11.5l8 35h9q54 0 79 -19t25 -60q0 -20 -13 -75l-38 -167q-5 -20 -5 -42q0 -26 11 -39.5t38 -20.5l-7 -29 q-36 -2 -56.5 -25t-31.5 -69l-40 -172q-19 -83 -46 -113t-94 -30h-28z" />
<glyph unicode="~" d="M79 278q39 39 67.5 54.5t63.5 15.5q28 0 79 -24l42 -20q36 -17 53 -17q24 0 45.5 11.5t56.5 43.5l29 -30q-77 -69 -135 -69q-29 0 -83 27l-24 12q-41 21 -70 21q-22 0 -40 -9.5t-46 -37.5l-9 -9z" />
<glyph unicode="&#xa2;" horiz-adv-x="330" d="M23 92q0 20 10 64l49 213q17 75 48.5 106.5t87.5 31.5l10 41h30l-10 -43q76 -13 76 -87q0 -26 -7 -58l-8 -35h-45l9 39q5 20 5 35q0 68 -64 68q-32 0 -52 -20t-32 -73l-50 -213q-9 -41 -9 -58q0 -62 66 -62q41 0 59.5 26t28.5 73l12 53h45l-16 -70q-15 -68 -46 -95.5 t-87 -29.5l-17 -68h-30l16 71q-79 18 -79 91z" />
<glyph unicode="&#xa3;" horiz-adv-x="403" d="M-28 0l12 50q97 13 154 68.5t57 131.5q0 31 -16 69h-116l9 37h91q-15 46 -15 89q0 51 21 118.5t48 101.5q39 48 114 48q53 0 82.5 -25t29.5 -69q0 -17 -10 -60l-16 -73h-49l19 79q7 29 7 51q0 27 -17.5 42t-49.5 15q-59 0 -86 -56q-42 -86 -42 -171q0 -39 20 -90h130 l-9 -37h-105q9 -32 9 -61q0 -67 -38.5 -123t-114.5 -88l27 -3q27 -4 54.5 -6.5t54.5 -2.5q63 0 123 22l-12 -48q-47 -16 -117 -16q-26 0 -66 4l-73 8q-14 2 -36 2q-31 0 -74 -7z" />
<glyph unicode="&#xa5;" horiz-adv-x="404" d="M66 280l9 37h117l-5 45h-102l9 38h89l-36 306h50l32 -328l190 328h52l-182 -306h90l-9 -38h-102l-27 -45h118l-8 -37h-119l-65 -280h-49l66 280h-118z" />
<glyph unicode="&#xa8;" horiz-adv-x="229" d="M32 585l18 77h48l-18 -77h-48zM131 585l18 77h48l-18 -77h-48z" />
<glyph unicode="&#xa9;" horiz-adv-x="799" d="M79 355q0 148 103.5 251t252.5 103q150 0 253 -103t103 -254q0 -149 -104 -252t-253 -103t-252 104t-103 254zM111 352q0 -134 95 -228.5t229 -94.5t229 94.5t95 227.5q0 137 -93.5 231.5t-229.5 94.5t-230.5 -94.5t-94.5 -230.5zM296 215q0 29 14 88l41 168 q15 61 43.5 86.5t77.5 25.5q42 0 65.5 -23.5t23.5 -64.5q0 -23 -5 -46l-7 -35h-45l9 41q4 20 4 41q0 46 -50 46q-19 0 -32 -7t-21 -22.5t-12 -28t-9 -36.5l-35 -155q-12 -56 -12 -75q0 -51 54 -51q26 0 42.5 20t29.5 82l6 28h46l-9 -40q-16 -73 -42.5 -102.5t-73.5 -29.5 q-48 0 -75.5 24t-27.5 66z" />
<glyph unicode="&#xaa;" horiz-adv-x="275" d="M74 435q0 83 98 120q62 23 93 42l7 28q5 21 5 33q0 35 -43 35q-28 0 -43 -19t-23 -64h-37l4 15q17 65 37 81q25 19 65 19q79 0 79 -58q0 -15 -8 -49l-48 -206q-1 -5 -1 -12q0 -12 18 -12h7l-8 -32h-7q-37 0 -44 28q-32 -29 -73 -29q-36 0 -57 21.5t-21 58.5zM113 438 q0 -51 46 -51q36 0 66 33l32 140q-22 -14 -76 -35q-40 -16 -54 -34t-14 -53z" />
<glyph unicode="&#xab;" horiz-adv-x="375" d="M38 293l145 100h64l-146 -104l92 -96h-59zM174 293l145 100h64l-146 -104l92 -96h-59z" />
<glyph unicode="&#xac;" d="M82 274l11 41h409l-51 -226h-45l41 185h-365z" />
<glyph unicode="&#xad;" horiz-adv-x="248" d="M45 271l10 42h177l-10 -42h-177z" />
<glyph unicode="&#xae;" horiz-adv-x="799" d="M79 355q0 148 103.5 251t252.5 103q150 0 253 -103t103 -254q0 -149 -104 -252t-253 -103t-252 104t-103 254zM111 352q0 -134 95 -228.5t229 -94.5t229 94.5t95 227.5q0 137 -93.5 231.5t-229.5 94.5t-230.5 -94.5t-94.5 -230.5zM286 131l102 449h62q25 0 42.5 -3 t38 -12.5t31 -33t10.5 -59.5q0 -56 -27.5 -92.5t-75.5 -43.5l54 -205h-53l-49 200h-39l-45 -200h-51zM392 375h23q54 0 75 14q32 22 32 90q0 27 -13 41t-51 14h-31z" />
<glyph unicode="&#xb1;" d="M33 0l9 42h391l-10 -42h-390zM95 275l10 41h174l41 184h43l-41 -184h174l-11 -41h-173l-42 -183h-42l41 183h-174z" />
<glyph unicode="&#xb4;" horiz-adv-x="229" d="M20 567l94 109h95l-152 -109h-37z" />
<glyph unicode="&#xb5;" horiz-adv-x="343" d="M-48 -215l165 713h43l-80 -348q-10 -45 -10 -63q0 -25 16.5 -40t43.5 -15q32 0 56.5 27t35.5 75l84 364h43l-93 -404q-6 -25 -6 -38q0 -18 21 -18h8l-9 -40h-10q-52 0 -52 53q-40 -58 -90 -58q-48 0 -67 42l-56 -250h-43z" />
<glyph unicode="&#xb8;" horiz-adv-x="229" d="M33 -116l24 19q31 -26 56 -26q17 0 27 9t10 24q0 14 -9.5 23t-35.5 20l19 59h35l-12 -38q49 -24 49 -64q0 -30 -20.5 -49.5t-52.5 -19.5q-40 0 -90 43z" />
<glyph unicode="&#xba;" horiz-adv-x="275" d="M73 421q0 15 8 47l37 158q5 21 9.5 32.5t15.5 30t32.5 28t51.5 9.5q41 0 64.5 -19t23.5 -51q0 -18 -7 -45l-42 -176q-19 -82 -103 -82q-41 0 -65.5 18.5t-24.5 49.5zM115 430q0 -43 54 -43q30 0 43 18t24 64l32 140q5 22 5 37q0 20 -13.5 32.5t-39.5 12.5 q-30 0 -43 -15.5t-22 -56.5l-34 -150q-6 -30 -6 -39z" />
<glyph unicode="&#xbb;" horiz-adv-x="375" d="M12 193l146 103l-92 96h59l96 -100l-145 -99h-64zM148 193l146 103l-92 96h59l96 -100l-145 -99h-64z" />
<glyph unicode="&#xc0;" horiz-adv-x="375" d="M-32 0l296 710h68l-39 -710h-48l13 215h-150l-88 -215h-52zM127 261h133l28 395zM186 881h94l66 -109h-33z" />
<glyph unicode="&#xc8;" horiz-adv-x="330" d="M-1 0l163 706h243l-10 -44h-195l-63 -272h163l-10 -43h-163l-70 -303h201l-10 -44h-249zM162 881h94l66 -109h-33z" />
<glyph unicode="&#xc9;" horiz-adv-x="330" d="M-1 0l163 706h243l-10 -44h-195l-63 -272h163l-10 -43h-163l-70 -303h201l-10 -44h-249zM251 769l100 109h94l-157 -109h-37z" />
<glyph unicode="&#xcc;" horiz-adv-x="164" d="M1 0l163 706h48l-163 -706h-48zM84 881h94l66 -109h-33z" />
<glyph unicode="&#xd2;" horiz-adv-x="396" d="M27 105q0 32 10 75l88 378q20 85 59 121t105 36q59 0 94 -31t35 -83q0 -32 -10 -75l-88 -376q-21 -90 -60 -124.5t-104 -34.5q-59 0 -94 31t-35 83zM76 114q0 -38 23 -59t64 -21q28 0 48.5 11t32.5 32.5t18 39t12 44.5l81 342q14 61 14 89q0 38 -22.5 59t-64.5 21 q-28 0 -48.5 -10.5t-32 -31.5t-17 -36.5t-11.5 -41.5l-83 -349q-14 -61 -14 -89zM190 881h94l66 -109h-33z" />
<glyph unicode="&#xd3;" horiz-adv-x="396" d="M27 105q0 32 10 75l88 378q20 85 59 121t105 36q59 0 94 -31t35 -83q0 -32 -10 -75l-88 -376q-21 -90 -60 -124.5t-104 -34.5q-59 0 -94 31t-35 83zM76 114q0 -38 23 -59t64 -21q28 0 48.5 11t32.5 32.5t18 39t12 44.5l81 342q14 61 14 89q0 38 -22.5 59t-64.5 21 q-28 0 -48.5 -10.5t-32 -31.5t-17 -36.5t-11.5 -41.5l-83 -349q-14 -61 -14 -89zM259 769l100 109h94l-157 -109h-37z" />
<glyph unicode="&#xd9;" horiz-adv-x="390" d="M24 91q0 27 11 76l125 539h48l-126 -547q-9 -38 -9 -62q0 -30 22 -46.5t62 -16.5q43 0 66.5 22t40.5 97l128 553h48l-129 -557q-20 -88 -54 -123.5t-104 -35.5q-61 0 -95 26.5t-34 74.5zM186 881h94l66 -109h-33z" />
<glyph unicode="&#xe0;" horiz-adv-x="311" d="M-2 98q0 42 12 73t37 51.5t43.5 30.5t51.5 24q68 28 99 50l10 41q9 36 9 55q0 43 -58 43q-37 0 -55 -24.5t-31 -93.5h-43q8 38 12 55t14.5 41.5t23.5 35t35.5 18.5t53.5 8q42 0 67 -20t25 -54q0 -23 -12 -73l-66 -281q-3 -12 -3 -22q0 -16 23 -16h7l-9 -40h-10 q-41 0 -48 38q-39 -39 -93 -39q-44 0 -69.5 26.5t-25.5 72.5zM41 105q0 -66 57 -66q50 0 89 48l44 192q-38 -22 -64 -34l-31 -14q-95 -43 -95 -126zM96 679h95l72 -109h-33z" />
<glyph unicode="&#xe8;" horiz-adv-x="311" d="M14 84q0 16 7 50l58 251q13 55 30 78q33 43 97 43q49 0 76.5 -24t27.5 -68q0 -24 -10 -67l-23 -101h-188l-26 -113q-6 -27 -6 -43q0 -27 17 -42.5t47 -15.5q36 0 54 19.5t32 79.5l9 39h43l-11 -47q-17 -74 -46 -102t-83 -28q-50 0 -77.5 23.5t-27.5 67.5zM91 679h95 l72 -109h-33zM97 282h145l19 82q6 24 6 44q0 60 -65 60q-38 0 -58 -25q-14 -18 -27 -73z" />
<glyph unicode="&#xe9;" horiz-adv-x="311" d="M14 84q0 16 7 50l58 251q13 55 30 78q33 43 97 43q49 0 76.5 -24t27.5 -68q0 -24 -10 -67l-23 -101h-188l-26 -113q-6 -27 -6 -43q0 -27 17 -42.5t47 -15.5q36 0 54 19.5t32 79.5l9 39h43l-11 -47q-17 -74 -46 -102t-83 -28q-50 0 -77.5 23.5t-27.5 67.5zM97 282h145 l19 82q6 24 6 44q0 60 -65 60q-38 0 -58 -25q-14 -18 -27 -73zM186 567l94 109h95l-152 -109h-37z" />
<glyph unicode="&#xec;" horiz-adv-x="143" d="M-4 0l114 498h43l-114 -498h-43zM18 679h95l72 -109h-33z" />
<glyph unicode="&#xf2;" horiz-adv-x="313" d="M10 86q0 18 10 67l48 218q14 65 42 99.5t91 34.5q49 0 79 -25.5t30 -67.5q0 -21 -10 -67l-47 -212q-15 -71 -42.5 -105.5t-89.5 -34.5q-51 0 -81 25t-30 68zM55 94q0 -28 18.5 -44t51.5 -16q23 0 38 7.5t24.5 26t14 34t11.5 46.5l44 199q8 35 8 56q0 29 -18.5 45 t-51.5 16q-23 0 -38.5 -9t-25.5 -29t-14 -33.5t-10 -42.5l-44 -199q-8 -34 -8 -57zM94 679h95l72 -109h-33z" />
<glyph unicode="&#xf3;" horiz-adv-x="313" d="M10 86q0 18 10 67l48 218q14 65 42 99.5t91 34.5q49 0 79 -25.5t30 -67.5q0 -21 -10 -67l-47 -212q-15 -71 -42.5 -105.5t-89.5 -34.5q-51 0 -81 25t-30 68zM55 94q0 -28 18.5 -44t51.5 -16q23 0 38 7.5t24.5 26t14 34t11.5 46.5l44 199q8 35 8 56q0 29 -18.5 45 t-51.5 16q-23 0 -38.5 -9t-25.5 -29t-14 -33.5t-10 -42.5l-44 -199q-8 -34 -8 -57zM178 567l94 109h95l-152 -109h-37z" />
<glyph unicode="&#xf7;" d="M99 275l10 42h390l-10 -42h-390zM240 139l16 74h49l-17 -74h-48zM294 378l17 74h49l-17 -74h-49z" />
<glyph unicode="&#xf9;" horiz-adv-x="333" d="M18 78q0 28 10 69l81 351h43l-81 -349q-10 -44 -10 -64q0 -25 16 -40.5t42 -15.5q33 0 59 28.5t37 76.5l84 364h43l-114 -498h-43l11 50q-36 -57 -93 -57q-38 0 -61.5 23.5t-23.5 61.5zM106 679h95l72 -109h-33z" />
<glyph unicode="&#x192;" horiz-adv-x="236" d="M-70 -144l10 42q14 -2 25 -2q28 0 41.5 14t22.5 53l115 497h-57l10 40h56l26 112q14 57 38 79.5t73 22.5q18 0 32 -3l-10 -41q-15 3 -26 3q-29 0 -41 -14t-23 -61l-23 -98h65l-10 -40h-64l-115 -495q-15 -64 -41 -87.5t-70 -23.5q-14 0 -34 2z" />
<glyph unicode="&#x2c6;" horiz-adv-x="229" d="M15 568l99 109h51l49 -109h-39l-40 71l-79 -71h-41z" />
<glyph unicode="&#x2da;" horiz-adv-x="229" d="M48 617q0 27 19 46.5t47 19.5q27 0 47 -20t20 -47t-19.5 -46.5t-45.5 -19.5q-28 0 -48 19.5t-20 47.5zM70 616q0 -19 12.5 -31.5t31.5 -12.5q18 0 31.5 13t13.5 31t-13 31.5t-31 13.5t-31.5 -13.5t-13.5 -31.5z" />
<glyph unicode="&#x2dc;" horiz-adv-x="229" d="M0 579q6 34 25.5 57.5t50.5 23.5q19 0 48 -16.5t41 -16.5q27 0 34 33h30q-8 -39 -23 -60t-46 -21q-18 0 -50 19t-43 19q-29 0 -38 -38h-29z" />
<glyph unicode="&#x3a9;" horiz-adv-x="420" d="M0 0l10 44h80q-29 54 -29 115q0 63 34 211l42 186q20 87 59.5 123t104.5 36q60 0 95 -30.5t35 -83.5q0 -31 -10 -75l-43 -185q-34 -145 -55 -203t-63 -94h72l-10 -44h-134l10 44q68 29 109 203l60 256q15 64 15 89q0 38 -23 59t-64 21q-51 0 -74.5 -32.5t-37.5 -95.5 l-40 -171q-35 -151 -35 -217q0 -68 32 -112l-10 -44h-130z" />
<glyph unicode="&#x3c0;" horiz-adv-x="351" d="M7 0l104 456h-30l10 42h284l-9 -42h-32l-87 -374q-5 -20 -5 -26q0 -16 23 -16h8l-9 -40h-9q-57 0 -57 49q0 12 7 41l85 366h-135l-106 -456h-42z" />
<glyph unicode="&#x2000;" horiz-adv-x="440" />
<glyph unicode="&#x2001;" horiz-adv-x="881" />
<glyph unicode="&#x2002;" horiz-adv-x="440" />
<glyph unicode="&#x2003;" horiz-adv-x="881" />
<glyph unicode="&#x2004;" horiz-adv-x="293" />
<glyph unicode="&#x2005;" horiz-adv-x="220" />
<glyph unicode="&#x2006;" horiz-adv-x="146" />
<glyph unicode="&#x2007;" horiz-adv-x="146" />
<glyph unicode="&#x2008;" horiz-adv-x="110" />
<glyph unicode="&#x2009;" horiz-adv-x="176" />
<glyph unicode="&#x200a;" horiz-adv-x="48" />
<glyph unicode="&#x2010;" horiz-adv-x="248" d="M45 271l10 42h177l-10 -42h-177z" />
<glyph unicode="&#x2011;" horiz-adv-x="248" d="M45 271l10 42h177l-10 -42h-177z" />
<glyph unicode="&#x2012;" horiz-adv-x="248" d="M45 271l10 42h177l-10 -42h-177z" />
<glyph unicode="&#x2013;" horiz-adv-x="355" d="M45 271l9 42h284l-9 -42h-284z" />
<glyph unicode="&#x2014;" horiz-adv-x="492" d="M45 273l9 42h421l-9 -42h-421z" />
<glyph unicode="&#x2018;" horiz-adv-x="145" d="M122 527l21 91q10 42 23 60t43 30l-5 -22q-5 -3 -8.5 -5.5t-7 -5.5t-5.5 -4.5t-4 -6t-3 -6t-3 -7.5t-2.5 -8.5t-3 -11t-3.5 -13.5h24l-21 -91h-45z" />
<glyph unicode="&#x2019;" horiz-adv-x="145" d="M117 525l5 22q21 16 26 24.5t13 43.5h-24l21 91h45l-21 -91q-10 -42 -23 -60t-42 -30z" />
<glyph unicode="&#x201a;" horiz-adv-x="145" d="M-25 -90l5 23q18 10 24.5 21t15.5 46h-24l21 91h45l-21 -90q-10 -42 -23 -60.5t-43 -30.5z" />
<glyph unicode="&#x201c;" horiz-adv-x="246" d="M122 527l21 91q10 42 23 60t43 30l-5 -22q-5 -3 -8.5 -5.5t-7 -5.5t-5.5 -4.5t-4 -6t-3 -6t-3 -7.5t-2.5 -8.5t-3 -11t-3.5 -13.5h24l-21 -91h-45zM223 527l21 91q10 42 23 60t43 30l-5 -22q-7 -4 -11 -7t-8 -7t-5.5 -6t-4 -8.5t-3 -9.5t-3.5 -13.5t-5 -16.5h24l-21 -91 h-45z" />
<glyph unicode="&#x201d;" horiz-adv-x="246" d="M117 525l5 22q21 16 26 24.5t13 43.5h-24l21 91h45l-21 -91q-10 -42 -23 -60t-42 -30zM218 525l5 22q21 16 26 24.5t13 43.5h-24l21 91h45l-20 -91q-9 -41 -22.5 -59.5t-43.5 -30.5z" />
<glyph unicode="&#x201e;" horiz-adv-x="246" d="M-25 -90l5 23q18 10 24.5 21t15.5 46h-24l21 91h45l-21 -90q-10 -42 -23 -60.5t-43 -30.5zM76 -90l5 23q18 10 24.5 21t15.5 46h-24l21 91h45l-21 -90q-10 -42 -23 -60.5t-43 -30.5z" />
<glyph unicode="&#x2022;" horiz-adv-x="333" d="M96 256l47 199h142l-47 -199h-142z" />
<glyph unicode="&#x2026;" horiz-adv-x="1000" d="M80 0l14 65h52l-15 -65h-51zM413 0l14 65h52l-14 -65h-52zM745 0l14 65h52l-14 -65h-52z" />
<glyph unicode="&#x202f;" horiz-adv-x="176" />
<glyph unicode="&#x2030;" horiz-adv-x="803" d="M22 -56l568 843l24 -16l-567 -841zM48 332q0 19 8 52l48 201q16 65 37 94.5t71 29.5q39 0 61.5 -19t22.5 -53q0 -19 -8 -52l-48 -200q-17 -73 -40 -99t-69 -26q-38 0 -60.5 19.5t-22.5 52.5zM86 339q0 -43 49 -43q30 0 42 18.5t23 64.5l51 206q8 34 8 44q0 21 -13 32.5 t-34 11.5q-28 0 -41.5 -15.5t-23.5 -55.5l-54 -218q-7 -28 -7 -45zM335 69q0 19 8 52l48 201q16 65 37 94.5t71 29.5q39 0 61.5 -19t22.5 -53q0 -23 -7 -52l-48 -200q-17 -73 -40.5 -99t-69.5 -26q-38 0 -60.5 19.5t-22.5 52.5zM373 76q0 -43 49 -43q30 0 42 18.5t23 64.5 l51 206q8 34 8 44q0 21 -13 32.5t-34 11.5q-30 0 -42.5 -16.5t-22.5 -56.5l-54 -216q-7 -28 -7 -45zM586 69q0 19 8 52l48 201q16 65 37 94.5t71 29.5q39 0 61.5 -19t22.5 -53q0 -23 -7 -52l-48 -200q-17 -73 -40.5 -99t-69.5 -26q-38 0 -60.5 19.5t-22.5 52.5zM624 76 q0 -43 49 -43q30 0 42 18.5t23 64.5l51 206q8 34 8 44q0 21 -13 32.5t-34 11.5q-30 0 -42.5 -16.5t-22.5 -56.5l-54 -216q-7 -28 -7 -45z" />
<glyph unicode="&#x2039;" horiz-adv-x="239" d="M38 293l145 100h64l-146 -104l92 -96h-59z" />
<glyph unicode="&#x203a;" horiz-adv-x="239" d="M12 193l146 103l-92 96h59l96 -100l-145 -99h-64z" />
<glyph unicode="&#x2044;" horiz-adv-x="125" d="M-208 -56l569 843l23 -16l-567 -841z" />
<glyph unicode="&#x205f;" horiz-adv-x="220" />
<glyph unicode="&#x20ac;" horiz-adv-x="374" d="M46 312l17 37h48l11 45h-56l15 38h49l35 156q28 128 144 128q70 0 126 -56l-25 -41q-42 55 -106 55q-51 0 -69.5 -31t-39.5 -127l-18 -84h164l-17 -38h-156l-11 -45h151l-16 -37h-143l-29 -132q-10 -48 -10 -71q0 -36 22 -55.5t62 -19.5q56 0 118 47l-14 -63 q-52 -28 -107 -28q-63 0 -96 30.5t-33 88.5q0 28 12 81l29 122h-57z" />
<glyph unicode="&#x2122;" horiz-adv-x="514" d="M114 670l8 36h164l-8 -36h-56l-68 -296h-39l68 296h-69zM245 374l78 332h55l-9 -295l129 295h58l-78 -332h-39l77 300l-133 -300h-44l9 300l-64 -300h-39z" />
<glyph unicode="&#x2202;" horiz-adv-x="410" d="M30 154q0 109 56.5 187.5t134.5 78.5q64 0 111 -59q14 81 14 152q0 87 -20.5 123t-70.5 36q-29 0 -66 -12v41q40 13 75 13q68 0 98 -45.5t30 -149.5q0 -147 -49 -320q-31 -107 -74.5 -158t-105.5 -51q-61 0 -97 44t-36 120zM81 147q0 -55 21.5 -85t61.5 -30q55 0 90 63 q16 28 36.5 93t29.5 124q-43 67 -103 67q-58 0 -97 -66.5t-39 -165.5z" />
<glyph unicode="&#x2206;" horiz-adv-x="377" d="M-48 0l317 706h59l-7 -706h-369zM25 44h247q15 595 15 600z" />
<glyph unicode="&#x220f;" horiz-adv-x="414" d="M-15 -122l191 828h274l-190 -828h-48l181 784h-179l-181 -784h-48z" />
<glyph unicode="&#x2211;" horiz-adv-x="403" d="M-21 -122l10 43l278 379l-107 362l10 44h274l-10 -44h-227l113 -370l-280 -370h230l-10 -44h-281z" />
<glyph unicode="&#x221a;" d="M50 151l108 45l48 -305l324 815h51l-359 -891h-46l-56 318l-59 -23z" />
<glyph unicode="&#x221e;" d="M48 263q0 74 41.5 126.5t99.5 52.5q38 0 63.5 -26.5t47.5 -82.5q47 62 76.5 85.5t67.5 23.5q41 0 66 -31t25 -82q0 -78 -38 -129.5t-96 -51.5q-42 0 -68 25.5t-51 83.5q-39 -57 -69.5 -82.5t-72.5 -25.5t-67 30.5t-25 83.5zM93 267q0 -35 15.5 -56.5t39.5 -21.5 q14 0 27 6t26 20t21 23.5t22.5 30t19.5 27.5q-12 30 -18.5 44t-17.5 30.5t-22.5 23t-26.5 6.5q-35 0 -60.5 -39t-25.5 -94zM319 295q14 -36 23 -54t25.5 -34t35.5 -16q35 0 60 38.5t25 92.5q0 36 -15 58t-39 22q-9 0 -17 -2.5t-16.5 -8.5t-14.5 -11.5t-15.5 -17t-15.5 -19 t-17.5 -23.5t-18.5 -25z" />
<glyph unicode="&#x222b;" horiz-adv-x="231" d="M-96 -167l12 51q24 -17 44 -17q26 0 40 17.5t24 61.5l141 640q17 75 33 98q26 36 76 36q24 0 53 -11l-11 -49q-25 19 -46 19q-20 0 -33 -18t-23 -60l-141 -645q-16 -76 -42 -104.5t-76 -28.5q-25 0 -51 10z" />
<glyph unicode="&#x2248;" d="M64 210q40 37 66.5 51t62.5 14q28 0 79 -22l41 -18q35 -16 54 -16q24 0 44 9.5t59 41.5l26 -28q-44 -37 -73.5 -50.5t-59.5 -13.5q-33 0 -84 25l-23 11q-39 19 -70 19q-37 0 -86 -43l-9 -8zM95 347q41 38 66 51.5t62 13.5q29 0 80 -22l41 -18q35 -16 54 -16q24 0 42.5 9 t60.5 43l26 -29q-46 -37 -73.5 -50.5t-60.5 -13.5q-32 0 -83 25l-23 11q-41 20 -70 20q-20 0 -36 -8.5t-50 -35.5l-9 -7z" />
<glyph unicode="&#x2260;" d="M82 202l10 42h146l71 103h-193l9 41h212l93 136h48l-94 -136h130l-10 -41h-148l-70 -103h194l-9 -42h-214l-100 -145h-47l99 145h-127z" />
<glyph unicode="&#x2264;" d="M32 0l10 42h361l-10 -42h-361zM96 280l10 45l403 195l-13 -54l-348 -165l274 -170l-10 -45z" />
<glyph unicode="&#x2265;" d="M57 0l9 42h361l-9 -42h-361zM83 86l13 54l348 165l-273 169l10 44l315 -192l-10 -45z" />
<glyph unicode="&#xe000;" horiz-adv-x="500" d="M0 0v500h500v-500h-500z" />
</font>
</defs>
</svg>
