<?xml version="1.0" standalone="no"?>
<!DOCTYPE svg PUBLIC "-//W3C//DTD SVG 1.1//EN" "http://www.w3.org/Graphics/SVG/1.1/DTD/svg11.dtd" >
<svg xmlns="http://www.w3.org/2000/svg">
<metadata>
Created by FontPrep 20130207 at Sun Nov 24 23:06:16 2013
 By Piermaria Cosina
Copyright (C) 2005 Emigre Inc.; Designed by Xavier Dupre
</metadata>
<defs>
<font id="02be1f342573e986f9d714b7dfd8d622" horiz-adv-x='1024' >
  <font-face 
    font-family="VistaSansAltBold"
    font-weight="700"
    font-stretch="normal"
    units-per-em="2048"
    panose-1="2 0 8 3 0 0 0 0 0 0"
    ascent="1638"
    descent="-410"
    x-height="1069"
    cap-height="1380"
    bbox="-70 -443.009 1929 1524"
    underline-thickness="40"
    underline-position="-252"
    unicode-range="U+0020-007E"
  />
<missing-glyph 
 />
    <glyph glyph-name=".notdef" 
 />
    <glyph glyph-name=".null" horiz-adv-x="0" 
 />
    <glyph glyph-name="nonmarkingreturn" horiz-adv-x="681" 
 />
    <glyph glyph-name="space" unicode=" " horiz-adv-x="417" 
 />
    <glyph glyph-name="exclam" unicode="!" horiz-adv-x="516" 
d="M410 133q0 -76 -43 -115q-43 -38 -109 -38t-111 38t-45 115q0 78 45 117q47 39 113 39t108 -40t42 -116zM401 1380q0 -337 -41 -960q-96 -16 -206 -19q-20 324 -32 527t-11 452h290z" />
    <glyph glyph-name="quotedbl" unicode="&#x22;" horiz-adv-x="860" 
d="M707 915q-75 -28 -183 -28l-47 573h281zM332 915q-75 -28 -182 -28l-48 573h281z" />
    <glyph glyph-name="numbersign" unicode="#" 
d="M446 842l-53 -314h166l53 314h-166zM977 1104q0 -102 -39 -262h-158l-51 -314h172q0 -106 -37 -258h-180l-45 -270h-170l45 270h-166l-43 -270h-170l45 270h-133q0 143 43 258h135l51 314h-153q8 179 39 262h160l47 276h170l-47 -276h165l45 276h170l-47 -276h152z" />
    <glyph glyph-name="dollar" unicode="$" 
d="M536 1030q-114 0 -146 -15t-32 -63t43 -70q43 -24 85 -35t88 -25t92 -30q46 -14 111 -53q64 -39 108 -100q41 -64 41 -149t-27 -144q-80 -175 -317 -225l4 -121h-248l4 115q-173 16 -246 47q2 12 14 103t37 147q70 -24 194 -39t187 -15q62 0 94 18t32 67q0 48 -41 72
q-39 23 -123 49t-134 40t-123 55q-147 91 -147 267q0 63 27 119q55 115 174 172q57 29 135 45l-4 118h248l-4 -106l104 -8q43 -6 96 -17l-2 -55q-4 -23 -7 -60q-6 -78 -22 -135q-181 31 -295 31z" />
    <glyph glyph-name="percent" unicode="%" horiz-adv-x="1673" 
d="M1395 370q0 108 -23 158q-18 56 -86 56t-92 -54t-23 -164q0 -112 25 -161q20 -51 87 -51t89 51q23 57 23 165zM1614 373q0 -199 -90 -295q-86 -98 -240 -98q-66 0 -133 20q-61 25 -107 70q-92 96 -92 298q0 201 95 296q87 94 237 94t240 -93t90 -292zM502 1014
q0 108 -23 157q-18 55 -86 55q-67 0 -91 -52q-24 -53 -24 -165t25 -161q20 -51 87 -51t89 51q23 58 23 166zM655 -25q-61 11 -79 19t-50 19q-31 11 -47 18l541 1370q75 0 190 -27zM721 1016q0 -199 -90 -295q-86 -98 -240 -98q-66 0 -133 20q-199 82 -199 369q0 200 95 295
q87 94 237 94t240 -93t90 -292z" />
    <glyph glyph-name="ampersand" unicode="&#x26;" horiz-adv-x="1435" 
d="M690 674q0 84 -31 125q-33 37 -105 37q-146 0 -144 -213h278q2 6 2 26v25zM408 440v-4q0 -96 55 -149q74 -62 199 -63q124 -1 190 22q147 37 197 207q27 81 27 209t-39 222q-76 186 -263 242q-92 31 -201 31q2 57 17 129q8 66 28 115q347 -1 537 -219q90 -104 131 -232
q47 -129 47 -298q0 -325 -184 -509q-181 -165 -451 -164t-409 125t-160 336h-119l2 92q10 78 13 91h108q59 411 439 409q92 0 165 -33q142 -65 182 -210t19 -349h-530z" />
    <glyph glyph-name="quotesingle" unicode="'" horiz-adv-x="485" 
d="M332 915q-75 -28 -182 -28l-48 573h281z" />
    <glyph glyph-name="parenleft" unicode="(" horiz-adv-x="624" 
d="M385 595q0 -278 57 -501q44 -223 152 -430q-90 -22 -236 -22q-254 394 -255 924t255 937q100 0 236 -22q-80 -145 -152 -408q-33 -154 -41 -239q-16 -109 -16 -239z" />
    <glyph glyph-name="parenright" unicode=")" horiz-adv-x="624" 
d="M266 1503q256 -397 256 -926q0 -528 -256 -935q-99 0 -235 22q104 183 149 410q20 78 45 237q27 277 0 488q-14 117 -41 252q-67 273 -153 430q93 22 235 22z" />
    <glyph glyph-name="asterisk" unicode="*" horiz-adv-x="937" 
d="M606 944l187 -190q-51 -51 -99 -90l-104 -80l-131 252l-125 -234q-49 23 -113 66q-57 33 -110 73l196 203l-258 47q18 126 64 254l256 -127l-37 264q136 19 262 19l-45 -285l242 119q50 -111 73 -173q22 -63 25 -71z" />
    <glyph glyph-name="plus" unicode="+" horiz-adv-x="1007" 
d="M604 461v-369h-198v369h-324v196h324v367h198v-367h322v-196h-322z" />
    <glyph glyph-name="comma" unicode="," horiz-adv-x="552" 
d="M403 231q9 -104 9 -110q0 -117 -64 -238q-72 -125 -176 -237l-242 53q141 170 169 230q28 59 40 116q8 66 8 115v71h256z" />
    <glyph glyph-name="period" unicode="." horiz-adv-x="552" 
d="M430 132q0 -79 -44 -116q-44 -36 -110 -36t-109 36q-44 36 -44 116q0 79 45 118t111 39t106 -39q45 -39 45 -118z" />
    <glyph glyph-name="slash" unicode="/" horiz-adv-x="798" 
d="M563 1401l109 -8q24 0 57 -9q20 -2 47 -10l-639 -1607q-55 10 -100 24q-57 12 -100 33z" />
    <glyph glyph-name="zero" unicode="0" 
d="M668 475q6 92 6 287t-24 269q-24 73 -58 97q-33 24 -80 25q-94 0 -129 -104q-16 -47 -27 -142q-6 -88 -6 -217t8 -222q15 -170 74 -218q33 -23 81 -23q94 0 128 105q16 49 27 143zM956 692q0 -716 -444 -712q-212 0 -317 143q-63 90 -93 221q-34 127 -34 337
q1 377 129 568q110 152 315 152q94 0 182 -33q82 -37 142 -117q120 -181 120 -559z" />
    <glyph glyph-name="one" unicode="1" 
d="M967 270q0 -150 -21 -270h-819v270h330v836l-297 -35q-25 148 -25 242l332 67h264v-1110h236z" />
    <glyph glyph-name="two" unicode="2" 
d="M406 1130q-139 0 -230 -47q-41 158 -47 263q116 53 305 55q98 0 189 -25q293 -94 291 -418q-1 -323 -388 -688h428q0 -86 -4 -131q0 -49 -12 -139h-803l-14 227q284 236 388 402q105 166 105 291q0 210 -208 210z" />
    <glyph glyph-name="three" unicode="3" 
d="M467 1401q90 0 160 -21q165 -36 225 -168q35 -62 35 -168t-60 -188q-61 -78 -155 -117v-14q113 -33 188 -115q70 -82 70 -203q0 -215 -160 -327q-64 -49 -156 -75q-156 -44 -356 -11q-94 16 -158 43q21 158 50 264q45 -25 126 -40t156 -15q191 0 193 168q0 170 -199 170
h-188v264h159q45 0 99 8q43 14 60 30q36 35 36 115q0 134 -180 134q-131 0 -242 -43q-25 107 -33 264q133 45 330 45z" />
    <glyph glyph-name="four" unicode="4" 
d="M950 571q0 -111 -22 -254h-99v-317h-272v317h-477v256q82 194 212 451t204 377q18 -2 56 -5q38 -2 76 -10t76 -19t46 -13l-402 -797h225v291h256v-277h121z" />
    <glyph glyph-name="five" unicode="5" 
d="M584 557q-55 39 -192 39t-185 -8q-37 0 -53 -4q13 440 63 796h678q0 -130 -21 -266h-432l-20 -262q205 0 344 -86q156 -105 156 -326q0 -196 -142 -334q-59 -53 -153 -94q-99 -32 -181 -32q-174 1 -309 51q21 138 49 258q100 -41 265 -41q184 0 184 179q0 87 -51 130z
" />
    <glyph glyph-name="six" unicode="6" 
d="M512 672q-154 0 -154 -226t146 -227q88 1 129 59t41 181t-45 168t-117 45zM385 1356q102 45 242 45t237 -29q-14 -164 -39 -260q-84 20 -180 22q-96 1 -137 -16q-141 -41 -150 -315h15q80 92 219 92q68 0 136 -24t110 -76q104 -108 104 -337t-118 -354
q-118 -126 -324 -125q-205 1 -311 144q-107 143 -107 493q0 579 303 740z" />
    <glyph glyph-name="seven" unicode="7" 
d="M111 1380h821v-252q-242 -578 -549 -1144q-45 4 -61 6t-98 12q-83 10 -113 27l530 1085h-518q-8 86 -8 135q-4 45 -4 131z" />
    <glyph glyph-name="eight" unicode="8" 
d="M666 401q0 161 -177 215q-65 -25 -101 -85t-36 -141t35 -128t123 -47t122 51t34 135zM651 1024q0 145 -143 145q-68 -1 -105 -37t-37 -105q1 -158 156 -212q63 27 96 87t33 122zM96 1009q0 191 113 289q109 102 303 102t304 -89q110 -90 110 -264q0 -95 -56 -175
t-145 -131q109 -66 164 -147q59 -78 59 -207q0 -201 -121 -303q-117 -104 -316 -104t-314 86q-123 101 -122 308q1 206 218 324q-197 120 -197 311z" />
    <glyph glyph-name="nine" unicode="9" 
d="M512 709q154 0 154 226t-146 226q-88 0 -129 -58t-41 -181t45 -168t117 -45zM382 246q93 0 134 16q91 25 127 154q18 57 23 162h-15q-80 -92 -230 -92t-235 100q-104 108 -104 336t118 354q118 125 323 125t312 -143t107 -494q0 -581 -303 -739q-102 -45 -221 -45
q-39 0 -62 2l-73 6l-68 8q-35 6 -55 12l6 69q8 95 33 191q90 -22 183 -22z" />
    <glyph glyph-name="colon" unicode=":" horiz-adv-x="552" 
d="M123 845q0 79 45 117q46 38 110 38t108 -38t44 -117t-45 -116q-41 -39 -109 -39t-108 39q-45 37 -45 116zM430 132q0 -79 -44 -116q-44 -36 -110 -36t-109 36q-44 36 -44 116q0 79 45 118t111 39t106 -39q45 -39 45 -118z" />
    <glyph glyph-name="semicolon" unicode=";" horiz-adv-x="552" 
d="M403 231q9 -104 9 -110q0 -117 -64 -238q-72 -125 -176 -237l-242 53q141 170 169 230q28 59 40 116q8 66 8 115v71h256zM418 845q0 -79 -45 -116q-41 -39 -109 -39t-108 39q-45 37 -45 117t45 117t109 37q65 0 109 -38t44 -117z" />
    <glyph glyph-name="less" unicode="&#x3c;" horiz-adv-x="888" 
d="M776 1024v-25l-414 -430l414 -454v-23h-262l-420 469l420 463h262z" />
    <glyph glyph-name="equal" unicode="=" horiz-adv-x="1009" 
d="M119 262v193h772v-193h-772zM119 649v193h772v-193h-772z" />
    <glyph glyph-name="greater" unicode="&#x3e;" horiz-adv-x="888" 
d="M113 92v25l413 430l-413 454v23h262l422 -471l-422 -461h-262z" />
    <glyph glyph-name="question" unicode="?" horiz-adv-x="827" 
d="M446 132q0 -79 -44 -116q-44 -36 -108 -36t-112 36q-45 37 -45 116t47 118q41 39 109 39t108 -39q45 -39 45 -118zM288 1401q122 -1 204 -23q169 -46 241 -194q35 -76 35 -172q0 -275 -358 -412v-180q-123 -20 -240 -27q-35 184 -35 344q166 39 262 107q95 68 95 154
t-46 116q-37 33 -159 33h-45l-109 -8q-30 -6 -45 -6q-20 130 -20 249q99 19 220 19z" />
    <glyph glyph-name="at" unicode="@" horiz-adv-x="1699" 
d="M807 -143q-356 0 -533 196q-172 197 -172 557q0 368 226 590q104 98 248 150t302 51q160 0 294 -47q278 -97 372 -344q53 -122 53 -262q0 -263 -88 -412q-47 -72 -108 -107q-59 -39 -148 -39q-200 0 -260 113h-10q-103 -115 -233 -115q-324 0 -324 422q0 226 102 350
t277 123q70 0 143 -20q62 20 122 20t112 -10v-620q0 -51 26 -71t70 -20q137 0 137 361q0 260 -147 383q-145 127 -414 127t-414 -164t-145 -457q0 -145 29 -245q79 -336 493 -336q46 0 139 13q94 13 152 34q27 -105 29 -176q-133 -45 -330 -45zM838 893q-90 0 -130 -58
q-40 -59 -40 -205t36 -198t119 -53q83 0 133 33v450q-12 6 -51 23q-45 8 -67 8z" />
    <glyph glyph-name="A" unicode="A" horiz-adv-x="1239" 
d="M627 1071h-21q0 -80 -14 -117l-100 -372h253l-102 372q-16 43 -16 117zM-31 176v72h88q37 0 49 13t25 54l334 1065h336q245 -775 407 -1366q-109 -24 -299 -24l-94 340h-391l-47 -178q-20 -86 -70 -132q-51 -40 -145 -40t-146 47q-47 47 -47 149z" />
    <glyph glyph-name="B" unicode="B" horiz-adv-x="1292" 
d="M1190 389q0 -109 -38 -187q-108 -223 -433 -220q-227 0 -473 28v1055q0 41 -12 54t-50 14h-102v84q0 184 201 184q141 0 215 -72q58 37 122 54q156 41 297 -5t195 -178q27 -61 27 -172q1 -110 -55 -190t-142 -115v-18q248 -66 248 -316zM877 414q1 90 -47 133t-130 43
h-159v-367q57 -4 82 -6h71q183 0 183 197zM846 1014q0 72 -43 110q-43 39 -107 39t-86 -4q-33 0 -69 -10v-340h151q77 0 107 39q47 38 47 166z" />
    <glyph glyph-name="C" unicode="C" horiz-adv-x="1185" 
d="M512 1044q-84 -100 -84 -347q0 -246 74 -353q77 -100 225 -98q121 0 213 38t121 58q18 -76 29 -129q12 -94 14 -141q-82 -49 -188 -71t-197 -21q-301 0 -461 180q-156 184 -156 532q0 178 45 320q51 135 127 221q160 168 424 168q33 0 103 -6q203 -17 274 -60
q-2 -35 -15 -129t-26 -141q-143 68 -319 70q-135 0 -203 -91z" />
    <glyph glyph-name="D" unicode="D" horiz-adv-x="1452" 
d="M283 1401q127 0 215 -72q119 72 305 72q252 0 393 -156q154 -175 154 -526q0 -180 -47 -313q-39 -127 -127 -232q-176 -192 -453 -192l-252 6q-20 2 -88 7t-137 15v1055q0 41 -12 54t-50 14h-102v84q0 184 201 184zM713 250q160 0 233 102q78 102 78 346t-82 342
q-65 91 -225 93q-52 0 -88 -3l-80 -12v-862q31 -2 80 -6h84z" />
    <glyph glyph-name="E" unicode="E" horiz-adv-x="1110" 
d="M983 1380q0 -122 -20 -266h-484v-278h352v-263h-352v-307h539q0 -107 -23 -266h-819v1380h807z" />
    <glyph glyph-name="F" unicode="F" horiz-adv-x="1079" 
d="M985 1380q0 -109 -20 -266h-486v-321h404v-265h-404v-528h-303v1380h809z" />
    <glyph glyph-name="G" unicode="G" horiz-adv-x="1308" 
d="M279 1233q168 168 425 168t433 -68q-7 -122 -43 -272q-68 35 -161 54q-202 41 -319 1q-186 -55 -186 -434q0 -436 277 -436q111 0 159 16v230h-172q-22 132 -22 260h491v-678q-71 -36 -199 -65q-129 -29 -260 -29q-295 0 -448 184q-152 186 -152 531q0 344 177 538z" />
    <glyph glyph-name="H" unicode="H" horiz-adv-x="1495" 
d="M1413 176q0 -196 -229 -196q-55 0 -94 16q-41 10 -78 47q-64 72 -66 215v320h-467v-578h-303v1380h303v-530h467v530h303v-1065q1 -41 13 -54t49 -13h102v-72z" />
    <glyph glyph-name="I" unicode="I" horiz-adv-x="655" 
d="M176 0v1380h303v-1380h-303z" />
    <glyph glyph-name="J" unicode="J" horiz-adv-x="755" 
d="M113 1204q0 197 229 197q55 0 96 -17q41 -12 74 -47q66 -70 68 -215v-923q0 -109 -23 -191q-19 -92 -73 -166q-112 -151 -351 -176q-46 127 -51 273q57 6 90 20q77 24 94 94q10 41 10 92v920q0 41 -12 54t-49 14h-102v71z" />
    <glyph glyph-name="K" unicode="K" horiz-adv-x="1316" 
d="M926 1393q105 0 159 -9q70 0 158 -18l-475 -588l330 -475q23 -37 45 -45q20 -10 57 -10h88v-92q0 -176 -192 -176q-93 0 -133 36q-49 34 -121 144l-258 397l-109 -131v-426h-299v1380h299v-563h14z" />
    <glyph glyph-name="L" unicode="L" horiz-adv-x="1036" 
d="M975 270q0 -141 -21 -270h-778v1380h303v-1110h496z" />
    <glyph glyph-name="M" unicode="M" horiz-adv-x="1841" 
d="M1358 879v77h-21l-20 -125q-2 -10 -8 -30l-230 -801h-286l-242 801q-2 6 -5 22q-3 15 -6 31t-5 36t-7 32l-2 34h-20v-32q0 -29 -2 -45v-48q-2 -12 -2 -30l-47 -559q-17 -215 -121 -250q-37 -12 -88 -12q-104 0 -156 46t-53 150v72h92q39 0 47 14q12 12 17 53l112 1065
h342l264 -866q27 -91 27 -166h20q6 92 25 168l250 864h348q82 -705 121 -1368q-106 -20 -291 -20l-51 809v30q-2 16 -2 48z" />
    <glyph glyph-name="N" unicode="N" horiz-adv-x="1499" 
d="M1051 1380h272v-1370q-10 0 -66 -8l-77 -6q-44 -6 -146 -6l-442 805q-44 84 -64 159l-20 -2q6 -68 8 -84l2 -86v-540q0 -144 -63 -207q-48 -55 -158 -55q-111 0 -163 46t-52 150v72h102q37 0 49 13t13 54v1051l160 14q44 6 155 6l414 -753q32 -59 65 -160l21 2
q-4 61 -8 92l-2 80v733z" />
    <glyph glyph-name="O" unicode="O" horiz-adv-x="1390" 
d="M965 699q0 124 -19 210q-27 160 -135 213q-121 43 -233 0q-55 -27 -82 -73q-68 -94 -68 -359q0 -111 14 -215q36 -171 133 -215q55 -22 122 -22q147 1 204 98q29 43 49 139q15 100 15 224zM1124 1235q164 -185 164 -544t-160 -536t-432 -175q-429 0 -551 378
q-43 132 -43 318q0 526 353 680q109 45 245 45t238 -41q109 -37 186 -125z" />
    <glyph glyph-name="P" unicode="P" horiz-adv-x="1310" 
d="M659 680q95 0 151 56t56 186t-50 182t-127 51q-77 0 -144 -14v-461h114zM283 1401q131 0 215 -72q72 47 136 59t140 13q255 0 359 -258q32 -86 32 -214t-39 -229q-44 -96 -108 -153t-154 -88q-94 -27 -178 -27h-141v-432h-299v1065q0 41 -12 54t-50 14h-102v84
q0 184 201 184z" />
    <glyph glyph-name="Q" unicode="Q" horiz-adv-x="1390" 
d="M965 697q0 235 -70 352q-33 49 -84 73q-121 43 -233 0q-49 -23 -84 -73q-66 -107 -66 -361q0 -109 14 -209q37 -175 133 -217q53 -24 121 -24q148 1 205 98q29 43 49 139q15 100 15 222zM102 682q0 348 160 533q160 186 437 186q427 0 548 -389q41 -131 41 -322
q0 -605 -444 -686q0 -86 45 -129t115 -43t168 25q253 63 368 63l86 -2q110 -18 173 -50q64 -32 130 -75l-117 -233q-92 55 -174 79t-231 1q-357 -70 -449 -70q-153 0 -270 106q-121 116 -121 318q-465 77 -465 688z" />
    <glyph glyph-name="R" unicode="R" horiz-adv-x="1347" 
d="M862 982q0 169 -178 169q-47 0 -72 -4q-35 0 -71 -10v-398h116q43 0 84 11q121 26 121 232zM1204 248h84v-92q0 -90 -42 -133t-136 -43q-31 0 -76 8q-41 14 -63 32q-53 34 -113 152l-178 340h-139v-512h-295v1065q0 41 -12 54t-50 14h-102v84q0 107 61 143q16 16 64 33
q49 8 78 8q139 0 213 -72q104 70 256 72q82 0 160 -27q154 -54 221 -207q33 -75 33 -199t-57 -226q-56 -102 -163 -140l162 -287q25 -41 42 -54t52 -13z" />
    <glyph glyph-name="S" unicode="S" horiz-adv-x="1103" 
d="M586 1147q-158 0 -158 -141q0 -53 46 -95t226 -128q179 -86 254 -205q41 -72 41 -176t-39 -184q-76 -157 -266 -212q-146 -43 -395 -14q-104 16 -186 51q15 104 59 260q147 -68 354 -70q86 0 125 37q37 40 37 102t-41 103q-82 70 -244 135q-76 37 -137 82
q-59 45 -106 119q-41 76 -41 178q0 197 151 305q138 107 379 107q173 0 293 -35q-11 -159 -35 -258q-56 15 -136 25q-79 10 -108 10q-27 4 -73 4z" />
    <glyph glyph-name="T" unicode="T" horiz-adv-x="1095" 
d="M168 965q-193 0 -193 206q0 102 58 156q63 53 157 53h857q0 -124 -23 -266h-295v-1114h-303v1114h-133q-39 0 -53 -12t-15 -49v-88h-57z" />
    <glyph glyph-name="U" unicode="U" horiz-adv-x="1462" 
d="M61 1204q0 197 230 197q55 0 94 -17q41 -10 78 -47q65 -73 65 -215v-594q0 -82 13 -131q8 -47 37 -84q32 -33 74 -44t110 -11q125 0 186 57q57 59 58 213v852h286v-809q0 -283 -126 -437t-408 -154q-119 0 -220 30q-313 91 -313 561v494q0 41 -12 54t-49 14h-103v71z" />
    <glyph glyph-name="V" unicode="V" horiz-adv-x="1239" 
d="M911 1393q98 0 146 -9q62 0 141 -18q-150 -597 -405 -1366h-342l-316 1065q-9 37 -29 52t-57 16h-78v92q0 176 197 176q105 0 147 -37q65 -34 97 -156l194 -745q14 -49 21 -115h20q0 31 6 58q2 29 13 57z" />
    <glyph glyph-name="W" unicode="W" horiz-adv-x="1964" 
d="M35 1133v92q0 176 196 176q105 0 158 -37q77 -42 92 -156l105 -649l14 -147h21q14 99 26 143l223 825h279l215 -827q12 -49 18 -87t9 -54h20q7 91 16 141l146 840q140 0 268 -27q-80 -530 -262 -1366h-322l-237 827q-15 49 -23 140h-20q-7 -97 -21 -142l-221 -825h-323
l-211 1065q-11 41 -27 54t-55 14h-84z" />
    <glyph glyph-name="X" unicode="X" horiz-adv-x="1337" 
d="M932 1393q101 0 158 -9q69 0 163 -18l-360 -649l383 -703q-165 -28 -350 -28l-221 430q-16 33 -23 53t-20 53h-19q-14 -47 -41 -104l-131 -268q-50 -102 -94 -134q-39 -36 -133 -36t-146 47q-47 47 -47 149v72h96q33 0 54 14q31 45 35 53l217 396l-359 655q110 18 146 18
l202 9l203 -400q25 -45 39 -94h18q12 41 39 100z" />
    <glyph glyph-name="Y" unicode="Y" horiz-adv-x="1161" 
d="M750 0h-304v494l-274 571q-14 33 -31 53q-18 14 -51 15h-84v92q0 176 197 176q35 0 76 -8q43 -14 63 -33q57 -38 102 -152l125 -299q18 -40 35 -118h21q18 70 39 122l190 480q134 0 287 -27q-143 -378 -391 -872v-494z" />
    <glyph glyph-name="Z" unicode="Z" horiz-adv-x="1220" 
d="M934 266q215 0 215 -192q0 -203 -193 -203h-57v66q0 37 -13 50t-55 13h-710l-17 225l592 889h-542q-17 149 -17 266h903l17 -225l-592 -889h469z" />
    <glyph glyph-name="bracketleft" unicode="[" horiz-adv-x="692" 
d="M164 -358v1863h467q0 -117 -19 -233h-188v-1397h188q18 -117 19 -233h-467z" />
    <glyph glyph-name="backslash" unicode="\" horiz-adv-x="798" 
d="M23 1374q116 27 215 27l626 -1577q-71 -33 -200 -57z" />
    <glyph glyph-name="bracketright" unicode="]" horiz-adv-x="692" 
d="M61 -358q0 117 19 233h188v1397h-188q-18 117 -19 233h467v-1863h-467z" />
    <glyph glyph-name="asciicircum" unicode="^" horiz-adv-x="1011" 
d="M920 748q-121 -17 -250 -17l-168 492l-162 -492q-94 0 -248 14q91 294 134 401q44 106 66 158t32 76h360q103 -217 236 -632z" />
    <glyph glyph-name="underscore" unicode="_" 
d="M926 -86q0 -91 -25 -199h-790v199h815z" />
    <glyph glyph-name="grave" unicode="`" 
d="M700 1188q-82 -13 -225 -17q-127 150 -184 326h303z" />
    <glyph glyph-name="a" unicode="a" horiz-adv-x="1198" 
d="M563 1090q80 0 172 -27q62 24 168 24l58 -2q16 -4 53 -8v-745q0 -40 12 -58t49 -18h123v-92q0 -184 -201 -184q-161 0 -215 151h-6q-131 -153 -287 -151q-391 0 -393 524q0 268 131 434q125 152 336 152zM608 850q-65 0 -105 -15t-65 -55q-47 -74 -47 -255
q0 -182 43 -240q32 -63 165 -63q77 0 136 34v555q-62 39 -127 39z" />
    <glyph glyph-name="b" unicode="b" horiz-adv-x="1189" 
d="M598 217q109 0 155 77t46 244t-45 248q-50 62 -146 62t-168 -64v-528q49 -39 158 -39zM705 1090q88 0 151 -29q72 -25 123 -88q115 -129 115 -398t-127 -436q-140 -161 -359 -159q-278 0 -444 131v1394q45 6 135 15q102 4 141 4v-547h15q101 113 250 113z" />
    <glyph glyph-name="c" unicode="c" horiz-adv-x="954" 
d="M606 -20q-240 0 -377 131q-133 137 -133 414t146 429q122 136 333 136q53 0 156 -9q92 -14 135 -30q-10 -68 -26 -129q-8 -53 -33 -136q-83 39 -199 39t-166 -62t-49 -234q0 -172 53 -226q41 -59 164 -59t215 49q43 -177 54 -258q-23 -12 -56 -23q-141 -32 -217 -32z" />
    <glyph glyph-name="d" unicode="d" horiz-adv-x="1210" 
d="M609 854q-66 0 -106 -15q-76 -29 -102 -159q-10 -68 -10 -152q0 -185 43 -243q16 -31 52 -47t118 -16t146 38v553q-75 41 -141 41zM96 528q0 274 127 418t322 144q84 0 205 -27v442q45 6 135 15q102 4 141 4v-1192q0 -40 12 -58t49 -18h123v-92q0 -184 -200 -184
q-115 0 -176 81q-23 25 -39 72h-9q-86 -98 -164 -126t-147 -27q-193 0 -286 137t-93 411z" />
    <glyph glyph-name="e" unicode="e" horiz-adv-x="1093" 
d="M713 664v28q0 98 -36 144t-114 47q-162 0 -162 -248h310q2 6 2 29zM991 628q0 -92 -8 -173h-584v-21q0 -111 47 -147q48 -47 170 -47q101 0 139 11q141 40 163 54q23 -63 32 -125q16 -55 27 -135q-57 -26 -160 -45q-103 -20 -192 -20q-257 0 -393 136t-136 412t133 418
q123 144 338 144q106 0 193 -33q82 -39 131 -99q100 -116 100 -330z" />
    <glyph glyph-name="f" unicode="f" horiz-adv-x="745" 
d="M647 1520q48 0 62 -7q0 -80 -4 -120q0 -55 -11 -123q-28 8 -100 8q-70 0 -92 -28t-23 -85v-96h228q0 -119 -17 -242h-211v-888q0 -175 -106 -281q-102 -102 -260 -100h-37l-41 4q-47 0 -62 6l2 121q3 14 5 39l4 45q2 20 4 39q63 -9 119 -9t73 29q23 23 23 84v911h-121
v242h121v74q0 176 106 280q101 101 260 101h37z" />
    <glyph glyph-name="g" unicode="g" horiz-adv-x="1091" 
d="M684 743q0 92 -41 121q-35 35 -109 35t-110 -37q-35 -37 -35 -122t37 -122q41 -34 110 -34q68 0 108 34t40 125zM346 -94q0 -60 43 -90t157 -31q114 0 173 31q57 26 57 106q0 48 -15 60t-63 12h-336q-16 -28 -16 -88zM381 303q0 -61 65 -61h273q166 0 231 -58
q86 -74 86 -235q0 -84 -28 -158q-33 -76 -93 -123q-125 -112 -360 -111t-356 91q-97 82 -97 223q0 63 26 105t69 81q-47 84 -66 142q14 72 48 155q33 83 69 123q-119 91 -119 251t101 261q101 100 292 101q33 0 101 -9q0 68 20 129q25 57 57 93q77 69 187 69q156 0 155 -147
v-92h-129q-100 0 -100 -103v-35q119 -94 119 -268q0 -82 -27 -152q-62 -128 -200 -165q-63 -20 -144 -20t-143 16q-37 -55 -37 -103z" />
    <glyph glyph-name="h" unicode="h" horiz-adv-x="1204" 
d="M627 848q-99 0 -187 -55v-793h-276v1505q45 6 135 15q102 4 141 4v-555h15q68 63 133 92t147 29q143 0 229 -82t85 -250v-758h-277v725q0 59 -22 88q-16 14 -45 27q-37 8 -78 8z" />
    <glyph glyph-name="i" unicode="i" horiz-adv-x="604" 
d="M164 0v1069h276v-1069h-276zM457 1346q0 -66 -40 -112t-116 -46t-115 47t-39 109t37 114q39 49 118 49t116 -49q39 -46 39 -112z" />
    <glyph glyph-name="j" unicode="j" horiz-adv-x="616" 
d="M162 1344q0 62 38 113q38 50 116 50t116 -49q39 -50 39 -114t-40 -110t-117 -46t-113 49q-39 45 -39 107zM455 6q0 -211 -111 -328q-97 -109 -289 -120q-40 106 -59 247q100 -1 141 49t41 138v1077h277v-1063z" />
    <glyph glyph-name="k" unicode="k" horiz-adv-x="1099" 
d="M440 0h-276v1505q45 6 135 15q102 4 141 4v-865h15q164 222 350 437q157 -20 272 -58l-336 -399q207 -358 346 -629l-137 -14q-43 -6 -157 -6l-228 440l-125 -147v-283z" />
    <glyph glyph-name="l" unicode="l" horiz-adv-x="604" 
d="M164 0v1505q45 6 135 15q102 4 141 4v-1524h-276z" />
    <glyph glyph-name="m" unicode="m" horiz-adv-x="1730" 
d="M727 1090q170 0 231 -136q78 82 148 109t148 27t132 -21q53 -16 101 -57q88 -96 88 -254v-758h-277v727q0 57 -24 89t-110 32t-156 -55v-793h-277v725q0 57 -21 90t-105 33t-165 -55v-793h-276v1059q91 16 276 16v-106h15q74 65 134 93t138 28z" />
    <glyph glyph-name="n" unicode="n" horiz-adv-x="1204" 
d="M772 0v725q0 61 -29 92t-123 31t-180 -55v-793h-276v1059q91 16 276 16v-106h15q69 69 129 92q61 24 151 29q134 0 219 -74q95 -95 95 -260v-756h-277z" />
    <glyph glyph-name="o" unicode="o" horiz-adv-x="1171" 
d="M780 531q0 174 -47 251q-49 74 -145 74t-146 -74q-47 -78 -47 -250t43 -245q42 -74 142 -74t149 74q51 70 51 244zM1075 540q0 -265 -141 -417q-132 -145 -356 -143q-224 1 -347 135q-135 141 -135 404q0 262 137 423q141 148 353 148q104 0 196 -31q293 -107 293 -519z
" />
    <glyph glyph-name="p" unicode="p" horiz-adv-x="1189" 
d="M727 1090q171 0 269 -132t98 -393q0 -141 -33 -260q-109 -328 -436 -325q-85 0 -185 26v-428h-276v1481q91 16 276 16v-98h15q102 113 272 113zM594 215q117 0 162 76q43 80 43 214q0 225 -49 286q-33 57 -143 57t-167 -39v-553q72 -41 154 -41z" />
    <glyph glyph-name="q" unicode="q" horiz-adv-x="1189" 
d="M600 850q-115 0 -162 -74t-47 -250q0 -182 45 -243q34 -62 145 -62t169 39v565q-84 25 -150 25zM580 1090q232 0 446 -78v-1434h-276v512h-15q-108 -112 -260 -110q-180 0 -279 128q-100 128 -100 404t126 428q126 150 358 150z" />
    <glyph glyph-name="r" unicode="r" horiz-adv-x="813" 
d="M639 803q-90 0 -199 -51v-752h-276v1059q91 16 276 16v-137h15q41 59 69 82q64 64 140 68q44 2 61 -3q17 0 37 -8q0 -113 -25 -286q-4 0 -34 6t-64 6z" />
    <glyph glyph-name="s" unicode="s" horiz-adv-x="944" 
d="M489 852q-98 0 -98 -86q0 -35 35 -57q39 -20 85 -33t116 -37q57 -16 114 -55q121 -90 121 -260q0 -90 -38 -157t-95 -108t-134 -60t-160 -19t-185 20q-98 27 -158 57q12 59 31 127q14 68 33 121q139 -74 323 -76q98 0 96 86q0 37 -34 56q-35 18 -111 42t-90 25
q-238 73 -238 295q0 92 37 160q78 129 246 176q206 45 436 -12q-8 -127 -37 -246l-65 16q-12 1 -67 11t-91 10q-25 4 -72 4z" />
    <glyph glyph-name="t" unicode="t" horiz-adv-x="841" 
d="M797 31q-128 -51 -234 -51q-188 0 -280 94q-88 94 -88 288v465h-121v242h121v221q172 41 276 45v-266h277l-3 -119q0 -48 -12 -123h-262v-481q0 -74 33 -93q62 -36 186 -9q41 8 70 22q25 -123 37 -235z" />
    <glyph glyph-name="u" unicode="u" horiz-adv-x="1208" 
d="M436 1077v-725q0 -63 34 -97t128 -34t170 39v801q122 16 276 16v-1077h-276v92h-14q-127 -114 -277 -112q-132 0 -223 73q-96 96 -94 262v746q122 16 276 16z" />
    <glyph glyph-name="v" unicode="v" horiz-adv-x="1044" 
d="M1014 1059q-133 -513 -346 -1059h-299q-217 551 -338 1059q94 16 278 16l191 -643q19 -47 24 -131h15q5 83 26 135l187 639l133 -2q86 -8 129 -14z" />
    <glyph glyph-name="w" unicode="w" horiz-adv-x="1644" 
d="M1186 326q0 39 6 69q0 25 8 70l103 610q128 0 245 -18q-83 -554 -231 -1057h-279l-190 633q-6 14 -14 61t-11 62h-14q-2 -23 -10 -68q-14 -49 -17 -57l-186 -631h-279q-133 434 -221 1059q98 16 271 16l102 -616q7 -34 16 -135h15q6 73 26 137l174 608h269l170 -604
q5 -9 13 -55q9 -46 19 -84h15z" />
    <glyph glyph-name="x" unicode="x" horiz-adv-x="1099" 
d="M770 1075l152 -2q100 -8 143 -14l-322 -514l326 -535q-153 -18 -324 -18l-167 311q-12 29 -19 41q-4 12 -16 55h-15q-8 -29 -18 -53l-18 -43l-166 -311q-49 0 -152 4q-98 8 -143 14l327 574l-313 475q59 6 164 14l160 2l159 -287q27 -48 39 -102h15q13 57 36 107z" />
    <glyph glyph-name="y" unicode="y" horiz-adv-x="1075" 
d="M210 -176q85 0 115 20t58 80l31 70q-148 324 -283 776q-47 174 -70 289q114 16 271 16l180 -641q19 -55 31 -125h14q2 10 10 55t21 70l188 641l133 -2q90 -8 135 -14l-329 -1000q-130 -401 -350 -477q-68 -24 -173 -24t-176 39q11 122 47 251q62 -24 147 -24z" />
    <glyph glyph-name="z" unicode="z" horiz-adv-x="1017" 
d="M119 1069h764l24 -229l-504 -598h486q13 -57 26 -242h-819l-24 229l503 598h-438q-6 41 -14 123q-4 82 -4 119z" />
    <glyph glyph-name="braceleft" unicode="{" horiz-adv-x="708" 
d="M627 -133q0 -121 -21 -236q-270 -1 -385 61t-115 195q0 89 92 241q14 22 64 100q52 77 52 111t-11 52q-4 17 -32 33q-41 22 -189 25v253q70 0 117 7q41 2 69 16t35 33q10 18 10 53t-21 67l-45 67q-62 93 -101 168q-40 76 -40 147q0 129 121 192t383 64q17 -80 17 -236
q-141 0 -199 -10q-31 -10 -35 -23q-10 -12 -10 -42t37 -84t61 -97q41 -62 70 -116t29 -101t-11 -76q-6 -35 -37 -59q-25 -29 -75 -49q-45 -23 -127 -39v-17q78 -16 125 -39q45 -16 84 -55t41 -127q0 -47 -31 -104t-77 -130t-68 -109q-22 -37 -21 -63q0 -26 7 -38
q15 -27 77 -31t160 -4z" />
    <glyph glyph-name="bar" unicode="|" horiz-adv-x="532" 
d="M164 -422v1921h205v-1921h-205z" />
    <glyph glyph-name="braceright" unicode="}" horiz-adv-x="708" 
d="M82 1282q0 116 20 236q270 0 385 -62t115 -194q0 -103 -134 -309l-40 -60q-33 -47 -33 -82t11 -53q14 -42 102 -53q61 -4 119 -5v-254q-207 0 -221 -55q-32 -57 30 -148t76 -113q90 -147 90 -241q0 -127 -121 -191t-383 -65q-16 90 -16 236q156 0 192 9t41 24
q10 12 11 41q0 29 -20 60t-44 67t-46 70t-54 96t-33 108q0 45 10 74q12 60 113 110q66 25 127 37v17q-57 12 -125 36q-43 23 -78 50q-47 60 -47 120t33 122q54 102 133 220q31 53 31 78t-7 41q-16 25 -77 29q-60 4 -160 4z" />
    <glyph glyph-name="asciitilde" unicode="~" horiz-adv-x="1017" 
d="M672 643q24 0 34 6q10 5 17 23q8 18 12 53t10 82q83 1 150 -19q68 -20 72 -22q-40 -317 -170 -360q-87 -40 -191 8q-70 37 -93 51t-103 59q-42 27 -64 27t-32 -6q-10 -5 -17 -23q-8 -18 -12 -40t-7 -51q-3 -30 -6 -44l-47 2q-23 4 -61 10q-38 7 -50 11t-32 9t-31 9
q31 218 92 301q57 74 166 76q47 1 91 -21t94 -50q51 -28 103 -60q51 -31 75 -31z" />
  </font>
</defs>
</svg>
