<?xml version="1.0" standalone="no"?>
<!DOCTYPE svg PUBLIC "-//W3C//DTD SVG 1.1//EN" "http://www.w3.org/Graphics/SVG/1.1/DTD/svg11.dtd" >
<svg xmlns="http://www.w3.org/2000/svg">
<metadata></metadata>
<defs>
<font id="vistasansaltregitaregular" horiz-adv-x="500" >
<font-face units-per-em="1000" ascent="800" descent="-200" />
<missing-glyph horiz-adv-x="204" />
<glyph horiz-adv-x="1000" />
<glyph horiz-adv-x="1000" />
<glyph unicode="&#xd;" />
<glyph unicode=" "  horiz-adv-x="204" />
<glyph unicode="&#x09;" horiz-adv-x="204" />
<glyph unicode="&#xa0;" horiz-adv-x="204" />
<glyph unicode="!" horiz-adv-x="245" d="M23 34q0 31 18 47.5t43 16.5q21 0 34 -12t13 -33q0 -32 -17.5 -48t-42.5 -16q-23 0 -35.5 11.5t-12.5 33.5zM68 185q14 118 32.5 242.5t40.5 246.5h94q-21 -121 -46.5 -244t-51.5 -238q-16 -3 -34 -5t-35 -2z" />
<glyph unicode="&#x22;" horiz-adv-x="350" d="M88 442l31 271h95l-65 -262q-27 -9 -61 -9zM243 442l30 271h96l-66 -262q-14 -5 -29.5 -7t-30.5 -2z" />
<glyph unicode="#" d="M2 166q5 20 12 41t16 39h86l64 186h-91q4 21 10.5 42t16.5 40h92l56 160h61l-55 -160h94l56 160h61l-56 -160h89q-3 -19 -10 -40.5t-15 -41.5h-92l-64 -186h95q-4 -19 -10.5 -39.5t-15.5 -40.5h-97l-57 -166h-61l56 166h-95l-56 -166h-61l57 166h-86zM177 246h95l64 186 h-95z" />
<glyph unicode="$" d="M26 81q4 22 11 44.5t15 36.5q35 -14 79 -21t86 -7q57 0 93 19t36 67q0 29 -19.5 46t-48.5 29.5t-63 23t-63 27t-48.5 42.5t-19.5 69q0 37 15 66t42 49.5t63.5 32.5t79.5 14l7 55h84l-11 -51q53 -2 102 -12q-2 -20 -7.5 -41.5t-11.5 -39.5q-14 3 -32 5.5t-37.5 5t-39 3.5 t-35.5 1q-68 0 -99 -18t-31 -59q0 -25 19.5 -40.5t48.5 -27t63 -22.5t63 -29t48.5 -46.5t19.5 -73.5q0 -74 -53.5 -121t-150.5 -50l-6 -58h-84l13 57q-30 1 -65 7t-63 17z" />
<glyph unicode="%" horiz-adv-x="807" d="M60 446q0 53 13.5 96.5t37.5 75t57.5 49t73.5 17.5q67 0 102.5 -35t35.5 -103q0 -51 -11.5 -95t-34.5 -76.5t-56.5 -51.5t-77.5 -19q-66 0 -103 35.5t-37 106.5zM134 443q0 -81 67 -81q45 0 67 34t33 97q3 15 4 28.5t1 25.5q0 37 -15 58t-50 21q-43 0 -66.5 -33 t-35.5 -97q-2 -14 -3.5 -28t-1.5 -25zM184 11l383 670q17 0 35 -3t32 -7l-390 -681q-31 6 -60 21zM432 131q0 53 13.5 96.5t38 75t58 49t73.5 17.5q66 0 102 -35t36 -103q0 -50 -11.5 -94t-34.5 -77t-57 -52t-78 -19q-66 0 -103 35.5t-37 106.5zM507 128q0 -80 66 -80 q45 0 67.5 33.5t33.5 96.5q2 15 3.5 28.5t1.5 25.5q0 37 -15.5 58t-50.5 21q-43 0 -66.5 -33t-34.5 -96q-3 -15 -4 -28.5t-1 -25.5z" />
<glyph unicode="&#x26;" horiz-adv-x="704" d="M12 233q2 15 4.5 32t7.5 31h53q12 56 34.5 96t53 65.5t67 37.5t75.5 12q80 0 123 -40t43 -116q0 -22 -5.5 -55t-13.5 -63h-297v-27q0 -67 35 -101.5t117 -34.5q57 0 104 18.5t81 57t52.5 98.5t18.5 143q0 60 -15 100.5t-43 66t-67.5 37.5t-88.5 13q2 16 9.5 40.5 t15.5 39.5q137 -2 206 -80t69 -212q0 -95 -24.5 -169.5t-69.5 -126.5t-109 -79t-142 -27q-114 0 -176.5 52.5t-62.5 165.5v9q0 5 1 16h-56zM171 296h211q5 15 7 32t2 28q0 45 -24.5 64t-65.5 19q-51 0 -83 -32.5t-47 -110.5z" />
<glyph unicode="'" horiz-adv-x="196" d="M88 442l30 271h96l-66 -262q-13 -5 -29 -7t-31 -2z" />
<glyph unicode="(" horiz-adv-x="273" d="M34 123q0 164 53 321.5t158 295.5q6 0 16.5 -1t22 -3t22.5 -4.5t19 -5.5q-50 -68 -87.5 -144.5t-62.5 -156.5t-37.5 -160t-12.5 -156q0 -73 11 -144t33 -129q-17 -5 -39.5 -8t-39.5 -3q-29 66 -42.5 143.5t-13.5 154.5z" />
<glyph unicode=")" horiz-adv-x="273" d="M-52 -161q50 68 87.5 144.5t62.5 156t37.5 160t12.5 155.5q0 73 -11.5 144t-32.5 130q16 5 39 8t40 3q28 -67 42 -144t14 -154q0 -164 -53 -322t-158 -295q-13 0 -38.5 4t-41.5 10z" />
<glyph unicode="*" horiz-adv-x="429" d="M52 505q5 21 13.5 44.5t19.5 43.5l135 -67l9 151q22 5 46.5 6t46.5 1l-46 -159l148 61q8 -19 14 -41.5t9 -45.5l-163 -29l83 -120q-16 -15 -35.5 -27.5t-44.5 -24.5l-53 141l-101 -134q-19 10 -38 22.5t-35 27.5l132 118z" />
<glyph unicode="+" horiz-adv-x="495" d="M35 239l12 68h171l35 193h70l-35 -193h171l-12 -68h-171l-34 -194h-70l34 194h-171z" />
<glyph unicode="," horiz-adv-x="222" d="M-91 -144q37 37 63 65t42.5 53t25.5 49.5t14 54.5l5 35h80q0 -10 -2 -27t-4 -27q-10 -58 -47 -112.5t-108 -119.5z" />
<glyph unicode="-" horiz-adv-x="250" d="M30 260l13 77h185l-14 -77h-184z" />
<glyph unicode="." horiz-adv-x="222" d="M26 34q0 31 17.5 47.5t42.5 16.5q22 0 34.5 -12t12.5 -33q0 -32 -17.5 -48t-42.5 -16q-22 0 -34.5 11.5t-12.5 33.5z" />
<glyph unicode="/" horiz-adv-x="374" d="M-79 -92l440 776q16 0 38.5 -4t36.5 -9l-447 -785q-19 4 -36.5 9t-31.5 13z" />
<glyph unicode="0" d="M36 210q0 61 13 138q17 96 42.5 160.5t58.5 103.5t73.5 55.5t85.5 16.5q39 0 71 -12.5t55 -38.5t35.5 -67.5t12.5 -100.5q0 -30 -3.5 -64.5t-10.5 -73.5q-16 -91 -40 -155t-56 -104.5t-73 -59t-91 -18.5q-37 0 -69 11.5t-55 37.5t-36 68t-13 103zM124 194q0 -67 24 -96 t69 -29q32 0 56.5 15t43 47.5t33.5 83t28 122.5q8 43 12 78.5t4 63.5q0 126 -93 126q-32 0 -56.5 -15t-43.5 -47t-34 -83t-27 -123q-8 -44 -12 -79.5t-4 -63.5z" />
<glyph unicode="1" d="M16 0l16 85h180l88 501l-169 -24q-3 18 -3 37q0 11 1 22t3 20l186 33h88l-104 -589h133q-3 -19 -9 -42.5t-14 -42.5h-396z" />
<glyph unicode="2" d="M9 0l8 76q98 74 164.5 133t106.5 109.5t57 93.5t17 84q0 52 -32 77t-84 25q-34 0 -66 -6.5t-55 -17.5q-4 11 -5.5 25t-1.5 31q0 8 0.5 15t1.5 15q33 13 70 18.5t79 5.5t77 -11.5t60.5 -33.5t39.5 -55t14 -75q0 -50 -16.5 -98.5t-52.5 -99t-94 -106.5t-141 -121h263 q-3 -20 -8 -41.5t-13 -42.5h-389z" />
<glyph unicode="3" d="M-2 17q8 51 25 87q56 -29 137 -29q68 0 110 34.5t42 104.5q0 52 -30.5 73.5t-81.5 21.5h-92l14 84h91q68 0 102.5 31.5t34.5 82.5q0 47 -28.5 70t-78.5 23q-32 0 -63 -4.5t-60 -15.5q-2 8 -2 15v16q0 15 1 29t3 26q35 11 69.5 14.5t74.5 3.5q37 0 69.5 -9t57 -28.5 t38.5 -48.5t14 -70q0 -70 -35.5 -112t-92.5 -59v-5q43 -17 67 -50.5t24 -87.5q0 -56 -21 -98t-57 -70t-83 -42t-98 -14q-37 0 -79.5 6.5t-71.5 20.5z" />
<glyph unicode="4" d="M32 160l17 87q35 55 74.5 115.5t78.5 119t76 111t65 91.5q17 -2 40.5 -6.5t37.5 -10.5l-288 -429h164l33 187h86l-33 -184h79q-4 -20 -9.5 -40.5t-12.5 -40.5h-71l-29 -160h-86l29 160h-251z" />
<glyph unicode="5" d="M25 15q10 46 28 86q23 -12 57 -19t66 -7q68 0 110.5 32t42.5 101q0 57 -37.5 83t-113.5 26q-28 0 -52.5 -1t-44.5 -3q9 44 20.5 91.5t23.5 95t25 92t25 82.5h318q-3 -19 -8.5 -41.5t-12.5 -42.5h-239l-51 -191q47 0 90 -9t76 -30t53 -56t20 -88q0 -54 -19 -96t-52.5 -71 t-80.5 -44t-104 -15q-31 0 -70 6.5t-70 18.5z" />
<glyph unicode="6" d="M52 204q0 24 2 51t6 57q14 102 41.5 172.5t67 115t89.5 64.5t109 20q27 0 60.5 -4t53.5 -11q0 -17 -4.5 -41.5t-10.5 -40.5q-17 6 -47 10t-56 4q-37 0 -69 -12t-58 -39.5t-45.5 -72.5t-32.5 -111h5q29 34 61.5 48.5t71.5 14.5q32 0 60 -10t48.5 -30.5t32 -52t11.5 -75.5 q0 -59 -14.5 -108.5t-42.5 -85.5t-68.5 -56.5t-93.5 -20.5q-41 0 -74 12t-56 37.5t-35 66.5t-12 98zM136 175q0 -53 25 -80.5t72 -27.5q62 0 94 51t32 139q0 52 -26 76t-70 24q-33 0 -57 -14.5t-39.5 -39.5t-23 -58t-7.5 -70z" />
<glyph unicode="7" d="M-2 10l398 580h-291q0 41 8 84h391l-11 -80q-41 -66 -92 -143.5t-105 -157t-108.5 -156.5t-103.5 -144q-21 2 -45 6t-41 11z" />
<glyph unicode="8" d="M36 155q0 69 36 117t111 81q-75 50 -75 135q0 48 15 84.5t42 61t65 37.5t84 13q75 0 121.5 -37.5t46.5 -106.5q0 -63 -34 -111t-103 -74q47 -26 70.5 -67t23.5 -89q0 -50 -16 -89t-45 -65.5t-70 -40.5t-92 -14q-39 0 -72 9.5t-57 30t-37.5 51.5t-13.5 74zM125 163 q0 -44 23.5 -71t74.5 -27q63 0 93.5 38t31.5 98q0 42 -23 72.5t-73 46.5q-64 -21 -95.5 -62t-31.5 -95zM195 492q0 -38 18 -65.5t63 -41.5q55 17 85.5 55t31.5 89q0 36 -23.5 58t-65.5 22q-57 0 -83 -33t-26 -84z" />
<glyph unicode="9" d="M39 5q0 17 4.5 41.5t10.5 40.5q17 -6 47 -10t56 -4q38 0 69.5 12t57.5 39.5t45.5 72.5t32.5 111h-5q-29 -34 -61.5 -48.5t-72.5 -14.5q-32 0 -59.5 10t-48 30.5t-32 52t-11.5 75.5q0 59 14.5 108.5t42.5 85.5t69 56.5t93 20.5q41 0 74 -12t56 -37.5t35 -66.5t12 -98 q0 -24 -2 -51t-6 -57q-13 -102 -41 -172.5t-67.5 -115t-89.5 -64.5t-109 -20q-27 0 -60.5 4t-53.5 11zM161 417q0 -52 26 -76t70 -24q33 0 57 14.5t39.5 39.5t23 58t7.5 70q0 53 -25 80.5t-72 27.5q-62 0 -94 -51t-32 -139z" />
<glyph unicode=":" horiz-adv-x="222" d="M26 34q0 31 18 47.5t43 16.5q21 0 33.5 -12t12.5 -33q0 -32 -17 -48t-42 -16q-23 0 -35.5 11.5t-12.5 33.5zM94 422q0 32 18 48t43 16q22 0 34.5 -12t12.5 -33q0 -31 -17.5 -47.5t-42.5 -16.5q-23 0 -35.5 12t-12.5 33z" />
<glyph unicode=";" horiz-adv-x="222" d="M-86 -144q37 37 63 65t42.5 53t25.5 49.5t13 54.5l5 35h80q0 -10 -2 -27t-4 -27q-10 -58 -46.5 -112.5t-108.5 -119.5zM96 422q0 32 18 48t43 16q21 0 33.5 -12t12.5 -33q0 -31 -17 -47.5t-42 -16.5q-23 0 -35.5 12t-12.5 33z" />
<glyph unicode="&#x3c;" horiz-adv-x="402" d="M46 280l242 220h90v-9l-238 -215l160 -224v-7h-87z" />
<glyph unicode="=" horiz-adv-x="491" d="M40 147l12 67h364l-12 -67h-364zM74 336l11 67h364l-12 -67h-363z" />
<glyph unicode="&#x3e;" horiz-adv-x="402" d="M22 44v9l238 215l-160 224v7h87l167 -235l-242 -220h-90z" />
<glyph unicode="?" horiz-adv-x="376" d="M26 33q0 32 17.5 48t43.5 16q21 0 33.5 -12t12.5 -33q0 -31 -17.5 -47t-42.5 -16q-22 0 -34.5 11.5t-12.5 32.5zM58 183q1 35 4.5 78.5t10.5 79.5q109 28 166.5 67t57.5 105q0 46 -30 67t-82 21q-26 0 -51.5 -2.5t-47.5 -7.5q-3 11 -5 24.5t-2 27.5q0 17 3 30q26 5 57 8 t63 3q39 0 73 -9.5t58.5 -29t39 -49t14.5 -69.5q0 -82 -54 -138t-179 -97l-18 -100q-19 -4 -39.5 -6t-38.5 -3z" />
<glyph unicode="@" horiz-adv-x="842" d="M58 231q0 113 31.5 197.5t88 141.5t133 85.5t166.5 28.5q71 0 129.5 -19.5t100.5 -57t65.5 -92.5t23.5 -125q0 -61 -14.5 -115.5t-41.5 -95.5t-65 -65.5t-86 -24.5q-37 0 -62.5 10.5t-36.5 37.5h-3q-30 -27 -57.5 -38t-58.5 -11q-57 0 -93 40t-36 120q0 30 6 63 q11 62 32 103t49 65.5t61.5 34.5t70.5 10q19 0 41.5 -3t39.5 -10q19 10 46 10q16 0 27 -4l-55 -313q-1 -5 -1.5 -11.5t-0.5 -10.5q0 -35 44 -35q24 0 47 17.5t41 50t29.5 78t11.5 100.5q0 56 -19.5 98.5t-54 71.5t-83 44t-107.5 15q-84 0 -148 -27.5t-106.5 -78.5t-64 -123 t-21.5 -161q0 -55 14 -99t42.5 -75t72 -48t101.5 -17q16 0 36 2t40.5 5t39 7t31.5 9q3 -18 3 -38q0 -8 -0.5 -15.5t-1.5 -12.5q-15 -5 -34 -8.5t-39.5 -6t-41.5 -4t-39 -1.5q-68 0 -122.5 21t-92.5 60t-58 94.5t-20 125.5zM321 249q0 -53 21.5 -74t57.5 -21q25 0 42.5 7 t40.5 21l46 264q-14 7 -36.5 10.5t-39.5 3.5q-47 0 -79 -31.5t-46 -106.5q-4 -20 -5.5 -38t-1.5 -35z" />
<glyph unicode="A" horiz-adv-x="583" d="M-54 41q0 4 1 12.5t4 25.5h30q23 0 32 7.5t20 27.5l290 560h104q29 -165 55 -334.5t48 -333.5q-23 -6 -46 -8t-47 -3l-30 205h-230l-56 -113q-14 -28 -27 -47t-26.5 -30t-29 -15.5t-34.5 -4.5q-32 0 -45 13.5t-13 37.5zM215 280h182l-37 251q-1 6 -1 9v10v12q0 8 1 17h-7 q-3 -20 -6 -31t-7 -17z" />
<glyph unicode="B" horiz-adv-x="603" d="M68 5l97 552q1 5 1.5 8.5t0.5 6.5q0 23 -30 23h-46l4 25q6 35 26 49.5t54 14.5q54 0 83 -31q27 16 59.5 23.5t64.5 7.5q81 0 131.5 -38t50.5 -120q0 -62 -33 -109t-92 -62v-7q45 -15 70 -48.5t25 -88.5q0 -58 -21.5 -100t-58.5 -68.5t-86 -39t-103 -12.5q-38 0 -91 3.5 t-106 10.5zM175 75q29 -3 55 -4.5t45 -1.5q72 0 115 34t43 108q0 47 -25.5 72t-79.5 25h-112zM228 381h109q57 0 93.5 33.5t36.5 99.5q0 45 -25 69.5t-79 24.5q-21 0 -47.5 -4t-49.5 -10z" />
<glyph unicode="C" horiz-adv-x="575" d="M63 241q0 39 5 77t13 76q32 149 116 219.5t208 70.5q22 0 46.5 -2t48.5 -6.5t44.5 -10.5t35.5 -14q-5 -20 -13 -43.5t-16 -45.5q-30 17 -74 26t-84 9q-85 0 -137 -53t-75 -177q-6 -32 -10.5 -64t-4.5 -64q0 -87 38 -124.5t116 -37.5q42 0 85 9.5t78 28.5q4 -23 5.5 -46 t2.5 -47q-19 -8 -43 -14t-48 -10t-47 -6t-41 -2q-121 0 -185 61t-64 190z" />
<glyph unicode="D" horiz-adv-x="697" d="M68 5l97 552q1 5 1.5 8.5t0.5 6.5q0 23 -30 23h-46l4 25q6 35 26 49.5t54 14.5q28 0 48.5 -8.5t34.5 -22.5q66 31 144 31q54 0 100.5 -15t80.5 -47.5t53.5 -82.5t19.5 -120q0 -104 -27 -184t-75 -134t-114 -82t-145 -28q-24 0 -53 1t-59 2.5t-60 4t-55 6.5zM179 83 q24 -3 60.5 -5t63.5 -2q115 0 182 87t68 257q0 54 -15 89t-39 55t-55 27.5t-64 7.5q-30 0 -58.5 -4t-54.5 -12z" />
<glyph unicode="E" horiz-adv-x="543" d="M51 0l119 674h375q-3 -21 -8.5 -43.5t-12.5 -42.5h-272l-34 -194h205l-15 -85h-205l-39 -223h294q-6 -42 -22 -86h-385z" />
<glyph unicode="F" horiz-adv-x="515" d="M51 0l119 674h379q-6 -42 -21 -86h-276l-36 -210h226l-15 -86h-226l-52 -292h-98z" />
<glyph unicode="G" horiz-adv-x="640" d="M63 244q0 24 2 51.5t7 56.5q16 92 47 155.5t75.5 102.5t100.5 56.5t122 17.5q44 0 96 -7.5t92 -24.5q-5 -22 -12 -45.5t-17 -43.5q-15 8 -35.5 14t-43 10.5t-44.5 7t-41 2.5q-47 0 -85 -10.5t-67.5 -39t-50.5 -78.5t-34 -130q-5 -26 -7 -53t-2 -47q0 -46 11 -77.5t32 -50 t51.5 -26.5t69.5 -8q22 0 50 4.5t51 12.5l28 167h-123q-1 8 -1 12v11q0 17 1.5 32.5t5.5 29.5h229l-56 -318q-39 -17 -92.5 -27.5t-103.5 -10.5q-69 0 -117.5 17.5t-79.5 50.5t-45 80t-14 106z" />
<glyph unicode="H" horiz-adv-x="687" d="M51 0l119 674h98l-49 -276h293l49 276h98l-99 -555q-1 -3 -1 -8v-6q0 -26 32 -26h45l-4 -23q-6 -35 -26.5 -50.5t-55.5 -15.5q-42 0 -67 22.5t-25 65.5q0 17 3 35l36 198h-293l-55 -311h-98z" />
<glyph unicode="I" horiz-adv-x="296" d="M51 0l119 674h98l-119 -674h-98z" />
<glyph unicode="J" horiz-adv-x="316" d="M-45 -110q0 11 1 22t3 22q58 0 84.5 27t36.5 86l89 510q2 10 2 15q0 23 -30 23h-46l4 25q6 36 29 50t59 14t61 -17t25 -59q0 -8 -1 -19t-3 -20l-89 -509q-9 -51 -24.5 -90.5t-41 -67.5t-63 -43.5t-90.5 -16.5q-2 10 -4 23t-2 25z" />
<glyph unicode="K" horiz-adv-x="616" d="M51 0l119 674h97l-57 -320h5l324 325q10 0 24 -0.5t29.5 -2t29.5 -3.5t24 -5l-280 -272l133 -284q10 -20 19.5 -26.5t29.5 -6.5h39l-5 -28q-5 -31 -21.5 -46t-49.5 -15q-35 0 -57 15t-40 56l-118 265l-110 -105l-38 -221h-97z" />
<glyph unicode="L" horiz-adv-x="476" d="M51 0l119 674h98l-104 -587h272q-9 -43 -24 -87h-361z" />
<glyph unicode="M" horiz-adv-x="857" d="M-17 41q0 4 1 12.5t4 25.5h39q20 0 29 8t15 28l155 559h111l71 -486q2 -12 2 -29v-48h8q7 29 13 47t12 31l237 485h113q-11 -170 -24.5 -338.5t-32.5 -335.5h-92l47 477q2 16 3.5 29.5t5.5 36.5h-7q-6 -24 -11 -39.5t-10 -26.5l-236 -477h-91l-69 477q-2 8 -2 24v42h-7 q-3 -30 -5 -43.5t-4 -22.5l-102 -382q-15 -57 -40 -81t-67 -24q-66 0 -66 51z" />
<glyph unicode="N" horiz-adv-x="700" d="M-8 41q0 14 5 37h39q20 0 28.5 7.5t12.5 27.5l98 554q23 5 51.5 7t49.5 2l187 -455q7 -16 12.5 -36t8.5 -35l7 1q0 24 2 44t5 37l78 442h90l-118 -671q-19 -4 -45 -6t-46 -2l-197 484q-5 11 -9.5 29l-8.5 34l-7 -1q0 -19 -1.5 -40.5t-3.5 -32.5l-63 -360 q-10 -57 -33.5 -87.5t-74.5 -30.5q-35 0 -51 13.5t-16 37.5z" />
<glyph unicode="O" horiz-adv-x="668" d="M63 245q0 29 4.5 67t12.5 77q32 153 112 224t201 71q112 0 173 -64.5t61 -194.5q0 -15 -1.5 -34.5t-4.5 -41t-7 -43.5t-9 -41q-34 -143 -112.5 -209t-194.5 -66q-111 0 -173 64t-62 191zM166 231q0 -81 35 -118.5t106 -37.5q41 0 72.5 11t55.5 36.5t41 67.5t30 103 q8 36 13 73t5 74q0 86 -37 122.5t-105 36.5q-41 0 -72.5 -11.5t-55.5 -38.5t-41.5 -70.5t-30.5 -107.5q-8 -35 -12 -70t-4 -70z" />
<glyph unicode="P" horiz-adv-x="585" d="M67 0l99 557q1 5 1 8v7q0 23 -30 23h-46l4 25q6 35 26 49.5t54 14.5q53 0 84 -31q29 17 61.5 24t64.5 7q37 0 70 -9.5t58.5 -31t40.5 -56t15 -85.5q0 -64 -22 -112.5t-59 -80t-86 -47.5t-104 -16h-90l-44 -246h-97zM222 326h76q36 0 67.5 9.5t55 30t37 52.5t13.5 77 q0 30 -8.5 50.5t-23.5 33t-35.5 18t-43.5 5.5t-47.5 -4t-43.5 -10z" />
<glyph unicode="Q" horiz-adv-x="668" d="M63 245q0 23 2 51t7 54q28 173 110.5 253.5t210.5 80.5q112 0 173 -65.5t61 -194.5q0 -23 -2.5 -47.5t-7.5 -51.5q-50 -319 -293 -331q-2 -8 -3 -19t-1 -18q0 -38 22 -52.5t67 -14.5q25 0 58 6.5t68.5 14.5t70.5 14.5t65 6.5q22 0 41.5 -2t40 -8t43 -17.5t50.5 -31.5 l-45 -75q-43 28 -73.5 38t-65.5 10q-25 0 -59.5 -6.5t-71.5 -14t-72.5 -14t-61.5 -6.5q-38 0 -68.5 7.5t-52 25t-33 45t-11.5 67.5q0 8 1 21t3 27q-79 16 -126 76t-47 171zM166 231q0 -81 34 -118.5t106 -37.5q45 0 78 13t57.5 42.5t41.5 78t30 120.5q6 32 8.5 60t2.5 51 q0 87 -37.5 123t-104.5 36q-41 0 -73.5 -12t-57.5 -41t-43 -78t-31 -123q-6 -32 -8.5 -61t-2.5 -53z" />
<glyph unicode="R" horiz-adv-x="612" d="M67 0l99 557q1 5 1 8v7q0 23 -30 23h-46l4 25q6 36 27 50t53 14q25 0 47 -8t37 -23q30 17 62 24t61 7q40 0 73.5 -10.5t58 -32t38.5 -54.5t14 -79q0 -80 -41 -136.5t-120 -73.5l71 -183q8 -21 18 -28.5t30 -7.5h38l-5 -28q-5 -31 -19.5 -46t-47.5 -15q-35 0 -57.5 16 t-38.5 58l-79 211h-103l-49 -275h-96zM225 352h80q76 0 119.5 35.5t43.5 114.5q0 55 -28.5 78t-81.5 23q-9 0 -21 -1t-25 -3.5t-24.5 -5t-20.5 -5.5z" />
<glyph unicode="S" horiz-adv-x="519" d="M27 22q11 50 29 86q38 -17 80 -25.5t85 -8.5q69 0 100.5 29.5t31.5 78.5q0 35 -18.5 58.5t-46 42t-60 35.5t-60 39t-46 52t-18.5 75q0 50 19.5 87.5t53.5 62.5t80.5 37.5t100.5 12.5q32 0 72.5 -4.5t71.5 -12.5q-6 -46 -23 -87q-15 5 -34 8.5t-38.5 6t-38.5 4t-35 1.5 q-36 0 -61 -7.5t-40 -21t-21.5 -32.5t-6.5 -42q0 -31 18.5 -52t46.5 -39t60 -35t60 -40.5t46.5 -56t18.5 -80.5q0 -46 -18 -83.5t-51 -64.5t-78.5 -41.5t-100.5 -14.5q-21 0 -44.5 2t-47.5 5.5t-46.5 9.5t-40.5 15z" />
<glyph unicode="T" horiz-adv-x="501" d="M48 572q0 51 31.5 76.5t82.5 25.5h397q-8 -44 -25 -86h-168l-104 -588h-98l104 588h-98q-21 0 -30 -7.5t-12 -26.5l-6 -39h-19q-28 0 -41.5 15.5t-13.5 41.5z" />
<glyph unicode="U" horiz-adv-x="681" d="M78 595l3 23q7 36 31 51t59 15q37 0 61 -18t24 -60q0 -8 -1 -18.5t-3 -19.5l-52 -296q-4 -20 -6.5 -43t-2.5 -36q0 -57 29.5 -85.5t98.5 -28.5q38 0 66 9t48.5 29.5t33.5 53.5t22 80l75 423h92l-72 -405q-12 -66 -30.5 -118t-49.5 -87.5t-77.5 -54.5t-113.5 -19 q-50 0 -90.5 10.5t-69 34t-44 60.5t-15.5 91q0 18 2.5 45t7.5 53l48 271q1 5 1.5 9.5t0.5 7.5q0 23 -29 23h-47z" />
<glyph unicode="V" horiz-adv-x="600" d="M52 595l4 23q6 36 27 51t56 15q75 0 85 -83l55 -442q2 -11 2.5 -25.5t0.5 -29.5h7q4 15 8.5 29.5t9.5 25.5l247 519q19 0 47.5 -2.5t45.5 -6.5q-77 -172 -159 -339t-170 -330h-109l-81 569q-2 13 -8 19.5t-21 6.5h-47z" />
<glyph unicode="W" horiz-adv-x="922" d="M61 595l4 23q6 36 27 51t56 15q37 0 59.5 -20t24.5 -62l18 -410q1 -15 1 -37v-33h7q5 23 9 39.5t10 30.5l221 482h89l48 -483q2 -14 2 -33v-36h8q6 41 17 69l192 487q19 0 44.5 -2.5t42.5 -6.5q-59 -165 -128 -335.5t-140 -333.5h-104l-50 473q-2 11 -2 28v44h-7 q-6 -29 -11 -45t-10 -28l-214 -472h-107l-32 568q-1 27 -29 27h-46z" />
<glyph unicode="X" horiz-adv-x="617" d="M-8 41q0 4 1 14t4 24h27q21 0 31 7t24 25l187 237l-140 321q26 4 55 6t52 2l97 -231q5 -11 7 -20.5t4 -19.5h6q10 21 26 42l169 229q11 0 25 -0.5t29 -1.5t29.5 -2.5t24.5 -3.5l-249 -320l142 -344q-26 -5 -52.5 -7.5t-51.5 -2.5l-100 248q-8 19 -14 45h-6 q-6 -12 -12.5 -23t-14.5 -22l-129 -168q-18 -24 -31.5 -40.5t-26 -26t-25.5 -14t-30 -4.5q-32 0 -45 13.5t-13 37.5z" />
<glyph unicode="Y" horiz-adv-x="571" d="M61 595l4 23q6 36 25.5 51t54.5 15q38 0 57 -21.5t31 -62.5l63 -205q6 -22 11 -52h6q6 14 12.5 27t15.5 27l183 280q21 0 49 -2t48 -6q-35 -57 -68.5 -109.5t-67.5 -103t-69.5 -100.5t-73.5 -103l-44 -253h-98l44 252l-108 319q-4 11 -9 17.5t-20 6.5h-46z" />
<glyph unicode="Z" horiz-adv-x="555" d="M3 0l6 76l423 512h-313q1 23 3 45t6 41h435l-6 -75l-424 -513h274q41 0 62.5 -17.5t21.5 -51.5q0 -42 -22 -63t-58 -21h-18l5 27q1 5 1.5 10.5t0.5 7.5q0 11 -6 16.5t-21 5.5h-370z" />
<glyph unicode="[" horiz-adv-x="346" d="M21 -175l161 910h198q-5 -38 -19 -79h-105l-133 -752h102q1 -5 1 -11v-13q0 -31 -7 -55h-198z" />
<glyph unicode="\" horiz-adv-x="374" d="M80 671q17 5 38.5 9t37.5 4l171 -776q-34 -15 -73 -22z" />
<glyph unicode="]" horiz-adv-x="346" d="M-39 -175q2 18 6.5 38.5t12.5 40.5h105l133 752h-103q-1 5 -1 11v13q0 14 1.5 28t6.5 27h197l-161 -910h-197z" />
<glyph unicode="^" horiz-adv-x="492" d="M79 363q18 36 42.5 78.5t49.5 85.5t49.5 81.5t42.5 65.5h109q8 -26 18 -64.5t20.5 -81.5t19.5 -86t16 -78q-18 -4 -39 -5.5t-41 -1.5l-56 260l-150 -260q-17 0 -40.5 1.5t-40.5 4.5z" />
<glyph unicode="_" d="M-6 -139l12 69h398q-3 -17 -8.5 -35t-12.5 -34h-389z" />
<glyph unicode="`" d="M179 731h90l46 -152q-15 -4 -33 -5.5t-35 -1.5q-25 36 -43 78t-25 81z" />
<glyph unicode="a" horiz-adv-x="578" d="M54 182q0 31 3 56.5t9 53.5q27 124 92 182t160 58q23 0 51 -4t52 -11q12 6 27.5 9t30.5 3q18 0 33 -3l-72 -410q-1 -4 -1 -8v-5q0 -24 27 -24h57l-4 -28q-5 -32 -23 -46.5t-50 -14.5q-30 0 -54.5 11.5t-37.5 46.5h-4q-34 -34 -67 -46t-68 -12q-34 0 -63.5 12t-51.5 36 t-34 60t-12 84zM148 187q0 -62 26.5 -89.5t73.5 -27.5q50 0 101 35l58 332q-22 7 -48 11t-44 4q-57 0 -96.5 -36.5t-57.5 -125.5q-5 -27 -9 -52.5t-4 -50.5z" />
<glyph unicode="b" horiz-adv-x="572" d="M56 47l122 690q19 3 45 5t46 2l-46 -263h5q32 27 63.5 39t66.5 12q34 0 63.5 -11.5t51 -35.5t34 -60t12.5 -85q0 -17 -1.5 -40.5t-4.5 -43.5q-20 -134 -87 -200t-176 -66q-54 0 -105.5 14t-88.5 43zM155 94q8 -6 20.5 -10.5t26 -7.5t27.5 -4.5t26 -1.5q30 0 56 9.5 t46.5 31t35.5 56.5t23 86q2 9 3.5 20.5t2.5 23.5t2 22.5t1 17.5q0 64 -29 89.5t-73 25.5q-61 0 -112 -39z" />
<glyph unicode="c" horiz-adv-x="474" d="M54 197q0 34 6 73q12 76 38 126.5t61 80.5t76.5 42.5t84.5 12.5q35 0 72 -5.5t63 -15.5q-5 -23 -11.5 -44.5t-16.5 -41.5q-23 11 -54.5 16t-61.5 5q-64 0 -102.5 -43t-52.5 -137q-6 -34 -6 -68q0 -68 30 -95t89 -27q29 0 58.5 6.5t54.5 20.5q5 -19 7 -41t3 -43 q-14 -8 -31.5 -13.5t-36 -9t-36 -5t-32.5 -1.5q-99 0 -150.5 53t-51.5 154z" />
<glyph unicode="d" horiz-adv-x="589" d="M54 182q0 59 12 114q12 61 35.5 105.5t56.5 73.5t74 43t87 14q28 0 59.5 -5t54.5 -13l40 223q18 3 44.5 5t46.5 2l-111 -628q-1 -4 -1 -8v-5q0 -11 6 -17.5t21 -6.5h58l-5 -28q-7 -37 -26.5 -49t-46.5 -12q-14 0 -28 2.5t-26 9t-21.5 18t-15.5 30.5h-4q-37 -35 -72 -47.5 t-77 -12.5q-74 0 -117.5 49.5t-43.5 142.5zM148 184q0 -62 28.5 -88t71.5 -26q32 0 59 8.5t55 28.5l57 327q-19 8 -48 13t-55 5q-58 0 -97.5 -37t-56.5 -122q-6 -27 -10 -54t-4 -55z" />
<glyph unicode="e" horiz-adv-x="523" d="M54 197q0 33 6 72q11 73 34.5 123t55.5 81t72 45t85 14q83 0 127.5 -43.5t44.5 -121.5q0 -22 -5.5 -55.5t-14.5 -66.5h-308q-2 -15 -3.5 -29t-1.5 -25q0 -62 28.5 -89t92.5 -27q35 0 73 9.5t63 23.5q5 -19 8 -41.5t3 -42.5q-16 -8 -35.5 -14.5t-40.5 -11t-42 -6.5t-40 -2 q-100 0 -151 53t-51 154zM163 307h219q5 16 7.5 35t2.5 30q0 46 -25 68t-67 22q-52 0 -86.5 -37t-50.5 -118z" />
<glyph unicode="f" horiz-adv-x="347" d="M-88 -212q2 20 5.5 40.5t10.5 40.5q11 -2 24 -3t24 -1q34 0 51.5 19t24.5 57l88 503h-63l14 78h63l11 60q9 47 26.5 78.5t41.5 50t52.5 26t58.5 7.5q12 0 27.5 -1t23.5 -3q-2 -20 -6 -40.5t-10 -40.5q-11 2 -24 3t-24 1q-34 0 -51.5 -18.5t-24.5 -56.5l-12 -66h116 q-7 -39 -20 -78h-109l-88 -498q-8 -46 -25.5 -77t-41 -50t-52.5 -27t-60 -8q-13 0 -28 1t-23 3z" />
<glyph unicode="g" horiz-adv-x="573" d="M12 -177q3 20 10.5 45t15.5 39q18 -9 40.5 -16t46 -11.5t46.5 -7t42 -2.5q32 0 54 7.5t37 22.5t23.5 38t13.5 54l11 59h-5q-28 -24 -61 -37.5t-71 -13.5q-73 0 -117 48.5t-44 142.5q0 27 3 53t10 56q14 62 38.5 106t57.5 72t73.5 41t87.5 13q44 0 97 -10t98 -31l-89 -505 q-8 -46 -24 -83t-42.5 -63.5t-65.5 -41t-94 -14.5q-45 0 -97 9t-95 30zM148 191q0 -57 27 -84t75 -27q31 0 59 8.5t54 28.5l56 316q-20 9 -47 14t-52 5q-27 0 -51.5 -7t-45.5 -25t-37 -49t-25 -79q-5 -29 -9 -53.5t-4 -47.5z" />
<glyph unicode="h" horiz-adv-x="604" d="M49 0l130 737q18 3 44 5t46 2l-47 -268h5q38 32 72.5 44t79.5 12q29 0 54 -7t43.5 -21.5t29 -37.5t10.5 -56q0 -9 -1 -20t-3 -19l-44 -252q-1 -5 -1 -10v-6q0 -24 27 -24h58l-5 -28q-6 -35 -24 -48t-49 -13q-51 0 -75 24t-24 67q0 20 4 39l43 249q2 10 2 20 q0 27 -17.5 44.5t-64.5 17.5q-38 0 -68.5 -10t-63.5 -33l-72 -408h-89z" />
<glyph unicode="i" horiz-adv-x="295" d="M67 81q0 20 4 39l70 402h90l-71 -404q-1 -4 -1 -9v-6q0 -24 27 -24h57l-4 -28q-6 -35 -23.5 -48t-49.5 -13q-51 0 -75 24t-24 67zM157 657q0 29 17.5 47.5t44.5 18.5q24 0 35.5 -13.5t11.5 -32.5q0 -30 -17 -48t-45 -18q-23 0 -35 13.5t-12 32.5z" />
<glyph unicode="j" horiz-adv-x="286" d="M-68 -134q54 3 79.5 29.5t33.5 75.5l98 551h90l-97 -548q-16 -88 -63.5 -136.5t-132.5 -53.5q-4 17 -6 40t-2 42zM159 657q0 29 17 47.5t45 18.5q23 0 34.5 -13.5t11.5 -32.5q0 -30 -17 -48t-45 -18q-23 0 -34.5 13.5t-11.5 32.5z" />
<glyph unicode="k" horiz-adv-x="531" d="M49 0l130 737q19 3 44.5 5t45.5 2l-79 -453h5l247 239q24 -2 49.5 -6.5t42.5 -10.5l-213 -201l90 -205q8 -17 17.5 -22.5t31.5 -5.5h39l-5 -28q-6 -35 -23 -48t-47 -13q-35 0 -55 16.5t-34 51.5l-81 190l-86 -82l-30 -166h-89z" />
<glyph unicode="l" horiz-adv-x="295" d="M66 81q0 20 4 39l109 617q18 3 44 5t46 2l-110 -625q-1 -5 -1 -10v-6q0 -24 27 -24h58l-5 -28q-6 -35 -24 -48t-49 -13q-51 0 -75 24t-24 67z" />
<glyph unicode="m" horiz-adv-x="867" d="M49 0l91 518q19 3 44.5 4.5t45.5 1.5l-8 -48h5q41 35 75.5 45.5t72.5 10.5t67 -15.5t40 -53.5q46 41 86 55t82 14q27 0 50.5 -6.5t41 -21t28 -37.5t10.5 -55q0 -10 -1 -21t-3 -20l-45 -252q-1 -5 -1 -10v-6q0 -24 27 -24h58l-5 -28q-6 -35 -24 -48t-49 -13q-51 0 -75 24 t-24 67q0 20 4 39l43 249q1 5 1.5 10t0.5 10q0 29 -17 45.5t-55 16.5q-35 0 -62.5 -11t-56.5 -32l-72 -408h-90l65 369q1 5 2 11.5t1 11.5q0 28 -17 43.5t-53 15.5q-62 0 -122 -43l-72 -408h-89z" />
<glyph unicode="n" horiz-adv-x="602" d="M49 0l91 518q19 3 44.5 4.5t45.5 1.5l-8 -48h5q20 17 39 28t38 17t37.5 8.5t37.5 2.5q27 0 51 -6.5t43 -21t30 -37.5t11 -57q0 -9 -1 -20t-3 -19l-44 -252q-1 -5 -1 -10v-6q0 -24 27 -24h58l-5 -28q-6 -35 -24 -48t-49 -13q-51 0 -75 24t-24 67q0 20 4 39l43 249 q1 5 1.5 10t0.5 10q0 62 -80 62q-38 0 -69 -10.5t-63 -32.5l-72 -408h-89z" />
<glyph unicode="o" horiz-adv-x="568" d="M54 193q0 19 1 37.5t5 40.5q23 134 90 197.5t166 63.5q43 0 79.5 -11.5t63 -36.5t41.5 -64t15 -93q0 -17 -1 -36t-5 -40q-24 -135 -92 -198t-165 -63q-45 0 -81.5 12.5t-62.5 37.5t-40 63t-14 90zM149 188q0 -66 29.5 -93t77.5 -27q31 0 56 9.5t44.5 31.5t34 59t23.5 91 q6 41 6 69q0 69 -30 97.5t-79 28.5q-28 0 -52 -8.5t-43.5 -30.5t-34.5 -58.5t-25 -93.5q-7 -41 -7 -75z" />
<glyph unicode="p" horiz-adv-x="572" d="M12 -206l128 724q19 3 44.5 4.5t45.5 1.5l-7 -43h5q33 28 64 39.5t66 11.5q75 0 118 -50.5t43 -141.5q0 -23 -1.5 -42.5t-4.5 -41.5q-20 -135 -88 -200.5t-173 -65.5q-25 0 -56.5 5t-56.5 15l-38 -216h-89zM154 91q20 -11 49 -16t52 -5q63 0 103.5 41.5t57.5 141.5 q3 17 6 41t3 43q0 58 -26.5 86.5t-75.5 28.5q-28 0 -56.5 -9t-55.5 -30z" />
<glyph unicode="q" horiz-adv-x="576" d="M54 182q0 65 16 129q54 221 257 221q42 0 95.5 -10.5t97.5 -30.5l-124 -697h-89l44 247h-5q-57 -51 -130 -51q-74 0 -118 49t-44 143zM149 185q0 -115 100 -115q64 0 113 36l58 327q-22 9 -50.5 14t-48.5 5q-26 0 -49.5 -6.5t-43.5 -23.5t-36 -45.5t-27 -72.5 q-7 -26 -11.5 -59.5t-4.5 -59.5z" />
<glyph unicode="r" horiz-adv-x="379" d="M49 0l91 518q19 3 44.5 4.5t45.5 1.5l-11 -62h5q21 24 39.5 37.5t35.5 21t31.5 9.5t26.5 2q9 0 21 -1t20 -4q-4 -23 -9 -46.5t-13 -46.5q-19 6 -47 6q-26 0 -57.5 -10t-65.5 -41l-68 -389h-89z" />
<glyph unicode="s" horiz-adv-x="446" d="M15 24q5 20 12.5 43t15.5 37q27 -15 66 -23.5t74 -8.5q96 0 96 72q0 24 -15 39.5t-37.5 28t-49 24.5t-49 29t-37.5 42t-15 62q0 35 14 65t41 52t66.5 34t89.5 12q25 0 59.5 -3.5t63.5 -11.5q-2 -18 -7 -40.5t-12 -42.5q-26 9 -61 14t-67 5q-43 0 -68.5 -15t-25.5 -57 q0 -22 15 -37t37.5 -27.5t49 -25t49 -30t37.5 -43t15 -64.5t-15 -69.5t-42.5 -51.5t-65.5 -32t-84 -11q-38 0 -80 8.5t-70 25.5z" />
<glyph unicode="t" horiz-adv-x="388" d="M78 444l13 78h63l20 112q20 7 46.5 11t46.5 5l-23 -128h131q-5 -40 -19 -78h-126l-52 -293q-1 -7 -1.5 -14t-0.5 -13q0 -28 14 -39.5t46 -11.5q18 0 40 4.5t37 11.5q3 -18 3 -39q0 -11 -0.5 -21.5t-1.5 -21.5q-22 -9 -51.5 -13t-47.5 -4q-68 0 -99 31t-31 88 q0 11 1.5 23.5t3.5 26.5l50 285h-62z" />
<glyph unicode="u" horiz-adv-x="595" d="M68 114q0 9 1 19t3 19l64 367q20 2 45.5 4t45.5 2l-65 -370q-1 -5 -1.5 -10t-0.5 -10q0 -31 19 -47.5t63 -16.5q67 0 127 38l71 410q19 2 45 4t47 2l-72 -406q-1 -5 -1 -10v-6q0 -24 27 -24h58l-5 -28q-6 -35 -24 -48t-49 -13q-43 0 -66.5 17t-30.5 49h-5 q-37 -34 -73.5 -50t-86.5 -16q-26 0 -50.5 7t-43.5 22t-30.5 38.5t-11.5 56.5z" />
<glyph unicode="v" horiz-adv-x="522" d="M20 443l5 28q6 33 24 47t50 14q25 0 41 -6.5t26 -18.5t15 -29t8 -38l43 -286q2 -11 3 -26t1 -35h5q5 19 11 34t14 29l185 368q20 0 45 -1t42 -5q-61 -135 -128 -261.5t-141 -256.5h-99l-72 415q-3 16 -8.5 22t-21.5 6h-48z" />
<glyph unicode="w" horiz-adv-x="798" d="M27 443l4 28q5 33 24.5 47t51.5 14q50 0 68 -25t19 -67l12 -265q1 -15 1 -29v-46h5q13 43 26 71l171 351h86l49 -351q2 -11 3 -29.5t2 -41.5h5q5 21 10.5 39t11.5 33l139 352q16 0 41 -1t42 -5q-47 -133 -100.5 -260t-116.5 -258h-91l-51 344q-2 9 -2.5 19.5t-0.5 27.5 v29h-5q-5 -20 -11.5 -38.5t-13.5 -32.5l-175 -349h-94l-30 414q-2 15 -8.5 22t-22.5 7h-49z" />
<glyph unicode="x" horiz-adv-x="516" d="M-16 4l217 275l-119 239q25 4 50.5 5.5t49.5 1.5l72 -160q8 -19 11 -48h5q11 30 25 49l122 159q23 0 52 -1.5t50 -5.5l-206 -253l77 -158q8 -17 16.5 -22.5t27.5 -5.5h44l-5 -28q-5 -33 -21 -47t-44 -14q-35 0 -57 15.5t-41 57.5l-50 112q-4 8 -6 20t-3 23h-5 q-7 -15 -13 -25t-13 -19l-136 -178q-22 0 -52 2t-48 6z" />
<glyph unicode="y" horiz-adv-x="521" d="M-50 -197q5 22 12 43.5t15 38.5q14 -8 34.5 -11t41.5 -3q27 0 50 13t46 53l37 61l-77 417q-3 16 -8.5 22t-20.5 6h-51l5 28q6 33 24.5 47t51.5 14q25 0 41 -6.5t26 -18.5t15 -29t8 -38l42 -284q2 -14 3 -29.5t1 -31.5h5q5 17 11.5 32.5t13.5 29.5l185 368q18 0 45 -1.5 t45 -5.5l-268 -517q-34 -65 -63.5 -107t-58 -66.5t-58.5 -34t-65 -9.5q-18 0 -42.5 4t-45.5 15z" />
<glyph unicode="z" horiz-adv-x="475" d="M2 0l3 77l337 367h-189q-35 0 -54.5 12t-19.5 44q0 31 19 49.5t64 18.5l-3 -17q-1 -5 -1.5 -8.5t-0.5 -6.5q0 -14 18 -14h284l-4 -74l-340 -370h272q0 -20 -1.5 -40t-5.5 -38h-378z" />
<glyph unicode="{" horiz-adv-x="332" d="M-5 -57q0 36 23.5 70.5t51.5 66t51.5 59.5t23.5 50q0 27 -22 38.5t-85 11.5l14 85q38 0 63 4.5t40 12.5t21.5 19.5t6.5 26.5q0 24 -11 50t-24.5 53t-24.5 55t-11 56q0 74 59 104.5t177 34.5q4 -19 5 -41t1 -39q-41 -1 -70 -4t-47 -9.5t-26.5 -18t-8.5 -29.5 q0 -19 11 -44.5t23.5 -53.5t23.5 -56t11 -54q0 -41 -27.5 -68t-93.5 -39v-5q49 -11 68 -32.5t19 -53.5q0 -30 -23 -62.5t-50.5 -64t-50.5 -60.5t-23 -54q0 -14 5.5 -23.5t19.5 -15.5t39 -9t64 -4q-2 -17 -7 -40t-12 -40q-58 3 -97 12t-63 24t-34 36.5t-10 50.5z" />
<glyph unicode="|" horiz-adv-x="260" d="M11 -206l165 938h72l-165 -938h-72z" />
<glyph unicode="}" horiz-adv-x="332" d="M-25 -100q41 1 70 4t47 9.5t26.5 18t8.5 29.5q0 19 -11 44.5t-23.5 53.5t-23.5 56.5t-11 53.5q0 41 28 68t93 39l1 5q-50 11 -69 32.5t-19 53.5q0 30 23 62.5t50.5 64t50.5 60.5t23 54q0 14 -5 23.5t-19.5 15.5t-39 9t-63.5 4q2 17 7 40t12 40q58 -3 97 -12t62.5 -24 t33.5 -36.5t10 -50.5q0 -36 -23.5 -70.5t-51.5 -66t-51.5 -59.5t-23.5 -50q0 -27 22.5 -38.5t85.5 -11.5l-15 -85q-75 0 -102.5 -17t-27.5 -46q0 -24 11 -50t24.5 -53t24.5 -55t11 -56q0 -74 -59.5 -104.5t-177.5 -34.5q-4 19 -5 41t-1 39z" />
<glyph unicode="~" horiz-adv-x="492" d="M14 205q17 48 33.5 78.5t34 48.5t35.5 25t39 7q25 0 50.5 -14.5t49 -31.5t45 -31.5t38.5 -14.5q20 0 34.5 20t30.5 72q8 0 18.5 -1t21 -3.5t20 -5t14.5 -5.5q-16 -47 -32.5 -77.5t-33.5 -48.5t-35.5 -25t-39.5 -7q-26 0 -51.5 14.5t-49.5 31.5t-45 31.5t-38 14.5 q-21 0 -34.5 -20t-30.5 -73q-7 0 -16.5 1t-20 3t-20.5 5t-17 6z" />
<glyph unicode="&#xa2;" d="M58 276q0 15 1 31.5t4 33.5q11 69 35.5 117t59 79t76 46.5t86.5 18.5l9 72h84l-17 -72q27 -2 51.5 -7t42.5 -13q-4 -20 -11.5 -42t-16.5 -42q-24 11 -57.5 16t-61.5 5q-31 0 -60.5 -7.5t-54 -26.5t-42.5 -51.5t-27 -82.5q-7 -35 -7 -66q0 -37 10 -62.5t28.5 -41.5 t44.5 -22.5t57 -6.5q29 0 64 7.5t60 19.5q4 -17 6 -41.5t2 -43.5q-11 -6 -26.5 -10.5t-32 -7.5t-33 -5t-29.5 -2l-9 -69h-84l16 71q-81 13 -124.5 64t-43.5 141z" />
<glyph unicode="&#xa3;" d="M27 0l14 74q57 15 84 54t27 95q0 23 -4.5 48t-12.5 53h-84l12 66h55q-3 20 -4.5 35.5t-1.5 33.5q0 53 17.5 94.5t49 70.5t76 44.5t98.5 15.5q38 0 75.5 -3t66.5 -11q-2 -19 -7 -42.5t-12 -42.5q-12 4 -28.5 7t-35 5.5t-37 3.5t-34.5 1q-67 0 -102 -34.5t-35 -103.5 q0 -19 1.5 -36.5t6.5 -37.5h226q-2 -16 -6.5 -33.5t-11.5 -32.5h-189q6 -26 10.5 -50.5t4.5 -46.5q0 -97 -76 -145h267q-3 -20 -8 -41t-13 -41h-389z" />
<glyph unicode="&#xa5;" d="M54 231l12 67h119q-30 90 -53 180.5t-46 190.5q23 5 49.5 7t46.5 2l67 -286q3 -13 5.5 -30t4.5 -32h7q6 16 14 33t15 31l167 284q21 0 47.5 -2t47.5 -7q-30 -52 -58 -99.5t-56 -92.5t-56.5 -89t-60.5 -90h121q-2 -15 -7 -32.5t-13 -34.5h-135l-41 -231h-96l40 231h-141z " />
<glyph unicode="&#xa8;" d="M107 628q0 31 17.5 47t41.5 16q21 0 33 -12t12 -32q0 -32 -17 -48t-41 -16q-46 0 -46 45zM287 628q0 31 18 47t42 16q21 0 33 -12t12 -32q0 -32 -17.5 -48t-40.5 -16q-47 0 -47 45z" />
<glyph unicode="&#xa9;" horiz-adv-x="725" d="M65 276q0 80 25 148.5t70.5 118.5t109 79t140.5 29q57 0 104 -17.5t81 -50.5t53 -80t19 -106q0 -83 -26 -152t-72 -118.5t-109.5 -77t-139.5 -27.5q-58 0 -105 18t-80.5 51t-51.5 80t-18 105zM105 276q0 -48 14.5 -88.5t42.5 -69t68 -44.5t92 -16q68 0 123.5 25.5 t95.5 70.5t62 107t22 135q0 50 -15.5 90t-44 68.5t-68.5 43.5t-90 15q-68 0 -123.5 -25.5t-95.5 -71t-61.5 -107t-21.5 -133.5zM203 288q0 12 1.5 25.5t3.5 27.5q9 51 28 87t45.5 58t58.5 32t68 10q26 0 55.5 -5t43.5 -13q-2 -12 -6.5 -30t-9.5 -31q-19 10 -42.5 14.5 t-47.5 4.5q-46 0 -77 -28.5t-45 -106.5q-2 -14 -3.5 -25.5t-1.5 -22.5q0 -47 22 -67.5t64 -20.5q23 0 48.5 5.5t45.5 16.5q2 -11 4 -25.5t2 -27.5q0 -2 -0.5 -4t-0.5 -4q-23 -11 -52.5 -15.5t-55.5 -4.5q-70 0 -109 39t-39 111z" />
<glyph unicode="&#xaa;" horiz-adv-x="380" d="M57 419q0 58 35 81.5t92 26.5l79 3l12 69q-11 6 -30.5 9.5t-38.5 3.5q-20 0 -42 -3.5t-36 -8.5q-2 8 -3 16.5t-1 17.5q0 17 3 29q17 5 39.5 8t46.5 3q35 0 72.5 -8.5t62.5 -24.5l-39 -218q-1 -5 -1 -9q0 -15 18 -15h26l-4 -21q-5 -23 -17.5 -33t-32.5 -10q-19 0 -33 8.5 t-19 29.5h-3q-24 -20 -47.5 -29t-49.5 -9q-41 0 -65 20t-24 64zM125 425q0 -20 10.5 -28t32.5 -8q18 0 38 5.5t37 17.5l13 72l-72 -3q-59 -1 -59 -56z" />
<glyph unicode="&#xab;" horiz-adv-x="481" d="M25 267l176 216l73 -14l-160 -207l86 -206l-73 -13zM235 267l175 216l73 -14l-159 -207l85 -206l-73 -13z" />
<glyph unicode="&#xac;" horiz-adv-x="498" d="M31 291l13 74h420l-40 -225q-19 -4 -38 -5.5t-36 -1.5l28 158h-347z" />
<glyph unicode="&#xad;" horiz-adv-x="250" d="M30 260l13 77h185l-14 -77h-184z" />
<glyph unicode="&#xae;" horiz-adv-x="725" d="M65 276q0 80 25 148.5t70.5 118.5t109 79t140.5 29q57 0 104.5 -17.5t81.5 -50.5t53 -80t19 -106q0 -82 -26 -151t-72 -119t-109.5 -77.5t-139.5 -27.5q-58 0 -105.5 18t-81 51t-51.5 80t-18 105zM105 277q0 -48 14.5 -88.5t42.5 -69t68.5 -44.5t92.5 -16q67 0 123 25 t96 70t62 107t22 135q0 50 -15.5 90t-44.5 68.5t-69 44t-90 15.5q-68 0 -123.5 -25.5t-95.5 -71t-61.5 -107t-21.5 -133.5zM213 144l67 375q33 4 59 5.5t52 1.5q48 0 80.5 -22.5t32.5 -75.5q0 -47 -27 -76t-65 -37q13 -14 25.5 -35.5t20.5 -49.5l26 -82q-16 -3 -33 -4 t-33 -2l-17 59q-11 35 -22 57t-22 35h-55l-26 -149h-63zM311 345h44q37 0 60.5 18.5t23.5 59.5q0 27 -16 38.5t-43 11.5h-23t-24 -2z" />
<glyph unicode="&#xb1;" horiz-adv-x="458" d="M23 45l13 67h325l-12 -67h-326zM70 309l11 64h129l23 127h66l-23 -127h131l-11 -64h-131l-23 -130h-66l23 130h-129z" />
<glyph unicode="&#xb4;" d="M155 578q24 38 47.5 76.5t47.5 76.5h97q-20 -39 -52 -81.5t-69 -77.5q-17 0 -37 1.5t-34 4.5z" />
<glyph unicode="&#xb8;" d="M159 -187q0 19 3 34q14 -5 32 -6.5t29 -1.5q29 0 51 10t22 37q0 23 -14 31t-40 8q-9 0 -20.5 -0.5t-21.5 -2.5q3 12 8 25t10 23h51q50 0 74.5 -21t24.5 -59q0 -56 -39.5 -81.5t-105.5 -25.5q-13 0 -31 2t-32 5q-1 5 -1 11v12z" />
<glyph unicode="&#xba;" horiz-adv-x="380" d="M70 466q0 11 1 21.5t3 22.5q13 87 59 125.5t112 38.5q58 0 96.5 -31t38.5 -100q0 -11 -0.5 -21.5t-2.5 -22.5q-7 -45 -22.5 -76t-38 -50.5t-50.5 -28.5t-61 -9q-61 0 -98 32.5t-37 98.5zM143 466q0 -39 17.5 -56t47.5 -17q38 0 62 23.5t34 85.5q3 24 3 41q0 41 -18 57 t-48 16q-17 0 -31.5 -5t-26.5 -17t-21 -33t-15 -54q-4 -20 -4 -41z" />
<glyph unicode="&#xbb;" horiz-adv-x="481" d="M-2 57l159 207l-85 206l73 13l101 -224l-175 -216zM207 57l160 207l-85 206l73 13l101 -224l-176 -216z" />
<glyph unicode="&#xc0;" horiz-adv-x="583" d="M-54 41q0 4 1 12.5t4 25.5h30q23 0 32 7.5t20 27.5l290 560h104q29 -165 55 -334.5t48 -333.5q-23 -6 -46 -8t-47 -3l-30 205h-230l-56 -113q-14 -28 -27 -47t-26.5 -30t-29 -15.5t-34.5 -4.5q-32 0 -45 13.5t-13 37.5zM215 280h182l-37 251q-1 6 -1 9v10v12q0 8 1 17h-7 q-3 -20 -6 -31t-7 -17zM270 815h95l50 -103q-19 -3 -38 -4.5t-39 -2.5q-29 30 -44.5 55t-23.5 55z" />
<glyph unicode="&#xc8;" horiz-adv-x="543" d="M51 0l119 674h375q-3 -21 -8.5 -43.5t-12.5 -42.5h-272l-34 -194h205l-15 -85h-205l-39 -223h294q-6 -42 -22 -86h-385zM245 815h95l50 -103q-19 -3 -38 -4.5t-39 -2.5q-29 30 -44.5 55t-23.5 55z" />
<glyph unicode="&#xc9;" horiz-adv-x="543" d="M51 0l119 674h375q-3 -21 -8.5 -43.5t-12.5 -42.5h-272l-34 -194h205l-15 -85h-205l-39 -223h294q-6 -42 -22 -86h-385zM275 712l82 103h101q-19 -30 -41.5 -55t-60.5 -55q-20 1 -41.5 2.5t-39.5 4.5z" />
<glyph unicode="&#xcc;" horiz-adv-x="296" d="M51 0l119 674h98l-119 -674h-98zM121 815h95l50 -103q-19 -3 -38 -4.5t-39 -2.5q-29 30 -44.5 55t-23.5 55z" />
<glyph unicode="&#xd2;" horiz-adv-x="668" d="M63 245q0 29 4.5 67t12.5 77q32 153 112 224t201 71q112 0 173 -64.5t61 -194.5q0 -15 -1.5 -34.5t-4.5 -41t-7 -43.5t-9 -41q-34 -143 -112.5 -209t-194.5 -66q-111 0 -173 64t-62 191zM166 231q0 -81 35 -118.5t106 -37.5q41 0 72.5 11t55.5 36.5t41 67.5t30 103 q8 36 13 73t5 74q0 86 -37 122.5t-105 36.5q-41 0 -72.5 -11.5t-55.5 -38.5t-41.5 -70.5t-30.5 -107.5q-8 -35 -12 -70t-4 -70zM298 815h95l50 -103q-19 -3 -38 -4.5t-39 -2.5q-29 30 -44.5 55t-23.5 55z" />
<glyph unicode="&#xd3;" horiz-adv-x="668" d="M63 245q0 29 4.5 67t12.5 77q32 153 112 224t201 71q112 0 173 -64.5t61 -194.5q0 -15 -1.5 -34.5t-4.5 -41t-7 -43.5t-9 -41q-34 -143 -112.5 -209t-194.5 -66q-111 0 -173 64t-62 191zM166 231q0 -81 35 -118.5t106 -37.5q41 0 72.5 11t55.5 36.5t41 67.5t30 103 q8 36 13 73t5 74q0 86 -37 122.5t-105 36.5q-41 0 -72.5 -11.5t-55.5 -38.5t-41.5 -70.5t-30.5 -107.5q-8 -35 -12 -70t-4 -70zM344 712l82 103h101q-19 -30 -41.5 -55t-60.5 -55q-20 1 -41.5 2.5t-39.5 4.5z" />
<glyph unicode="&#xd9;" horiz-adv-x="681" d="M78 595l3 23q7 36 31 51t59 15q37 0 61 -18t24 -60q0 -8 -1 -18.5t-3 -19.5l-52 -296q-4 -20 -6.5 -43t-2.5 -36q0 -57 29.5 -85.5t98.5 -28.5q38 0 66 9t48.5 29.5t33.5 53.5t22 80l75 423h92l-72 -405q-12 -66 -30.5 -118t-49.5 -87.5t-77.5 -54.5t-113.5 -19 q-50 0 -90.5 10.5t-69 34t-44 60.5t-15.5 91q0 18 2.5 45t7.5 53l48 271q1 5 1.5 9.5t0.5 7.5q0 23 -29 23h-47zM314 815h95l50 -103q-19 -3 -38 -4.5t-39 -2.5q-29 30 -44.5 55t-23.5 55z" />
<glyph unicode="&#xe0;" horiz-adv-x="578" d="M54 182q0 31 3 56.5t9 53.5q27 124 92 182t160 58q23 0 51 -4t52 -11q12 6 27.5 9t30.5 3q18 0 33 -3l-72 -410q-1 -4 -1 -8v-5q0 -24 27 -24h57l-4 -28q-5 -32 -23 -46.5t-50 -14.5q-30 0 -54.5 11.5t-37.5 46.5h-4q-34 -34 -67 -46t-68 -12q-34 0 -63.5 12t-51.5 36 t-34 60t-12 84zM148 187q0 -62 26.5 -89.5t73.5 -27.5q50 0 101 35l58 332q-22 7 -48 11t-44 4q-57 0 -96.5 -36.5t-57.5 -125.5q-5 -27 -9 -52.5t-4 -50.5zM245 731h90l46 -152q-15 -4 -33 -5.5t-35 -1.5q-25 36 -43 78t-25 81z" />
<glyph unicode="&#xe8;" horiz-adv-x="523" d="M54 197q0 33 6 72q11 73 34.5 123t55.5 81t72 45t85 14q83 0 127.5 -43.5t44.5 -121.5q0 -22 -5.5 -55.5t-14.5 -66.5h-308q-2 -15 -3.5 -29t-1.5 -25q0 -62 28.5 -89t92.5 -27q35 0 73 9.5t63 23.5q5 -19 8 -41.5t3 -42.5q-16 -8 -35.5 -14.5t-40.5 -11t-42 -6.5t-40 -2 q-100 0 -151 53t-51 154zM163 307h219q5 16 7.5 35t2.5 30q0 46 -25 68t-67 22q-52 0 -86.5 -37t-50.5 -118zM225 731h90l46 -152q-15 -4 -33 -5.5t-35 -1.5q-25 36 -43 78t-25 81z" />
<glyph unicode="&#xe9;" horiz-adv-x="523" d="M54 197q0 33 6 72q11 73 34.5 123t55.5 81t72 45t85 14q83 0 127.5 -43.5t44.5 -121.5q0 -22 -5.5 -55.5t-14.5 -66.5h-308q-2 -15 -3.5 -29t-1.5 -25q0 -62 28.5 -89t92.5 -27q35 0 73 9.5t63 23.5q5 -19 8 -41.5t3 -42.5q-16 -8 -35.5 -14.5t-40.5 -11t-42 -6.5t-40 -2 q-100 0 -151 53t-51 154zM163 307h219q5 16 7.5 35t2.5 30q0 46 -25 68t-67 22q-52 0 -86.5 -37t-50.5 -118zM266 578q24 38 47.5 76.5t47.5 76.5h97q-20 -39 -52 -81.5t-69 -77.5q-17 0 -37 1.5t-34 4.5z" />
<glyph unicode="&#xec;" horiz-adv-x="295" d="M67 81q0 18 3 39l71 402h90l-71 -404q-1 -4 -1 -9v-6q0 -24 27 -24h57l-5 -28q-6 -35 -23 -48t-49 -13q-51 0 -75 24t-24 67zM92 731h90l46 -152q-15 -4 -33 -5.5t-35 -1.5q-25 36 -43 78t-25 81z" />
<glyph unicode="&#xf2;" horiz-adv-x="568" d="M54 193q0 19 1 37.5t5 40.5q23 134 90 197.5t166 63.5q43 0 79.5 -11.5t63 -36.5t41.5 -64t15 -93q0 -17 -1 -36t-5 -40q-24 -135 -92 -198t-165 -63q-45 0 -81.5 12.5t-62.5 37.5t-40 63t-14 90zM149 188q0 -66 29.5 -93t77.5 -27q31 0 56 9.5t44.5 31.5t34 59t23.5 91 q6 41 6 69q0 69 -30 97.5t-79 28.5q-28 0 -52 -8.5t-43.5 -30.5t-34.5 -58.5t-25 -93.5q-7 -41 -7 -75zM237 731h90l46 -152q-15 -4 -33 -5.5t-35 -1.5q-25 36 -43 78t-25 81z" />
<glyph unicode="&#xf3;" horiz-adv-x="568" d="M54 193q0 19 1 37.5t5 40.5q23 134 90 197.5t166 63.5q43 0 79.5 -11.5t63 -36.5t41.5 -64t15 -93q0 -17 -1 -36t-5 -40q-24 -135 -92 -198t-165 -63q-45 0 -81.5 12.5t-62.5 37.5t-40 63t-14 90zM149 188q0 -66 29.5 -93t77.5 -27q31 0 56 9.5t44.5 31.5t34 59t23.5 91 q6 41 6 69q0 69 -30 97.5t-79 28.5q-28 0 -52 -8.5t-43.5 -30.5t-34.5 -58.5t-25 -93.5q-7 -41 -7 -75zM286 578q24 38 47.5 76.5t47.5 76.5h97q-20 -39 -52 -81.5t-69 -77.5q-17 0 -37 1.5t-34 4.5z" />
<glyph unicode="&#xf7;" horiz-adv-x="408" d="M57 244l10 60h284l-11 -60h-283zM117 77q0 32 18 48t43 16q21 0 33.5 -12t12.5 -33q0 -31 -17.5 -47.5t-41.5 -16.5q-23 0 -35.5 12t-12.5 33zM183 451q0 31 18 47t43 16q21 0 33.5 -12t12.5 -32q0 -32 -17 -48t-42 -16q-23 0 -35.5 11.5t-12.5 33.5z" />
<glyph unicode="&#xf9;" horiz-adv-x="595" d="M68 114q0 9 1 19t3 19l64 367q20 2 45.5 4t45.5 2l-65 -370q-1 -5 -1.5 -10t-0.5 -10q0 -31 19 -47.5t63 -16.5q67 0 127 38l71 410q19 2 45 4t47 2l-72 -406q-1 -5 -1 -10v-6q0 -24 27 -24h58l-5 -28q-6 -35 -24 -48t-49 -13q-43 0 -66.5 17t-30.5 49h-5 q-37 -34 -73.5 -50t-86.5 -16q-26 0 -50.5 7t-43.5 22t-30.5 38.5t-11.5 56.5zM249 731h90l46 -152q-15 -4 -33 -5.5t-35 -1.5q-25 36 -43 78t-25 81z" />
<glyph unicode="&#x192;" d="M54 316l13 77h136l19 111q16 85 67 132.5t132 47.5q13 0 29.5 -1t27.5 -3q-2 -21 -6 -41.5t-10 -39.5q-8 2 -24 3t-27 1q-83 0 -100 -92l-20 -118h160q-6 -39 -20 -77h-154l-78 -448h-88l78 448h-135z" />
<glyph unicode="&#x2c6;" d="M84 578q31 44 60.5 81t61.5 72h113q20 -38 37.5 -74.5t32.5 -77.5q-34 -7 -76 -7l-57 108l-94 -108q-18 0 -39.5 1.5t-38.5 4.5z" />
<glyph unicode="&#x2da;" d="M132 655q0 53 36 84t98 31q51 0 76 -23.5t25 -61.5q0 -53 -36 -84t-97 -31q-52 0 -77 24.5t-25 60.5zM199 658q0 -40 42 -40q26 0 42.5 17t16.5 48q0 18 -11 28.5t-31 10.5q-26 0 -42.5 -16.5t-16.5 -47.5z" />
<glyph unicode="&#x2dc;" d="M65 584q14 37 27 60t26.5 36t28.5 17.5t31 4.5q24 0 36.5 -4t21.5 -9l48 -29q20 -12 33 -12q10 0 16.5 2t12 9t11 19t11.5 32q13 0 32 -3.5t33 -10.5q-14 -39 -27.5 -62.5t-28 -36t-30 -16.5t-33.5 -4q-29 0 -52 14l-46 28q-19 12 -34 12q-22 0 -31.5 -13t-20.5 -48 q-14 0 -32.5 3.5t-32.5 10.5z" />
<glyph unicode="&#x3a9;" horiz-adv-x="669" d="M-3 0l14 85h136l1 6q-39 32 -60 86t-21 126q0 41 7 82q23 148 101 223.5t211 75.5q115 0 175 -58.5t60 -168.5q0 -18 -2 -37.5t-5 -39.5q-17 -103 -64 -175t-113 -114l-1 -6h136l-15 -85h-250l9 71q33 12 64 36t57.5 61t47 89t31.5 119q3 21 5 39t2 34q0 80 -39 113.5 t-110 33.5q-41 0 -74 -11t-58.5 -37t-43 -68.5t-28.5 -105.5q-9 -55 -9 -103q0 -81 27 -131.5t75 -68.5l-17 -71h-249z" />
<glyph unicode="&#x3c0;" horiz-adv-x="644" d="M58 435l15 87h587q-3 -19 -9 -43t-13 -44h-114l-54 -306q-1 -5 -1.5 -9.5t-0.5 -8.5q0 -22 11.5 -31t33.5 -9q17 0 33 4t30 10q3 -20 4.5 -42t1.5 -39q-20 -8 -43.5 -11t-46.5 -3q-58 0 -85 26.5t-27 72.5q0 18 3 36l54 310h-197l-77 -435h-87l77 435h-95z" />
<glyph unicode="&#x2000;" horiz-adv-x="407" />
<glyph unicode="&#x2001;" horiz-adv-x="815" />
<glyph unicode="&#x2002;" horiz-adv-x="407" />
<glyph unicode="&#x2003;" horiz-adv-x="815" />
<glyph unicode="&#x2004;" horiz-adv-x="271" />
<glyph unicode="&#x2005;" horiz-adv-x="203" />
<glyph unicode="&#x2006;" horiz-adv-x="135" />
<glyph unicode="&#x2007;" horiz-adv-x="135" />
<glyph unicode="&#x2008;" horiz-adv-x="101" />
<glyph unicode="&#x2009;" horiz-adv-x="163" />
<glyph unicode="&#x200a;" horiz-adv-x="45" />
<glyph unicode="&#x2010;" horiz-adv-x="250" d="M30 260l13 77h185l-14 -77h-184z" />
<glyph unicode="&#x2011;" horiz-adv-x="250" d="M30 260l13 77h185l-14 -77h-184z" />
<glyph unicode="&#x2012;" horiz-adv-x="250" d="M30 260l13 77h185l-14 -77h-184z" />
<glyph unicode="&#x2013;" d="M45 231l12 69h398q-3 -17 -8.5 -35.5t-12.5 -33.5h-389z" />
<glyph unicode="&#x2014;" horiz-adv-x="1000" d="M60 231l12 69h869q-3 -17 -8.5 -36t-12.5 -33h-860z" />
<glyph unicode="&#x2018;" horiz-adv-x="229" d="M80 447q5 18 7.5 36.5t5.5 37.5q14 73 50.5 123.5t101.5 78.5q17 -20 25 -51q-47 -18 -72 -50.5t-33 -72.5h39q3 -16 3 -35q0 -35 -8 -67h-119z" />
<glyph unicode="&#x2019;" horiz-adv-x="229" d="M57 488q47 17 72 50t33 73h-40q-2 8 -2 17v18q0 33 8 67h119q-4 -19 -7 -37.5t-7 -36.5q-13 -73 -49.5 -124t-101.5 -78q-17 21 -25 51z" />
<glyph unicode="&#x201a;" horiz-adv-x="229" d="M-23 -58q47 18 71.5 49.5t30.5 69.5h-38q-2 9 -2 18v18v13q0 15 2.5 29t5.5 27h119q-2 -15 -5 -30t-5 -30q-2 -8 -3.5 -16t-3.5 -16q-15 -66 -51 -111.5t-96 -71.5q-8 10 -14.5 23.5t-10.5 27.5z" />
<glyph unicode="&#x201c;" horiz-adv-x="416" d="M80 447q5 18 7.5 36.5t5.5 37.5q14 73 50.5 123.5t101.5 78.5q17 -20 25 -51q-47 -18 -72 -50.5t-33 -72.5h39q3 -16 3 -35q0 -35 -8 -67h-119zM268 447q5 18 7.5 36.5t5.5 37.5q14 73 50 123.5t102 78.5q17 -20 25 -51q-48 -18 -72.5 -50.5t-32.5 -72.5h39q3 -16 3 -35 q0 -35 -8 -67h-119z" />
<glyph unicode="&#x201d;" horiz-adv-x="416" d="M57 488q47 17 72 50t33 73h-40q-2 8 -2 17v18q0 33 8 67h119q-4 -19 -7 -37.5t-7 -36.5q-13 -73 -49.5 -124t-101.5 -78q-17 21 -25 51zM244 488q48 17 73 50t32 73h-39q-2 8 -2 17v18q0 33 8 67h118q-2 -19 -5.5 -37.5t-7.5 -36.5q-13 -73 -49.5 -124t-101.5 -78 q-8 10 -15 23t-11 28z" />
<glyph unicode="&#x201e;" horiz-adv-x="416" d="M-23 -58q47 18 71.5 49.5t30.5 69.5h-38q-2 9 -2 18v18v13q0 15 2.5 29t5.5 27h119q-2 -15 -5 -30t-5 -30q-2 -8 -3.5 -16t-3.5 -16q-15 -66 -51 -111.5t-96 -71.5q-8 10 -14.5 23.5t-10.5 27.5zM164 -58q48 18 72.5 49.5t30.5 69.5h-38q-3 18 -3 36t2.5 35.5t6.5 33.5 h119q-2 -19 -5.5 -37.5t-7.5 -36.5q-13 -72 -49.5 -123t-101.5 -78q-9 10 -15.5 23.5t-10.5 27.5z" />
<glyph unicode="&#x2022;" horiz-adv-x="352" d="M72 263q0 56 34.5 87.5t84.5 31.5q38 0 62.5 -23.5t24.5 -67.5q0 -56 -35 -86.5t-84 -30.5q-41 0 -64 24t-23 65z" />
<glyph unicode="&#x2026;" horiz-adv-x="659" d="M26 34q0 31 17.5 47.5t42.5 16.5q22 0 34.5 -12t12.5 -33q0 -32 -17.5 -48t-42.5 -16q-22 0 -34.5 11.5t-12.5 33.5zM245 34q0 31 17.5 47.5t42.5 16.5q22 0 34.5 -12t12.5 -33q0 -32 -17.5 -48t-42.5 -16q-22 0 -34.5 11.5t-12.5 33.5zM463 34q0 31 18 47.5t43 16.5 q22 0 34.5 -12t12.5 -33q0 -32 -17.5 -48t-42.5 -16q-22 0 -35 11.5t-13 33.5z" />
<glyph unicode="&#x202f;" horiz-adv-x="163" />
<glyph unicode="&#x2030;" horiz-adv-x="1162" d="M60 446q0 53 13.5 96.5t37.5 75t57.5 49t73.5 17.5q67 0 102.5 -35t35.5 -103q0 -51 -11.5 -95t-34.5 -76.5t-56.5 -51.5t-77.5 -19q-66 0 -103 35.5t-37 106.5zM134 443q0 -81 67 -81q45 0 67 34t33 97q3 15 4 28.5t1 25.5q0 37 -15 58t-50 21q-43 0 -66.5 -33 t-35.5 -97q-2 -14 -3.5 -28t-1.5 -25zM184 11l383 670q17 0 35 -3t32 -7l-390 -681q-31 6 -60 21zM432 131q0 53 13.5 96.5t38 75t58 49t73.5 17.5q66 0 102 -35t36 -103q0 -50 -11.5 -94t-34.5 -77t-57 -52t-78 -19q-66 0 -103 35.5t-37 106.5zM507 128q0 -80 66 -80 q45 0 67.5 33.5t33.5 96.5q2 15 3.5 28.5t1.5 25.5q0 37 -15.5 58t-50.5 21q-43 0 -66.5 -33t-34.5 -96q-3 -15 -4 -28.5t-1 -25.5zM787 131q0 53 13.5 96.5t38 75t58 49t73.5 17.5q66 0 102 -35t36 -103q0 -50 -11.5 -94t-34.5 -77t-57 -52t-78 -19q-66 0 -103 35.5 t-37 106.5zM862 128q0 -80 67 -80q45 0 67 33.5t33 96.5q2 15 3.5 28.5t1.5 25.5q0 37 -15 58t-50 21q-44 0 -67.5 -33t-34.5 -96q-2 -15 -3.5 -28.5t-1.5 -25.5z" />
<glyph unicode="&#x2039;" horiz-adv-x="272" d="M25 267l176 216l73 -14l-160 -207l86 -206l-73 -13z" />
<glyph unicode="&#x203a;" horiz-adv-x="272" d="M-2 57l159 207l-85 206l73 13l101 -224l-175 -216z" />
<glyph unicode="&#x205f;" horiz-adv-x="203" />
<glyph unicode="&#x20ac;" d="M21 229l10 62h56q3 23 7.5 49.5t9.5 49.5h-56l11 62h60q20 67 48.5 111.5t63 71.5t74.5 38t84 11q32 0 68 -5t58 -14q-3 -23 -8.5 -44.5t-13.5 -42.5q-22 10 -52.5 15.5t-59.5 5.5q-28 0 -52 -6.5t-44.5 -23.5t-36.5 -45t-30 -72h227q-2 -12 -6 -29.5t-11 -32.5h-226 q-6 -22 -11 -48.5t-8 -50.5h216q-2 -14 -6 -30t-11 -32h-204v-19q0 -69 27 -102t87 -33q32 0 66 7t62 21l2 -24t1 -25q0 -20 -3 -40q-29 -12 -68.5 -18t-71.5 -6q-97 0 -146.5 55.5t-49.5 166.5v17h-63z" />
<glyph unicode="&#x2122;" horiz-adv-x="755" d="M54 616q2 14 4.5 28.5t4.5 29.5h255q-2 -11 -6 -27.5t-9 -30.5h-91l-51 -291h-65l51 291h-93zM281 326q21 88 45.5 173.5t53.5 174.5h69q13 -62 25 -123.5t24 -123.5q1 -5 1.5 -15t0.5 -18h5q6 21 13 34q3 5 5.5 9.5t5.5 9.5q30 57 60 113.5t61 113.5h70 q-3 -88 -9.5 -176.5t-15.5 -171.5q-14 -2 -30 -2h-29q5 55 10.5 109.5t10.5 110.5q1 9 2.5 18.5t2.5 15.5h-4q-3 -8 -7 -16.5t-8 -15.5q-5 -8 -10 -17.5t-10 -17.5q-25 -47 -50 -93t-51 -93h-64q-11 56 -22 110.5t-22 110.5q-3 15 -3 32h-4q-1 -5 -3 -15.5t-4 -18.5 q-3 -11 -6 -20.5t-6 -19.5q-13 -45 -25.5 -90.5t-25.5 -90.5q-11 0 -29 1t-27 2z" />
<glyph unicode="&#x2202;" horiz-adv-x="559" d="M53 184q0 19 2 40t6 44q12 70 36 118t57.5 78t75.5 43t91 13q25 0 56 -4t55 -12q0 43 -12 70q-11 46 -40 67t-86 21q-14 0 -31.5 -1.5t-35 -4t-34.5 -6.5t-30 -9q0 20 3 45.5t8 40.5q29 9 66.5 13t65.5 4q45 0 84.5 -11.5t69 -39.5t47 -74.5t17.5 -116.5q0 -35 -1.5 -69 t-6.5 -69q-22 -180 -90.5 -277t-186.5 -97q-91 0 -138.5 47t-47.5 147zM149 184q0 -61 23.5 -87.5t74.5 -26.5q41 0 70.5 20.5t50.5 63.5t34.5 110t22.5 160q-22 8 -49 13t-54 5q-29 0 -55 -7.5t-47.5 -27.5t-37.5 -55t-25 -90q-4 -23 -6 -42t-2 -36z" />
<glyph unicode="&#x220f;" horiz-adv-x="690" d="M46 0l119 674h493l-119 -674h-98l102 583h-296l-103 -583h-98z" />
<glyph unicode="&#x2211;" horiz-adv-x="536" d="M-14 0l14 79l309 274l-200 243l14 78h409q-6 -41 -21 -86h-280l169 -209l-11 -66l-263 -228h320q-3 -19 -8.5 -40.5t-13.5 -44.5h-438z" />
<glyph unicode="&#x221a;" horiz-adv-x="523" d="M61 530q17 4 40 6.5t41 2.5l97 -368q3 -11 5.5 -26.5t3.5 -29.5h7q2 14 6.5 31t8.5 29l149 499h162q-4 -19 -8.5 -40t-11.5 -39h-87l-183 -595h-89q-40 124 -76 257.5t-65 272.5z" />
<glyph unicode="&#x221e;" horiz-adv-x="890" d="M47 222q0 56 15.5 103t45 80.5t73 52t99.5 18.5t99.5 -29.5t74.5 -103.5q29 39 55 64.5t51.5 41t52 21.5t56.5 6q77 0 120.5 -45.5t43.5 -127.5q0 -60 -17 -107t-47.5 -79.5t-73 -50t-93.5 -17.5q-53 0 -97.5 28t-79.5 104q-51 -70 -100 -101t-112 -31q-79 0 -122.5 45 t-43.5 128zM129 231q0 -49 21.5 -77t75.5 -28t98 38t80 99q-19 65 -51 100t-83 35q-69 0 -105 -44t-36 -123zM476 262q23 -76 56.5 -105.5t80.5 -29.5q62 0 100 40.5t38 124.5q0 58 -27.5 82t-72.5 24q-51 0 -91 -33.5t-84 -102.5z" />
<glyph unicode="&#x222b;" horiz-adv-x="315" d="M-102 -212q1 20 5 40.5t10 40.5q8 -2 23.5 -2.5t26.5 -0.5q35 0 54.5 20t27.5 63l110 625q8 45 25.5 77.5t42 53t54.5 30t63 9.5q13 0 28.5 -1t24.5 -3q-3 -42 -15 -81q-8 2 -23.5 2.5t-26.5 0.5q-35 0 -54.5 -20t-27.5 -63l-110 -625q-7 -45 -24.5 -77t-42 -53 t-54.5 -30.5t-64 -9.5q-12 0 -27.5 1t-25.5 3z" />
<glyph unicode="&#x2248;" horiz-adv-x="496" d="M31 124q3 17 5.5 34t5.5 34q48 39 106 39q25 0 47.5 -6.5t45 -14.5t45.5 -14.5t48 -6.5q9 0 18 3q41 5 77 33q-2 -17 -4.5 -34.5t-5.5 -34.5q-45 -34 -96 -34q-25 0 -48 6.5t-45.5 15t-45 15t-47.5 6.5q-29 0 -55 -11t-51 -30zM64 312q3 17 5.5 34t5.5 34q49 40 106 40 q25 0 47.5 -6.5t45 -14.5t45.5 -14.5t48 -6.5h9t9 2q40 4 77 34q-2 -17 -4.5 -34.5t-5.5 -34.5q-22 -17 -46.5 -26t-49.5 -9t-48 6.5t-45.5 15t-45 15t-47.5 6.5q-29 0 -55 -10.5t-51 -30.5z" />
<glyph unicode="&#x2260;" horiz-adv-x="491" d="M22 32l96 115h-76l11 67h121l103 122h-202l11 67h247l86 104h49l-87 -104h69l-12 -67h-113l-103 -122h195l-12 -67h-239l-97 -115h-47z" />
<glyph unicode="&#x2264;" horiz-adv-x="452" d="M22 45q3 17 5.5 33t6.5 33h325q-4 -17 -6.5 -33t-5.5 -33h-325zM89 329q57 43 112 85.5t111 85.5h91v-9q-55 -41 -109.5 -81.5t-109.5 -82.5q41 -42 80.5 -84t80.5 -84v-9h-89q-42 45 -83.5 89.5t-83.5 89.5z" />
<glyph unicode="&#x2265;" horiz-adv-x="452" d="M19 45l12 66h325l-12 -66h-325zM61 150v8l219 165q-41 42 -80.5 83.5t-80.5 83.5v10h89q42 -45 83.5 -89.5t83.5 -89.5q-57 -43 -112 -85.5t-111 -85.5h-91z" />
<glyph unicode="&#xe000;" horiz-adv-x="525" d="M0 0v525h525v-525h-525z" />
</font>
</defs>
</svg>
