<?xml version="1.0" standalone="no"?>
<!DOCTYPE svg PUBLIC "-//W3C//DTD SVG 1.1//EN" "http://www.w3.org/Graphics/SVG/1.1/DTD/svg11.dtd" >
<svg xmlns="http://www.w3.org/2000/svg">
<metadata></metadata>
<defs>
<font id="vistasansaltmeditaregular" horiz-adv-x="500" >
<font-face units-per-em="1000" ascent="800" descent="-200" />
<missing-glyph horiz-adv-x="204" />
<glyph horiz-adv-x="1000" />
<glyph horiz-adv-x="1000" />
<glyph unicode="&#xd;" />
<glyph unicode=" "  horiz-adv-x="204" />
<glyph unicode="&#x09;" horiz-adv-x="204" />
<glyph unicode="&#xa0;" horiz-adv-x="204" />
<glyph unicode="!" horiz-adv-x="249" d="M18 44q0 38 23 57.5t54 19.5q24 0 40 -14.5t16 -40.5q0 -38 -22 -57.5t-53 -19.5q-26 0 -42 14t-16 41zM66 191q13 118 30 240t37 243h120q-22 -120 -47.5 -239.5t-52.5 -235.5q-20 -4 -42.5 -5.5t-44.5 -2.5z" />
<glyph unicode="&#x22;" horiz-adv-x="388" d="M87 437l28 276h118l-69 -264q-17 -6 -37 -9t-40 -3zM257 437l28 276h118l-69 -264q-17 -6 -37 -9t-40 -3z" />
<glyph unicode="#" d="M3 147q5 26 14.5 54t21.5 52h76l57 168h-83q5 26 13.5 53.5t21.5 53.5h85l51 146h73l-51 -146h87l50 146h73l-51 -146h81q-5 -26 -14 -53.5t-20 -53.5h-83l-58 -168h89q-5 -26 -13.5 -53t-20.5 -53h-92l-51 -147h-73l51 147h-88l-49 -147h-73l50 147h-74zM187 253h87 l58 168h-87z" />
<glyph unicode="$" d="M24 80q6 28 15.5 57t17.5 46q16 -6 37 -11t44 -8.5t45.5 -5.5t41.5 -2q46 0 74 13.5t28 51.5q0 25 -18.5 39t-45.5 25t-59.5 21t-59.5 27t-45.5 44t-18.5 71q0 38 14.5 68t40.5 51.5t62 34.5t79 16l8 56h104l-12 -52q25 -1 49 -3.5t47 -7.5q-4 -26 -11 -53.5t-15 -50.5 q-14 3 -34 6t-41 5.5t-41.5 3.5t-35.5 1q-51 0 -76 -13.5t-25 -46.5q0 -22 18.5 -35t46 -23.5t60 -21.5t60 -29t46 -45.5t18.5 -71.5q0 -78 -54.5 -126t-147.5 -53l-7 -58h-104l13 56q-31 2 -62 7.5t-56 16.5z" />
<glyph unicode="%" horiz-adv-x="812" d="M58 446q0 54 13.5 98t38.5 75t59 48t74 17q68 0 105 -35t37 -104q0 -52 -12 -96t-35.5 -76t-58 -50.5t-78.5 -18.5q-67 0 -105 35t-38 107zM150 443q0 -34 12.5 -51t41.5 -17q38 0 56 29.5t29 87.5q2 15 3.5 28.5t1.5 25.5q0 32 -12 49.5t-41 17.5q-37 0 -56 -28.5 t-30 -86.5q-3 -15 -4 -29t-1 -26zM184 13l382 669q20 0 41.5 -3t38.5 -8l-391 -682q-20 3 -37 9.5t-34 14.5zM437 132q0 54 13.5 98t38 75t58.5 48t74 17q69 0 106 -35t37 -104q0 -52 -12 -96t-35.5 -76t-58 -50.5t-78.5 -18.5q-68 0 -105.5 35t-37.5 107zM529 129 q0 -69 53 -69q38 0 56.5 30t28.5 88q3 15 4 28.5t1 25.5q0 32 -11.5 49.5t-40.5 17.5q-37 0 -56 -28.5t-30 -87.5q-3 -14 -4 -28.5t-1 -25.5z" />
<glyph unicode="&#x26;" horiz-adv-x="704" d="M11 223q1 19 4.5 41t8.5 36h52q12 53 34.5 91.5t53 64t67 37.5t76.5 12q84 0 126.5 -41.5t42.5 -119.5q0 -24 -6 -57.5t-15 -63.5h-276v-12q0 -27 6.5 -49.5t22.5 -38t42.5 -24t65.5 -8.5q111 0 175 71t64 214q0 57 -15 96t-42.5 63t-66.5 35t-86 12q1 11 4 25.5t7 28.5 t9 27t9 21q141 -2 214.5 -80t73.5 -221q0 -93 -25.5 -166t-72 -123.5t-111.5 -77t-143 -26.5q-124 0 -184 59.5t-60 173.5h-55zM195 300h170q4 14 6 28t2 24q0 36 -19.5 53t-54.5 17q-42 0 -67.5 -28.5t-36.5 -93.5z" />
<glyph unicode="'" horiz-adv-x="218" d="M86 437l28 276h118l-69 -264q-17 -6 -37 -9t-40 -3z" />
<glyph unicode="(" horiz-adv-x="290" d="M32 119q0 168 53.5 324.5t159.5 293.5q7 0 19.5 -1t27 -3.5t29 -5.5t25.5 -6q-47 -63 -84 -138.5t-62.5 -156t-38.5 -163t-13 -160.5q0 -74 10.5 -143.5t30.5 -123.5q-22 -5 -49 -8t-50 -3q-29 66 -43.5 141t-14.5 153z" />
<glyph unicode=")" horiz-adv-x="290" d="M-57 -160q47 63 84 138.5t62.5 156.5t38.5 163.5t13 160.5q0 74 -10.5 143t-30.5 124q22 5 49.5 8t50.5 3q29 -66 43 -141.5t14 -153.5q0 -167 -53.5 -323.5t-159.5 -293.5q-7 0 -19.5 1t-27 3t-29 5t-25.5 6z" />
<glyph unicode="*" horiz-adv-x="445" d="M55 495q7 26 18 53t25 53l123 -64l5 139q27 5 56.5 6.5t56.5 1.5l-43 -148l137 59q8 -24 14.5 -50.5t10.5 -54.5l-152 -25l79 -113q-20 -17 -42.5 -31.5t-54.5 -29.5l-48 132l-90 -125q-23 12 -45 28t-42 33l122 107z" />
<glyph unicode="+" horiz-adv-x="494" d="M33 231l14 83h165l33 186h84l-33 -186h163l-14 -83h-164l-33 -186h-84l33 186h-164z" />
<glyph unicode="," horiz-adv-x="237" d="M-95 -142q37 37 63 65t43 53t26 49t13 53l5 35h105q0 -10 -2 -27t-4 -27q-11 -59 -48 -114t-107 -118z" />
<glyph unicode="-" horiz-adv-x="250" d="M29 249l17 95h187l-16 -95h-188z" />
<glyph unicode="." horiz-adv-x="237" d="M25 44q0 38 22.5 57.5t53.5 19.5q25 0 40.5 -14.5t15.5 -40.5q0 -38 -22 -57.5t-52 -19.5q-26 0 -42 14t-16 41z" />
<glyph unicode="/" horiz-adv-x="383" d="M-81 -89l437 773q9 0 22 -1t26 -3t25 -4t21 -5l-445 -785q-21 3 -44.5 9.5t-41.5 15.5z" />
<glyph unicode="0" d="M34 213q0 29 3 63t10 73q17 98 43 162.5t59.5 102.5t74 54t85.5 16q39 0 72 -12t57 -38.5t37 -69t13 -102.5q0 -56 -14 -135q-16 -93 -40.5 -157t-57.5 -104t-74 -58t-91 -18q-38 0 -70.5 11.5t-56 38t-37 69t-13.5 104.5zM147 195q0 -56 18.5 -79.5t55.5 -23.5 q28 0 48.5 13.5t36 43t28 76t24.5 113.5q8 44 12 79t4 62q0 54 -18 78.5t-56 24.5q-27 0 -47.5 -13t-36.5 -42.5t-28.5 -76t-24.5 -112.5q-8 -46 -12 -81.5t-4 -61.5z" />
<glyph unicode="1" d="M12 0l19 109h170l79 452l-156 -20q-3 21 -3 44q0 28 5 56l178 33h111l-100 -565h123q-4 -24 -11.5 -54.5t-16.5 -54.5h-398z" />
<glyph unicode="2" d="M6 0l11 95q92 70 154 125.5t99.5 101t53 84.5t15.5 76q0 48 -29 69.5t-77 21.5q-30 0 -60 -5.5t-52 -16.5q-5 14 -7.5 33t-2.5 41q0 8 0.5 17t1.5 17q35 13 74 19t79 6q42 0 78.5 -11.5t63.5 -34.5t42 -57.5t15 -79.5q0 -48 -15 -93t-47.5 -92t-83.5 -97.5t-123 -109.5 h227q-8 -53 -26 -109h-391z" />
<glyph unicode="3" d="M-3 18q10 63 32 111q26 -14 62 -22t73 -8q57 0 93 28.5t36 87.5q0 45 -27 63t-72 18h-90l19 108h83q63 0 93 25t30 71q0 39 -26 57t-70 18q-31 0 -60.5 -5t-57.5 -14q-1 8 -1 16v17q0 46 6 77q35 11 70.5 14.5t76.5 3.5q38 0 71.5 -9t58.5 -28t40 -49t15 -71 q0 -69 -36.5 -110t-93.5 -58l-1 -6q45 -16 70 -50t25 -88q0 -57 -23 -99.5t-61 -70.5t-85.5 -41.5t-97.5 -13.5q-38 0 -81 7t-71 21z" />
<glyph unicode="4" d="M25 157l19 110q31 53 66 109t71.5 110t72.5 104.5t69 93.5q11 -1 25 -3t28 -5t27 -6t22 -7l-271 -407h134l29 163h106l-27 -157h68q-5 -26 -12 -52.5t-16 -52.5h-58l-28 -157h-113l29 157h-241z" />
<glyph unicode="5" d="M20 15q5 27 14.5 56t20.5 55q24 -12 57.5 -19t66.5 -7q55 0 91 27t36 86q0 47 -29 69t-94 22q-28 0 -59 -2t-51 -4q9 46 20.5 95t24 98t26 95.5t26.5 87.5h324q-4 -24 -11.5 -53t-15.5 -56h-223l-41 -157q42 0 81.5 -9t71 -30.5t50.5 -56.5t19 -87q0 -54 -18.5 -97.5 t-52.5 -74t-82.5 -47t-108.5 -16.5q-32 0 -72 6.5t-71 18.5z" />
<glyph unicode="6" d="M45 204q0 23 2 50t6 56q15 104 43 175.5t67.5 115.5t89 63.5t107.5 19.5q14 0 30.5 -1t33 -3.5t31 -5t24.5 -5.5q0 -10 -1.5 -24.5t-4.5 -29.5t-6.5 -29t-7.5 -23q-17 5 -47.5 9t-56.5 4q-31 0 -58 -9t-49 -31.5t-39 -60t-29 -95.5h6q26 28 54 40.5t65 12.5q32 0 59 -10 t46.5 -30t31 -51.5t11.5 -74.5q0 -61 -15.5 -112t-44.5 -88t-71 -57t-95 -20q-41 0 -74.5 11.5t-57.5 37t-37 66t-13 99.5zM152 181q0 -45 20.5 -68.5t59.5 -23.5q54 0 81 45t27 122q0 46 -23 65.5t-60 19.5q-29 0 -49 -13.5t-32.5 -36t-18 -51.5t-5.5 -59z" />
<glyph unicode="7" d="M-10 12l369 553h-265q0 30 3 56.5t8 52.5h397l-17 -103q-40 -67 -87 -141t-96.5 -149t-100.5 -148.5t-99 -139.5q-26 2 -58 6.5t-54 12.5z" />
<glyph unicode="8" d="M29 158q0 68 34 114.5t107 78.5q-71 51 -71 133q0 49 16 86t44.5 62.5t68.5 38.5t88 13q81 0 128.5 -38.5t47.5 -108.5q0 -62 -32.5 -109t-98.5 -72q42 -26 65 -66t23 -88q0 -102 -61.5 -157t-169.5 -55q-86 0 -137.5 41.5t-51.5 126.5zM144 170q0 -36 20.5 -59.5 t62.5 -23.5q54 0 79.5 33t26.5 85q0 36 -20.5 63.5t-61.5 41.5q-54 -19 -80.5 -55.5t-26.5 -84.5zM211 487q0 -33 15.5 -58t52.5 -37q47 17 72.5 50.5t26.5 77.5q0 32 -21 50t-56 18q-48 0 -69 -28t-21 -73z" />
<glyph unicode="9" d="M38 5q0 10 1.5 24.5t4.5 29.5t6.5 29t7.5 23q17 -5 47.5 -9t56.5 -4q32 0 58.5 9t48.5 31t39 60t29 96h-6q-26 -28 -54 -40.5t-65 -12.5q-31 0 -58 10t-47 30t-31.5 51.5t-11.5 74.5q0 62 15.5 112.5t45 87.5t71.5 57t95 20q41 0 74.5 -11.5t57 -37t36.5 -66t13 -99.5 q0 -23 -2 -50t-6 -56q-15 -104 -43 -175.5t-67.5 -115.5t-89 -63.5t-107.5 -19.5q-13 0 -29.5 1t-33 3.5t-31.5 5t-25 5.5zM177 418q0 -46 23 -65.5t61 -19.5q29 0 48.5 13.5t32 36t18 51.5t5.5 59q0 45 -20.5 68.5t-59.5 23.5q-54 0 -81 -45t-27 -122z" />
<glyph unicode=":" horiz-adv-x="237" d="M28 44q0 38 23 57.5t54 19.5q24 0 40 -14.5t16 -40.5q0 -38 -22 -57.5t-53 -19.5q-26 0 -42 14t-16 41zM92 410q0 38 22.5 57.5t54.5 19.5q24 0 40 -14.5t16 -40.5q0 -38 -22 -57.5t-53 -19.5q-26 0 -42 14t-16 41z" />
<glyph unicode=";" horiz-adv-x="237" d="M-87 -142q37 37 63 65t42.5 53t25.5 49t14 53l6 35h104q0 -10 -2 -27t-4 -27q-11 -59 -47.5 -114t-106.5 -118zM96 410q0 38 22.5 57.5t53.5 19.5q25 0 40.5 -14.5t15.5 -40.5q0 -38 -22 -57.5t-52 -19.5q-26 0 -42 14t-16 41z" />
<glyph unicode="&#x3c;" horiz-adv-x="419" d="M46 278l244 222h108v-11l-238 -215l162 -220v-9h-109z" />
<glyph unicode="=" horiz-adv-x="492" d="M36 137l15 81h370l-14 -81h-371zM70 326l14 81h370l-14 -81h-370z" />
<glyph unicode="&#x3e;" horiz-adv-x="419" d="M18 45v11l238 215l-162 220v9h109l167 -233l-244 -222h-108z" />
<glyph unicode="?" horiz-adv-x="391" d="M28 43q0 38 22.5 58t54.5 20q24 0 40 -14.5t16 -40.5q0 -38 -22 -57t-53 -19q-26 0 -42 13.5t-16 39.5zM62 188q0 38 3 82t10 82q103 23 156 59t53 93q0 42 -26.5 58.5t-73.5 16.5q-21 0 -47 -3t-46 -6q-8 29 -8 66q0 20 3 38q26 5 59 7.5t65 2.5q41 0 76 -10t60.5 -30 t39.5 -50.5t14 -71.5q0 -81 -52 -137t-169 -94l-17 -92q-25 -5 -51 -7.5t-49 -3.5z" />
<glyph unicode="@" horiz-adv-x="838" d="M54 234q0 108 31 192t87 141.5t134 87t171 29.5q71 0 130 -20.5t101.5 -59t66 -93t23.5 -122.5q0 -58 -14.5 -112t-42 -95.5t-66.5 -66t-89 -24.5q-84 0 -109 49h-3q-29 -29 -55.5 -39.5t-52.5 -10.5q-57 0 -93.5 39.5t-36.5 120.5q0 14 1 28.5t4 31.5q11 62 32 103 t49 65.5t61.5 35t69.5 10.5q18 0 38 -3.5t36 -8.5q11 4 24.5 6.5t30.5 2.5q8 0 18 -1t18 -5l-52 -294q-1 -4 -1.5 -12t-0.5 -11q0 -35 42 -35q23 0 44 19t36.5 50.5t24.5 73t9 87.5q0 53 -19 93.5t-53 68t-81.5 42t-103.5 14.5q-84 0 -145.5 -28t-101.5 -78t-59.5 -119.5 t-19.5 -152.5q0 -51 13 -93t41 -72t70.5 -46.5t100.5 -16.5q16 0 35.5 1.5t40 4.5t38.5 7t31 9q2 -11 3 -23.5t1 -25.5q0 -8 -0.5 -16t-1.5 -13q-32 -10 -74.5 -14.5t-80.5 -4.5q-72 0 -128 21.5t-94.5 61.5t-58 96t-19.5 125zM337 252q0 -45 16.5 -63t48.5 -18q21 0 35 5.5 t31 15.5l42 239q-11 6 -29 9.5t-35 3.5q-41 0 -66 -30.5t-36 -85.5q-4 -20 -5.5 -39.5t-1.5 -36.5z" />
<glyph unicode="A" horiz-adv-x="590" d="M-51 53q0 5 1 15.5t5 33.5h31q20 0 29 7t20 27l272 538h137q26 -168 49.5 -335.5t41.5 -332.5q-30 -6 -59 -8.5t-61 -2.5l-23 184h-209l-42 -90q-14 -30 -27.5 -49.5t-28 -30.5t-31.5 -15t-38 -4q-36 0 -51.5 16t-15.5 47zM231 282h150l-26 214q-1 7 -1 11v10v14 q0 9 1 17h-8q-5 -23 -8 -34.5t-6 -17.5z" />
<glyph unicode="B" horiz-adv-x="613" d="M65 5l94 532q1 5 1 8v6q0 21 -28 21h-48l6 34q8 42 32 60t64 18q64 0 94 -33q25 17 57 25t61 8q80 0 129 -38t49 -121q0 -30 -8 -57.5t-24 -50t-39 -38.5t-53 -23v-9q95 -29 95 -135q0 -58 -22 -100t-59.5 -69t-87 -39.5t-104.5 -12.5q-44 0 -98.5 3.5t-110.5 10.5z M202 94q24 -2 47 -3.5t40 -1.5q60 0 94.5 30.5t34.5 93.5q0 84 -89 84h-91zM254 389h90q48 0 78.5 30.5t30.5 88.5q0 38 -21.5 59.5t-64.5 21.5q-17 0 -38.5 -3t-41.5 -8z" />
<glyph unicode="C" horiz-adv-x="577" d="M58 244q0 48 7.5 93.5t20.5 89.5q35 126 117 191.5t207 65.5q23 0 48.5 -2.5t49.5 -6.5t44.5 -10t34.5 -14q-6 -24 -16 -54t-20 -58q-32 17 -74.5 26t-81.5 9q-72 0 -118 -44t-69 -142q-8 -33 -13.5 -68.5t-5.5 -71.5q0 -79 34.5 -113t104.5 -34q41 0 84.5 9t75.5 26 q5 -30 7 -58.5t2 -58.5q-19 -7 -43 -12.5t-48.5 -9.5t-48 -5.5t-41.5 -1.5q-258 0 -258 254z" />
<glyph unicode="D" horiz-adv-x="699" d="M65 5l94 532q1 5 1 8v6q0 21 -28 21h-48l6 34q8 42 32 60t64 18q63 0 94 -33q59 33 133 33q53 0 98.5 -15.5t79 -49t52.5 -85t19 -123.5q0 -100 -27.5 -178t-76.5 -132t-116 -82t-146 -28q-26 0 -56.5 1t-62 2.5t-60.5 4.5t-52 6zM208 106q19 -2 50 -3.5t53 -1.5 q104 0 160.5 82.5t58.5 232.5q0 47 -12 77.5t-32.5 48.5t-47.5 25t-57 7q-47 0 -93 -11z" />
<glyph unicode="E" horiz-adv-x="540" d="M43 0l119 674h386q-5 -25 -12.5 -55t-15.5 -55h-252l-29 -163h187l-19 -108h-187l-32 -183h277q-5 -26 -12 -54t-17 -56h-393z" />
<glyph unicode="F" horiz-adv-x="514" d="M43 0l119 674h388q-4 -26 -11 -53.5t-16 -56.5h-255l-31 -181h210l-20 -109h-210l-49 -274h-125z" />
<glyph unicode="G" horiz-adv-x="636" d="M58 248q0 51 9 108q16 92 48.5 154.5t78.5 101t103 55.5t122 17q23 0 48 -2t50.5 -6.5t49 -10t42.5 -13.5q-5 -27 -14.5 -57.5t-20.5 -56.5q-15 8 -35.5 15t-42.5 11.5t-44.5 7t-41.5 2.5q-40 0 -73.5 -9t-60 -34.5t-46.5 -71t-32 -117.5q-5 -24 -7 -49.5t-2 -44.5 q0 -82 37.5 -115t106.5 -33q41 0 77 11l23 139h-102q-1 8 -1 12v11q0 22 2.5 44t8.5 40h234l-58 -333q-41 -17 -92.5 -25.5t-103.5 -8.5q-70 0 -120 18t-82 51t-46.5 81t-14.5 108z" />
<glyph unicode="H" horiz-adv-x="699" d="M43 0l119 674h125l-47 -267h258l47 267h125l-95 -536q-1 -3 -1 -7v-6q0 -23 30 -23h46l-5 -30q-8 -45 -33.5 -63.5t-68.5 -18.5t-71 22.5t-28 72.5q0 17 3 35l31 175h-257l-53 -295h-125z" />
<glyph unicode="I" horiz-adv-x="308" d="M43 0l119 674h125l-119 -674h-125z" />
<glyph unicode="J" horiz-adv-x="335" d="M-40 -100q0 14 1 27.5t3 26.5q30 0 50 6t33 19t20.5 33t12.5 48l84 477q1 5 1 8v6q0 21 -28 21h-48l6 34q8 45 36.5 61.5t72.5 16.5q19 0 36 -4.5t29.5 -14.5t20 -27t7.5 -41q0 -8 -1 -18.5t-3 -20.5l-84 -478q-10 -54 -26.5 -98t-44 -75.5t-69.5 -49t-103 -18.5 q-2 13 -4 29t-2 32z" />
<glyph unicode="K" horiz-adv-x="626" d="M43 0l119 674h124l-52 -296h6l287 302q13 0 31 -1t37.5 -2.5t37.5 -3.5t30 -5l-272 -271l120 -265q8 -19 17 -24.5t29 -5.5h40l-6 -37q-7 -38 -26.5 -56.5t-60.5 -18.5q-38 0 -61 16t-43 64l-99 236l-96 -95l-38 -211h-124z" />
<glyph unicode="L" horiz-adv-x="483" d="M43 0l119 674h125l-99 -563h255q-5 -28 -12.5 -56t-15.5 -55h-372z" />
<glyph unicode="M" horiz-adv-x="868" d="M-24 53q0 5 1 15.5t6 33.5h42q19 0 27.5 7.5t13.5 27.5l149 537h141l65 -450q2 -12 2 -28v-53h9q7 32 12.5 51t11.5 31l213 449h144q-11 -170 -25 -338.5t-33 -335.5h-119l45 428q2 14 4 29.5t7 44.5h-9q-7 -28 -12 -45t-10 -29l-206 -428h-118l-61 428q-1 7 -1.5 22.5 t-0.5 51.5h-8q-3 -38 -5 -52.5t-4 -21.5l-85 -321q-16 -62 -42 -89.5t-74 -27.5q-38 0 -59 15t-21 48z" />
<glyph unicode="N" horiz-adv-x="706" d="M-12 53q0 10 2 21.5t5 26.5h43q23 0 30.5 10t11.5 35l92 521q29 5 66.5 7t63.5 2l162 -411q5 -13 10.5 -31t8.5 -40l9 1q0 23 2 45t5 39l69 395h115l-118 -670q-12 -2 -27.5 -4t-32 -3.5t-32 -2t-27.5 -0.5l-170 438q-5 12 -10.5 32t-8.5 36l-9 -1q0 -31 -0.5 -46.5 t-3.5 -31.5l-57 -316q-9 -52 -35 -83.5t-81 -31.5q-83 0 -83 63z" />
<glyph unicode="O" horiz-adv-x="675" d="M58 250q0 28 3.5 60t10.5 64q35 162 118 236t207 74q114 0 177.5 -66t63.5 -200q0 -31 -4 -59.5t-10 -58.5q-17 -81 -47.5 -140t-72 -96.5t-93.5 -55.5t-112 -18q-112 0 -176.5 65t-64.5 195zM189 239q0 -73 31 -107.5t91 -34.5q38 0 66.5 10.5t50 35t37.5 66t28 104.5 q14 67 14 122q0 78 -32 110t-90 32q-37 0 -65.5 -10.5t-51 -35.5t-38.5 -67.5t-28 -106.5q-6 -33 -9.5 -61.5t-3.5 -56.5z" />
<glyph unicode="P" horiz-adv-x="600" d="M64 0l95 537q1 5 1.5 8t0.5 6q0 21 -29 21h-47l6 34q7 42 31.5 60t63.5 18q33 0 56 -8.5t39 -24.5q28 19 59.5 26t64.5 7q35 0 66.5 -9.5t56.5 -31.5t39.5 -57.5t14.5 -87.5q0 -68 -22.5 -119t-60 -84.5t-87 -50.5t-103.5 -17h-80l-41 -227h-124zM247 329h64 q31 0 57.5 9.5t46.5 29t31.5 49t11.5 69.5q0 53 -26 74t-64 21q-21 0 -40.5 -2.5t-36.5 -7.5z" />
<glyph unicode="Q" horiz-adv-x="675" d="M58 250q0 23 3 52.5t8 55.5q17 87 47 148.5t71.5 101t94 58t115.5 18.5q114 0 177.5 -66t63.5 -200q0 -19 -2 -42.5t-7 -49.5q-26 -156 -99.5 -237.5t-187.5 -92.5q-3 -17 -3 -32q0 -35 20.5 -47t56.5 -12q26 0 59.5 6.5t69.5 15t71 15t63 6.5q21 0 41 -2t41 -8t44.5 -18 t50.5 -33l-56 -96q-40 28 -70 37.5t-63 9.5q-23 0 -58.5 -6.5t-73.5 -14t-74 -14t-62 -6.5q-80 0 -126.5 37t-46.5 122q0 14 3 43q-80 18 -125.5 79.5t-45.5 171.5zM189 236q0 -73 30.5 -106t91.5 -33q39 0 68.5 11t51.5 38t37.5 72t27.5 112q5 30 8 56t3 49q0 78 -32 110 t-90 32q-37 0 -66 -10.5t-51.5 -36.5t-39 -71t-28.5 -114q-6 -32 -8.5 -59t-2.5 -50z" />
<glyph unicode="R" horiz-adv-x="622" d="M64 0l95 537q1 5 1.5 8t0.5 6q0 21 -29 21h-47l6 34q8 45 33.5 61.5t61.5 16.5q29 0 54 -8t41 -25q32 20 61 26.5t61 6.5q39 0 72 -11t56.5 -33t37 -55.5t13.5 -78.5q0 -80 -38.5 -138t-111.5 -75l60 -157q8 -19 16 -26.5t27 -7.5h40l-7 -37q-8 -38 -23.5 -56.5 t-55.5 -18.5q-38 0 -62.5 17.5t-42.5 67.5l-67 187h-84l-47 -262h-122zM250 357h65q66 0 104 32t38 107q0 48 -24 67t-69 19q-16 0 -39 -3.5t-37 -7.5z" />
<glyph unicode="S" horiz-adv-x="526" d="M22 23q7 31 16 58t20 50q35 -17 80.5 -26t87.5 -9q58 0 83.5 24.5t25.5 65.5q0 30 -17.5 50.5t-44 37.5t-57.5 33.5t-57.5 38.5t-44 52.5t-17.5 75.5q0 54 20.5 93.5t56 65.5t84 38.5t105.5 12.5q32 0 74 -5t75 -13q-3 -29 -10 -56t-18 -53q-16 5 -35.5 8.5t-39.5 6.5 t-40 4.5t-36 1.5q-60 0 -83 -24t-23 -64q0 -27 17.5 -46t44 -35.5t57 -33t57 -39.5t44 -54.5t17.5 -78.5q0 -52 -20 -91.5t-55 -66.5t-82.5 -41t-101.5 -14q-43 0 -94 7.5t-89 25.5z" />
<glyph unicode="T" horiz-adv-x="506" d="M41 561q0 56 33.5 84.5t87.5 28.5h402q-5 -26 -13 -55t-16 -55h-156l-99 -564h-125l99 564h-74q-20 0 -28 -6.5t-11 -25.5l-8 -41h-23q-35 0 -52 19t-17 51z" />
<glyph unicode="U" horiz-adv-x="691" d="M71 572l5 30q8 45 38.5 63.5t72.5 18.5q38 0 64.5 -19t26.5 -68q0 -8 -1 -18.5t-3 -21.5l-51 -287q-3 -16 -4.5 -35.5t-1.5 -30.5q0 -50 26 -75t86 -25q35 0 60 8t43 25.5t30 46.5t19 71l74 419h118l-71 -400q-12 -67 -32 -120t-52.5 -89.5t-80 -55.5t-115.5 -19 q-53 0 -95.5 11.5t-72.5 36t-46 63t-16 92.5q0 18 2 41.5t6 46.5l46 255q1 5 1 8v7q0 21 -27 21h-49z" />
<glyph unicode="V" horiz-adv-x="609" d="M51 572l5 30q8 45 32.5 63.5t66.5 18.5q38 0 63 -19.5t30 -68.5l42 -400q1 -10 1.5 -24.5t0.5 -31.5h9q6 32 17 56l220 483q12 0 28 -1t33 -2.5t33 -3.5t27 -4q-75 -172 -154.5 -337.5t-165.5 -330.5h-144l-70 549q-2 12 -7.5 17.5t-19.5 5.5h-47z" />
<glyph unicode="W" horiz-adv-x="938" d="M59 572l5 30q8 45 32.5 63.5t66.5 18.5q38 0 64 -19.5t28 -67.5l12 -356q1 -16 1 -33v-43h8q4 23 9 43t10 31l197 435h114l44 -436q2 -14 2 -33v-40h9q3 21 7 40t9 33l165 441q24 0 56.5 -3t55.5 -8q-57 -167 -122 -334.5t-134 -333.5h-134l-48 433q-2 9 -2 24v48h-8 q-5 -29 -10 -45t-10 -28l-193 -432h-136l-25 549q-1 23 -27 23h-46z" />
<glyph unicode="X" horiz-adv-x="634" d="M-1 53q0 5 1.5 17t5.5 32h28q20 0 28.5 5.5t21.5 22.5l164 218l-128 320q34 5 71.5 8t66.5 3l79 -212q5 -12 7 -22t4 -21h8q6 11 12 22.5t15 23.5l146 209q12 0 30.5 -1t38 -2.5t38 -3.5t31.5 -4l-240 -319l133 -343q-33 -6 -68 -9t-68 -3l-84 227q-5 11 -8 23t-6 26h-7 q-11 -25 -28 -48l-100 -138q-19 -27 -33 -45t-27.5 -29t-27.5 -15.5t-34 -4.5q-38 0 -54 16t-16 47z" />
<glyph unicode="Y" horiz-adv-x="579" d="M59 572l5 30q8 45 31 63.5t65 18.5q38 0 59.5 -21t34.5 -69l48 -173q2 -11 5 -26t5 -29h8q6 14 13 28.5t15 28.5l156 256q26 0 61.5 -3t62.5 -8q-66 -113 -132 -215t-140 -207l-43 -246h-125l43 246l-98 304q-4 11 -8.5 16.5t-18.5 5.5h-47z" />
<glyph unicode="Z" horiz-adv-x="565" d="M7 0l7 93l387 471h-281q1 30 4 58t8 52h439l-9 -94l-386 -470h238q43 0 68 -19t25 -57q0 -48 -26 -73.5t-71 -25.5h-24l4 23q3 13 3 20q0 11 -6 16.5t-22 5.5h-358z" />
<glyph unicode="[" horiz-adv-x="342" d="M10 -175l160 910h214q-4 -23 -10 -48.5t-14 -49.5h-97l-126 -714h94q1 -8 1.5 -15t0.5 -15q0 -37 -9 -68h-214z" />
<glyph unicode="\" horiz-adv-x="383" d="M80 671q19 5 45.5 9t46.5 4l171 -773q-22 -9 -44.5 -14.5t-44.5 -10.5z" />
<glyph unicode="]" horiz-adv-x="342" d="M-46 -175q5 23 11 48.5t14 49.5h96l127 714h-95q-1 8 -1.5 15t-0.5 15q0 38 10 68h214l-161 -910h-214z" />
<glyph unicode="^" horiz-adv-x="492" d="M70 363q17 35 39.5 77.5t46.5 85t47.5 81.5t41.5 67h146q8 -28 17.5 -67t18.5 -81t16.5 -84.5t13.5 -77.5q-24 -3 -49 -5t-52 -2l-47 249l-135 -249q-24 0 -51.5 2t-52.5 4z" />
<glyph unicode="_" d="M-5 -139l15 84h398q-4 -21 -10.5 -43t-14.5 -41h-388z" />
<glyph unicode="`" d="M166 731h119l35 -152q-20 -3 -43 -5t-46 -2q-24 35 -41 76.5t-24 82.5z" />
<glyph unicode="a" horiz-adv-x="581" d="M47 186q0 18 2 42.5t7 47.5q13 70 38 119t59.5 79.5t76 44t86.5 13.5q22 0 46 -4t45 -10q14 6 32.5 9t37.5 3q11 0 23 -1t22 -3l-67 -385q-1 -5 -1 -8v-6q0 -23 26 -23h58l-6 -37q-8 -42 -29.5 -59.5t-57.5 -17.5q-32 0 -59 12t-39 51h-5q-34 -40 -68.5 -51.5 t-65.5 -11.5q-71 0 -116 49t-45 147zM169 191q0 -54 22 -77.5t64 -23.5t81 26l54 302q-17 7 -38 10.5t-38 3.5q-25 0 -46 -7.5t-38 -25.5t-30 -48t-21 -74q-5 -24 -7.5 -45t-2.5 -41z" />
<glyph unicode="b" horiz-adv-x="574" d="M48 51l121 685q25 3 57 5.5t59 2.5l-47 -265h6q32 29 61 41t64 12q70 0 115 -48.5t45 -147.5q0 -34 -6 -78q-20 -132 -89 -200t-181 -68q-58 0 -113.5 14.5t-91.5 46.5zM173 111q14 -10 38.5 -15.5t46.5 -5.5q26 0 48 8t40 27t31.5 50.5t21.5 79.5q3 17 6 40t3 37 q0 54 -24.5 77t-63.5 23q-53 0 -96 -29z" />
<glyph unicode="c" horiz-adv-x="470" d="M47 197q0 32 6 71q13 75 40 125.5t63 81.5t79 44t88 13q36 0 73.5 -5t63.5 -15q-7 -29 -16 -56t-22 -53q-22 10 -50.5 15t-56.5 5q-57 0 -90 -35.5t-47 -121.5q-6 -36 -6 -64q0 -59 26.5 -81t79.5 -22q27 0 55 6.5t51 19.5q4 -26 5.5 -54t2.5 -54q-13 -7 -30 -12 t-35.5 -8.5t-36.5 -5t-33 -1.5q-101 0 -155.5 53t-54.5 154z" />
<glyph unicode="d" horiz-adv-x="596" d="M47 186q0 24 2.5 46t6.5 46q12 68 37 116t60 79t77 45t88 14q28 0 56 -4t48 -11l38 219q25 3 57.5 5.5t58.5 2.5l-106 -603q-1 -5 -1 -8v-6q0 -11 5.5 -17t20.5 -6h59l-7 -37q-8 -46 -31.5 -61.5t-55.5 -15.5q-16 0 -31 2.5t-27.5 10t-22.5 20t-15 33.5h-5 q-38 -40 -73 -53t-78 -13q-77 0 -119 51.5t-42 144.5zM169 188q0 -54 24 -76t62 -22q29 0 52 7t45 21l52 297q-15 8 -39.5 12.5t-47.5 4.5q-52 0 -86.5 -35t-51.5 -119q-5 -23 -7.5 -46t-2.5 -44z" />
<glyph unicode="e" horiz-adv-x="527" d="M47 196q0 33 6 72q12 72 35.5 122t56.5 81.5t74 46t88 14.5q91 0 135 -46.5t44 -125.5q0 -26 -5 -60t-15 -68h-296q-5 -25 -5 -42q0 -50 24.5 -71t84.5 -21q35 0 74.5 9.5t65.5 23.5q5 -24 7.5 -53.5t2.5 -55.5q-17 -8 -38.5 -14t-44 -10t-45 -6t-40.5 -2 q-104 0 -156.5 53t-52.5 153zM184 309h183q4 14 6.5 31.5t2.5 27.5q0 38 -20.5 57.5t-56.5 19.5q-45 0 -73 -32t-42 -104z" />
<glyph unicode="f" horiz-adv-x="354" d="M-95 -212q2 26 6.5 51t12.5 51q11 -2 26 -3t25 -1q32 0 47 16t21 49l82 471h-60l17 100h61l9 48q9 49 27.5 82.5t44 53.5t56.5 29t65 9q14 0 33 -1t27 -3q-2 -26 -7 -51t-13 -51q-11 2 -25.5 3t-25.5 1q-31 0 -47 -16.5t-21 -48.5l-10 -55h114q-5 -25 -11 -50t-14 -50 h-106l-82 -464q-17 -94 -69 -134t-124 -40q-14 0 -32.5 1t-26.5 3z" />
<glyph unicode="g" horiz-adv-x="577" d="M10 -179q5 25 14 56.5t19 49.5q18 -8 40.5 -14t46.5 -10.5t47 -7t41 -2.5q29 0 48.5 6.5t32 19.5t20 32t11.5 44l10 58h-6q-29 -26 -59.5 -39.5t-66.5 -13.5q-75 0 -118 50.5t-43 145.5q0 14 3 40.5t8 50.5q12 63 36.5 109.5t58.5 76.5t77 44.5t91 14.5q23 0 50 -2.5 t55 -7.5t55 -12.5t51 -16.5l-89 -503q-8 -46 -24.5 -84t-45 -65t-70 -42t-99.5 -15q-48 0 -100 9t-94 28zM169 195q0 -51 23.5 -73t62.5 -22q27 0 52 7t46 21l51 288q-17 7 -41 11.5t-44 4.5q-24 0 -45 -6.5t-39 -23.5t-32 -46.5t-23 -75.5q-5 -25 -8 -45.5t-3 -39.5z" />
<glyph unicode="h" horiz-adv-x="605" d="M40 0l130 736q24 3 56 5.5t59 2.5l-48 -270h6q35 32 68 45t79 13q60 0 97.5 -29.5t37.5 -92.5q0 -9 -1 -20.5t-3 -19.5l-40 -226q-1 -5 -1 -10v-7q0 -23 26 -23h58l-6 -37q-8 -45 -30.5 -61t-59.5 -16q-57 0 -81.5 28t-24.5 75q0 11 1 22.5t3 23.5l39 222q1 5 1.5 9 t0.5 8q0 23 -15.5 38.5t-57.5 15.5q-32 0 -58 -9t-52 -26l-70 -397h-114z" />
<glyph unicode="i" horiz-adv-x="305" d="M62 93q0 11 1 22.5t3 23.5l67 383h114l-66 -378q-1 -5 -1 -10v-7q0 -23 26 -23h58l-6 -37q-8 -45 -30.5 -61t-59.5 -16q-57 0 -81.5 28t-24.5 75zM147 650q0 34 22 57t57 23q28 0 41.5 -16.5t13.5 -39.5q0 -36 -21 -58t-56 -22q-29 0 -43 16.5t-14 39.5z" />
<glyph unicode="j" horiz-adv-x="294" d="M-68 -113q53 2 76.5 26.5t31.5 70.5l95 538h115l-95 -532q-17 -99 -70.5 -151.5t-144.5 -54.5q-5 20 -6.5 49t-1.5 54zM150 650q0 34 21.5 57t56.5 23q29 0 42 -16.5t13 -39.5q0 -36 -21 -58t-56 -22q-29 0 -42.5 16.5t-13.5 39.5z" />
<glyph unicode="k" horiz-adv-x="550" d="M40 0l130 736q25 3 56.5 5.5t58.5 2.5l-77 -438h6l225 227q32 -3 61.5 -9t52.5 -14l-207 -199l76 -178q7 -17 17 -23t34 -6h41l-6 -37q-8 -45 -29 -61t-56 -16q-39 0 -60 19.5t-38 61.5l-64 158l-81 -79l-26 -150h-114z" />
<glyph unicode="l" horiz-adv-x="305" d="M60 93q0 11 1.5 22.5t3.5 23.5l105 597q24 3 56 5.5t59 2.5l-106 -600q-1 -5 -1 -10v-7q0 -23 26 -23h59l-7 -37q-8 -45 -30.5 -61t-59.5 -16q-57 0 -81.5 28t-24.5 75z" />
<glyph unicode="m" horiz-adv-x="865" d="M40 0l91 518q25 3 56.5 5t58.5 2l-9 -51h6q39 37 72.5 47.5t71.5 10.5q39 0 67.5 -15.5t37.5 -53.5q45 40 82.5 54.5t79.5 14.5q28 0 52 -7t41.5 -21.5t27.5 -37.5t10 -55q0 -10 -1 -21t-3 -20l-40 -226q-1 -5 -1 -10v-7q0 -23 26 -23h58l-6 -37q-8 -45 -30.5 -61 t-59.5 -16q-57 0 -81.5 28t-24.5 75q0 11 1 22.5t3 23.5l39 222q1 5 1 9v8q0 25 -14.5 39.5t-49.5 14.5q-26 0 -50.5 -9.5t-46.5 -25.5l-70 -397h-114l63 361q1 5 1.5 10t0.5 10q0 24 -14.5 37.5t-46.5 13.5q-26 0 -51.5 -9t-49.5 -26l-70 -397h-114z" />
<glyph unicode="n" horiz-adv-x="604" d="M40 0l91 518q25 3 56.5 5t58.5 2l-9 -51h6q20 19 38.5 30.5t36.5 17.5t36 8t36 2q27 0 51 -6.5t42.5 -21t29.5 -37.5t11 -57q0 -10 -1 -20.5t-3 -19.5l-40 -226q-1 -5 -1 -10v-7q0 -23 26 -23h58l-6 -37q-8 -45 -30.5 -61t-59.5 -16q-57 0 -81.5 28t-24.5 75q0 11 1 22.5 t3 23.5l39 222q1 5 1.5 9t0.5 9q0 26 -17 39.5t-55 13.5q-30 0 -56.5 -9t-53.5 -26l-70 -397h-114z" />
<glyph unicode="o" horiz-adv-x="570" d="M47 193q0 18 1.5 37t5.5 40q23 131 93 196.5t173 65.5q45 0 82.5 -12t65 -37t42.5 -63.5t15 -91.5q0 -17 -1 -36t-5 -40q-12 -66 -37 -115.5t-59.5 -82t-78 -48.5t-93.5 -16q-94 0 -149 50t-55 153zM170 189q0 -55 23 -78t65 -23q54 0 88 38t51 134q6 39 6 66 q0 59 -24.5 83.5t-66.5 24.5q-25 0 -46 -8.5t-38 -28.5t-30 -53t-21 -82q-4 -21 -5.5 -39t-1.5 -34z" />
<glyph unicode="p" horiz-adv-x="574" d="M3 -206l128 724q25 3 56.5 5t58.5 2l-8 -46h6q34 30 63 41.5t62 11.5q75 0 117.5 -50.5t42.5 -145.5q0 -21 -1.5 -38t-4.5 -40q-20 -137 -91 -202.5t-176 -65.5q-23 0 -51 4t-51 12l-37 -212h-114zM173 108q16 -9 40.5 -13.5t44.5 -4.5q53 0 89 36.5t52 128.5 q3 17 6 39.5t3 37.5q0 54 -24.5 77t-63.5 23q-24 0 -48.5 -6.5t-47.5 -22.5z" />
<glyph unicode="q" horiz-adv-x="580" d="M47 186q0 29 3.5 61t11.5 61q27 110 92.5 167t170.5 57q23 0 50 -3t55 -8t54.5 -12.5t47.5 -16.5l-124 -698h-114l44 248h-6q-55 -52 -125 -52q-75 0 -117.5 51t-42.5 145zM168 189q0 -53 23 -76t63 -23q27 0 52 6.5t45 20.5l52 299q-17 7 -41 11.5t-43 4.5 q-47 0 -81.5 -28t-53.5 -103q-6 -25 -11 -57.5t-5 -54.5z" />
<glyph unicode="r" horiz-adv-x="387" d="M40 0l91 518q25 3 56.5 5t58.5 2l-12 -65h6q20 24 38 38t34 21.5t30.5 10t26.5 2.5q9 0 20 -1.5t19 -3.5q-5 -29 -12 -59.5t-18 -59.5q-21 6 -48 6q-26 0 -55 -8.5t-55 -28.5l-66 -377h-114z" />
<glyph unicode="s" horiz-adv-x="448" d="M10 26q5 26 15 55.5t19 48.5q28 -17 68.5 -26.5t76.5 -9.5q75 0 75 58q0 20 -14.5 32t-36.5 22t-48 21t-48 27.5t-36.5 41.5t-14.5 63q0 36 14.5 68t42.5 55t69.5 36.5t96.5 13.5q26 0 62.5 -4t65.5 -12q-3 -21 -9 -49t-14 -53q-13 4 -29.5 7.5t-34.5 6t-35.5 4 t-33.5 1.5q-36 0 -56 -12.5t-20 -45.5q0 -19 14.5 -31.5t36.5 -22.5t48 -21.5t48 -28.5t36.5 -42.5t14.5 -64.5q0 -81 -58.5 -127.5t-158.5 -46.5q-42 0 -84.5 9.5t-71.5 26.5z" />
<glyph unicode="t" horiz-adv-x="400" d="M69 422l17 100h61l19 110q27 8 59.5 12.5t58.5 6.5l-23 -129h134q-4 -25 -10 -51t-14 -49h-128l-45 -261q-2 -6 -2 -11v-10q0 -25 14 -35t44 -10q19 0 41.5 5t36.5 11q1 -10 1.5 -21t0.5 -22q0 -32 -3 -59q-11 -5 -26 -8.5t-30 -6t-29.5 -3.5t-24.5 -1q-73 0 -107 33.5 t-34 95.5q0 11 1.5 23.5t3.5 26.5l44 253h-60z" />
<glyph unicode="u" horiz-adv-x="600" d="M59 116q0 8 1 18t3 19l64 365q26 4 57 5.5t59 1.5l-64 -361q-1 -5 -1.5 -9t-0.5 -9q0 -27 18 -41t58 -14q26 0 53 7t51 21l70 399q26 4 57.5 5.5t58.5 1.5l-67 -381q-1 -5 -1 -10v-7q0 -23 26 -23h58l-6 -37q-8 -45 -30.5 -61t-59.5 -16q-48 0 -72 19.5t-31 52.5h-6 l-16 -16q-35 -35 -70.5 -45.5t-72.5 -10.5q-27 0 -51.5 7.5t-43 23t-30 39t-11.5 56.5z" />
<glyph unicode="v" horiz-adv-x="528" d="M15 418l6 37q7 44 29 60.5t60 16.5q30 0 47.5 -8t28 -22t15 -34t7.5 -43l33 -240q2 -10 2.5 -24.5t0.5 -38.5h6q5 20 11 35.5t13 29.5l164 338q25 0 56.5 -1.5t54.5 -5.5q-59 -136 -124.5 -261.5t-139.5 -256.5h-126l-66 393q-2 13 -7 19t-20 6h-51z" />
<glyph unicode="w" horiz-adv-x="812" d="M25 418l7 37q8 44 30.5 60.5t60.5 16.5q30 0 48 -8t28 -22.5t14 -34.5t4 -43l5 -222q1 -20 1 -36v-35h6q5 20 11 39t12 31l154 321h110l39 -320q2 -14 3 -32t2 -38h7q5 20 9.5 39t9.5 31l120 323q22 0 52 -2t53 -6q-44 -130 -95 -256.5t-115 -260.5h-115l-45 313 q-3 18 -3 49v30h-6q-5 -21 -11.5 -41t-13.5 -33l-157 -318h-119l-24 392q-1 14 -7 20t-21 6h-54z" />
<glyph unicode="x" horiz-adv-x="533" d="M-20 5l213 279l-117 234q33 4 65 5.5t63 1.5l63 -141q4 -11 7 -25.5t4 -31.5h6q12 40 26 58l102 140q31 0 66.5 -1.5t63.5 -5.5l-203 -254l62 -132q8 -17 15 -22.5t24 -5.5h51l-7 -37q-7 -42 -27 -59.5t-53 -17.5q-38 0 -60.5 17t-41.5 62l-37 86q-4 9 -6 23.5t-3 26.5 h-6q-7 -18 -13.5 -30t-12.5 -20l-115 -159q-30 0 -67 2.5t-62 6.5z" />
<glyph unicode="y" horiz-adv-x="531" d="M-51 -197q7 29 15 55.5t19 48.5q14 -7 36 -10t44 -3q26 0 45.5 11t39.5 46l27 47l-72 395q-2 13 -7.5 19t-19.5 6h-56l9 37q11 43 31 60t58 17q30 0 48 -8t28.5 -22t15 -34t7.5 -43l30 -239q2 -13 3 -28.5t1 -32.5h6q5 18 12 33.5t14 28.5l165 338q23 0 56 -1.5t57 -5.5 l-261 -512q-35 -68 -66 -111.5t-61.5 -68t-62 -33.5t-67.5 -9q-18 0 -45 4t-49 15z" />
<glyph unicode="z" horiz-adv-x="487" d="M4 0l4 96l313 326h-163q-38 0 -62.5 13.5t-24.5 53.5q0 38 24 59.5t78 21.5l-3 -17q-1 -5 -1.5 -9.5t-0.5 -6.5q0 -15 19 -15h282l-4 -95l-315 -327h250q0 -25 -2 -51t-7 -49h-387z" />
<glyph unicode="{" horiz-adv-x="339" d="M-4 -54q0 34 22 67.5t48.5 63.5t48.5 56.5t22 46.5q0 14 -4.5 23t-16 14.5t-31.5 8t-52 2.5l18 106q73 0 100 14t27 43q0 22 -10.5 46.5t-23 51t-23 54.5t-10.5 57q0 37 14.5 62.5t44.5 42t75.5 25t108.5 10.5q5 -24 6.5 -51.5t1.5 -47.5q-39 0 -65.5 -2t-42.5 -6.5 t-23 -14t-7 -24.5q0 -16 10 -40t22 -51t22 -55t10 -53q0 -42 -31 -70.5t-101 -39.5l-1 -7q55 -12 76.5 -33.5t21.5 -58.5q0 -29 -21.5 -60.5t-47 -61.5t-47 -56.5t-21.5 -47.5q0 -13 4 -20.5t16 -12t35 -6.5t61 -2q-4 -21 -10.5 -50t-14.5 -49q-60 3 -100.5 11.5t-65 24 t-35 38t-10.5 52.5z" />
<glyph unicode="|" horiz-adv-x="260" d="M4 -206l164 938h88l-165 -938h-87z" />
<glyph unicode="}" horiz-adv-x="339" d="M-23 -81q39 0 65.5 2t42.5 6.5t23 14t7 24.5q0 16 -10 40t-22 51t-22 55t-10 53q0 42 31 70.5t101 39.5l1 7q-55 12 -76.5 33.5t-21.5 58.5q0 29 21.5 60.5t47 61.5t47 56.5t21.5 47.5q0 13 -4 20.5t-16 12t-35 6.5t-61 2q4 21 10.5 50t14.5 49q60 -3 100.5 -11.5t65 -24 t35 -38t10.5 -52.5q0 -34 -22 -67.5t-48.5 -63.5t-48.5 -56.5t-22 -46.5q0 -13 4.5 -22.5t16 -15t32 -8t51.5 -2.5l-18 -106q-73 0 -100 -14t-27 -43q0 -22 10.5 -46.5t23 -51t23 -54.5t10.5 -57q0 -37 -14.5 -62.5t-44.5 -42t-75.5 -25t-108.5 -10.5q-5 24 -6.5 51.5 t-1.5 47.5z" />
<glyph unicode="~" horiz-adv-x="492" d="M12 207q17 51 33.5 84.5t34.5 53t37.5 27.5t42.5 8q24 0 48.5 -13.5t47.5 -29t43 -29t35 -13.5q9 0 16 3.5t13.5 13t12.5 26t14 42.5q9 0 22 -1.5t26.5 -4t25 -5.5t18.5 -7q-17 -52 -33.5 -85.5t-34.5 -52.5t-37.5 -26.5t-42.5 -7.5q-24 0 -49 13.5t-48 29t-43 29 t-34 13.5q-9 0 -16 -3.5t-13.5 -13.5t-12.5 -26t-14 -42q-9 0 -21 1t-24.5 3.5t-25 5.5t-21.5 7z" />
<glyph unicode="&#xa2;" d="M59 275q0 14 1.5 30t3.5 33q9 66 32.5 114t56.5 79.5t74 48.5t85 21l9 73h101l-17 -73q26 -2 48.5 -6t39.5 -12q-11 -55 -36 -108q-23 10 -55 14.5t-58 4.5q-28 0 -53 -6t-45.5 -22t-35.5 -44.5t-23 -72.5q-6 -34 -6 -60q0 -64 32.5 -88t87.5 -24q28 0 60 6.5t55 17.5 q3 -22 5 -52.5t2 -56.5q-10 -5 -24.5 -9t-30 -7t-30.5 -4.5t-26 -1.5l-9 -70h-101l16 72q-77 15 -118 64t-41 139z" />
<glyph unicode="&#xa3;" d="M26 0l17 95q53 11 80.5 49t27.5 92q0 19 -3.5 39t-9.5 41h-90l14 81h53q-2 14 -3 26.5t-1 26.5q0 112 68.5 173t187.5 61q35 0 71 -3t65 -11q-3 -25 -9.5 -53t-16.5 -54q-12 4 -28 7t-34 5t-36 3t-33 1q-57 0 -87 -28t-30 -89q0 -34 7 -65h209q-6 -39 -23 -81h-162 q11 -41 11 -73q0 -43 -17.5 -78t-52.5 -60h247q-5 -25 -11.5 -52t-17.5 -53h-393z" />
<glyph unicode="&#xa5;" d="M53 222l15 81h102q-27 89 -47.5 178.5t-40.5 186.5q29 5 64.5 8t58.5 3l52 -262q3 -14 5.5 -32.5t3.5 -36.5h8q5 17 13 37t16 34l139 260q26 0 60.5 -3t60.5 -8q-28 -50 -54 -96.5t-52 -91.5t-53 -88.5t-56 -88.5h109q-4 -20 -9.5 -40.5t-14.5 -40.5h-128l-38 -222h-123 l39 222h-130z" />
<glyph unicode="&#xa8;" d="M91 632q0 38 22 57t52 19q24 0 38.5 -13.5t14.5 -39.5q0 -38 -21 -57t-50 -19q-26 0 -41 13.5t-15 39.5zM280 632q0 38 22 57t52 19q24 0 38.5 -13.5t14.5 -39.5q0 -38 -21.5 -57t-50.5 -19q-26 0 -40.5 13.5t-14.5 39.5z" />
<glyph unicode="&#xa9;" horiz-adv-x="725" d="M68 277q0 80 25 148.5t71 118.5t109.5 78.5t141.5 28.5q56 0 103 -18t80.5 -51t52.5 -80t19 -106q0 -84 -26 -153t-72.5 -118t-110.5 -76t-140 -27q-57 0 -104 18t-80 51t-51 80.5t-18 105.5zM111 276q0 -48 14.5 -87t41.5 -67.5t66.5 -44t89.5 -15.5q68 0 123.5 24.5 t95.5 68.5t61.5 105.5t21.5 135.5q0 49 -15.5 88.5t-43.5 67.5t-67 43t-87 15q-69 0 -124.5 -25t-94.5 -69.5t-60.5 -105.5t-21.5 -134zM205 288q0 12 1.5 25t3.5 27q9 53 29 88.5t47 58t59.5 32t67.5 9.5q26 0 55.5 -5t43.5 -13q-2 -14 -8.5 -35t-12.5 -36q-18 9 -41 13.5 t-46 4.5q-39 0 -67.5 -25.5t-41.5 -97.5q-2 -14 -3.5 -25.5t-1.5 -21.5q0 -42 19 -60t57 -18q23 0 48.5 5.5t44.5 15.5q3 -14 4.5 -29.5t1.5 -27.5v-6t-1 -9q-23 -11 -54 -15.5t-57 -4.5q-70 0 -109 39t-39 111z" />
<glyph unicode="&#xaa;" horiz-adv-x="380" d="M52 423q0 30 10 50t27.5 33t42 19t53.5 7l70 3l8 51q-11 6 -29.5 8.5t-36.5 2.5q-19 0 -40.5 -3.5t-36.5 -9.5q-3 17 -3 40q0 10 0.5 20.5t2.5 18.5q17 5 40.5 8t47.5 3q37 0 77.5 -9.5t67.5 -27.5l-36 -203q-1 -3 -1 -8q0 -15 17 -15h24l-5 -25q-5 -28 -21 -39.5 t-39 -11.5q-19 0 -33.5 9t-19.5 30h-3q-43 -39 -93 -39q-42 0 -66.5 21.5t-24.5 66.5zM134 431q0 -17 9.5 -24t28.5 -7q15 0 32 4.5t30 13.5l12 62l-62 -2q-50 -1 -50 -47z" />
<glyph unicode="&#xab;" horiz-adv-x="495" d="M25 268l175 215l93 -14l-159 -208l86 -205l-94 -13zM234 268l175 215l94 -14l-160 -208l86 -205l-93 -13z" />
<glyph unicode="&#xac;" horiz-adv-x="498" d="M29 273l16 92h421l-39 -223q-23 -5 -47.5 -7t-45.5 -2l25 140h-330z" />
<glyph unicode="&#xad;" horiz-adv-x="250" d="M29 249l17 95h187l-16 -95h-188z" />
<glyph unicode="&#xae;" horiz-adv-x="725" d="M68 278q0 80 25 148t71 118t109.5 78.5t141.5 28.5q56 0 103 -18t80.5 -51t52.5 -80t19 -106q0 -84 -26 -153t-72.5 -118t-110.5 -76t-140 -27q-57 0 -103.5 18t-80 51t-51.5 80.5t-18 106.5zM111 276q0 -48 14.5 -87t41.5 -67.5t66.5 -44t89.5 -15.5q68 0 123.5 24.5 t95.5 68.5t61.5 105.5t21.5 135.5q0 49 -15.5 88.5t-43 67.5t-67 43t-87.5 15q-69 0 -124.5 -25t-94.5 -69.5t-60.5 -105.5t-21.5 -134zM210 145l67 374q35 4 63 5.5t56 1.5q48 0 80.5 -22.5t32.5 -75.5q0 -49 -27 -77t-62 -37q29 -30 44 -82l24 -83q-20 -4 -40 -5.5 t-37 -1.5l-16 58q-9 32 -19 54t-21 34h-45l-25 -143h-75zM320 348h38q33 0 54 17t21 54q0 24 -14 34.5t-38 10.5h-20q-8 0 -21 -2z" />
<glyph unicode="&#xb1;" horiz-adv-x="475" d="M26 45l15 83h335l-15 -83h-335zM71 296l14 80h126l23 124h81l-23 -124h128l-14 -80h-127l-23 -127h-81l23 127h-127z" />
<glyph unicode="&#xb4;" d="M150 579q21 38 41.5 76t42.5 76h127q-20 -40 -51.5 -82.5t-66.5 -76.5q-23 0 -48.5 1.5t-44.5 5.5z" />
<glyph unicode="&#xb8;" d="M159 -187q0 11 1 21t3 18q14 -4 32 -5.5t29 -1.5q29 0 48 9t19 33q0 35 -50 35q-8 0 -20.5 -0.5t-22.5 -2.5q4 14 9.5 28t11.5 24h54q54 0 78.5 -21t24.5 -59q0 -58 -40.5 -82.5t-109.5 -24.5q-13 0 -32 1.5t-33 4.5q-1 6 -1.5 11.5t-0.5 11.5z" />
<glyph unicode="&#xba;" horiz-adv-x="380" d="M63 469q0 18 3 40q13 87 61 126t119 39q63 0 102 -31.5t39 -101.5q0 -18 -3 -42q-7 -45 -23 -76t-39.5 -50.5t-53.5 -28.5t-65 -9q-65 0 -102.5 33t-37.5 101zM154 471q0 -35 14.5 -50t40.5 -15q33 0 54 20t30 76q3 21 3 37q0 35 -15 49.5t-41 14.5q-31 0 -51.5 -19.5 t-31.5 -75.5q-3 -21 -3 -37z" />
<glyph unicode="&#xbb;" horiz-adv-x="495" d="M-7 57l159 208l-86 205l94 13l101 -225l-175 -215zM202 57l159 208l-86 205l94 13l102 -225l-176 -215z" />
<glyph unicode="&#xc0;" horiz-adv-x="590" d="M-51 53q0 5 1 15.5t5 33.5h31q20 0 29 7t20 27l272 538h137q26 -168 49.5 -335.5t41.5 -332.5q-30 -6 -59 -8.5t-61 -2.5l-23 184h-209l-42 -90q-14 -30 -27.5 -49.5t-28 -30.5t-31.5 -15t-38 -4q-36 0 -51.5 16t-15.5 47zM231 282h150l-26 214q-1 7 -1 11v10v14 q0 9 1 17h-8q-5 -23 -8 -34.5t-6 -17.5zM257 815h128l40 -102q-25 -3 -50.5 -5t-52.5 -2q-31 31 -44.5 54.5t-20.5 54.5z" />
<glyph unicode="&#xc8;" horiz-adv-x="540" d="M43 0l119 674h386q-5 -25 -12.5 -55t-15.5 -55h-252l-29 -163h187l-19 -108h-187l-32 -183h277q-5 -26 -12 -54t-17 -56h-393zM232 815h128l40 -102q-25 -3 -50.5 -5t-52.5 -2q-31 31 -44.5 54.5t-20.5 54.5z" />
<glyph unicode="&#xc9;" horiz-adv-x="540" d="M43 0l119 674h386q-5 -25 -12.5 -55t-15.5 -55h-252l-29 -163h187l-19 -108h-187l-32 -183h277q-5 -26 -12 -54t-17 -56h-393zM271 713l73 102h132q-16 -31 -37.5 -54.5t-60.5 -54.5q-27 0 -55 2t-52 5z" />
<glyph unicode="&#xcc;" horiz-adv-x="308" d="M43 0l119 674h125l-119 -674h-125zM121 815h128l40 -102q-25 -3 -50.5 -5t-52.5 -2q-31 31 -44.5 54.5t-20.5 54.5z" />
<glyph unicode="&#xd2;" horiz-adv-x="675" d="M58 250q0 28 3.5 60t10.5 64q35 162 118 236t207 74q114 0 177.5 -66t63.5 -200q0 -31 -4 -59.5t-10 -58.5q-17 -81 -47.5 -140t-72 -96.5t-93.5 -55.5t-112 -18q-112 0 -176.5 65t-64.5 195zM189 239q0 -73 31 -107.5t91 -34.5q38 0 66.5 10.5t50 35t37.5 66t28 104.5 q14 67 14 122q0 78 -32 110t-90 32q-37 0 -65.5 -10.5t-51 -35.5t-38.5 -67.5t-28 -106.5q-6 -33 -9.5 -61.5t-3.5 -56.5zM297 815h128l40 -102q-25 -3 -50.5 -5t-52.5 -2q-31 31 -44.5 54.5t-20.5 54.5z" />
<glyph unicode="&#xd3;" horiz-adv-x="675" d="M58 250q0 28 3.5 60t10.5 64q35 162 118 236t207 74q114 0 177.5 -66t63.5 -200q0 -31 -4 -59.5t-10 -58.5q-17 -81 -47.5 -140t-72 -96.5t-93.5 -55.5t-112 -18q-112 0 -176.5 65t-64.5 195zM189 239q0 -73 31 -107.5t91 -34.5q38 0 66.5 10.5t50 35t37.5 66t28 104.5 q14 67 14 122q0 78 -32 110t-90 32q-37 0 -65.5 -10.5t-51 -35.5t-38.5 -67.5t-28 -106.5q-6 -33 -9.5 -61.5t-3.5 -56.5zM329 713l73 102h132q-16 -31 -37.5 -54.5t-60.5 -54.5q-27 0 -55 2t-52 5z" />
<glyph unicode="&#xd9;" horiz-adv-x="691" d="M71 572l5 30q8 45 38.5 63.5t72.5 18.5q38 0 64.5 -19t26.5 -68q0 -8 -1 -18.5t-3 -21.5l-51 -287q-3 -16 -4.5 -35.5t-1.5 -30.5q0 -50 26 -75t86 -25q35 0 60 8t43 25.5t30 46.5t19 71l74 419h118l-71 -400q-12 -67 -32 -120t-52.5 -89.5t-80 -55.5t-115.5 -19 q-53 0 -95.5 11.5t-72.5 36t-46 63t-16 92.5q0 18 2 41.5t6 46.5l46 255q1 5 1 8v7q0 21 -27 21h-49zM301 815h128l40 -102q-25 -3 -50.5 -5t-52.5 -2q-31 31 -44.5 54.5t-20.5 54.5z" />
<glyph unicode="&#xe0;" horiz-adv-x="581" d="M47 186q0 18 2 42.5t7 47.5q13 70 38 119t59.5 79.5t76 44t86.5 13.5q22 0 46 -4t45 -10q14 6 32.5 9t37.5 3q11 0 23 -1t22 -3l-67 -385q-1 -5 -1 -8v-6q0 -23 26 -23h58l-6 -37q-8 -42 -29.5 -59.5t-57.5 -17.5q-32 0 -59 12t-39 51h-5q-34 -40 -68.5 -51.5 t-65.5 -11.5q-71 0 -116 49t-45 147zM169 191q0 -54 22 -77.5t64 -23.5t81 26l54 302q-17 7 -38 10.5t-38 3.5q-25 0 -46 -7.5t-38 -25.5t-30 -48t-21 -74q-5 -24 -7.5 -45t-2.5 -41zM218 731h119l35 -152q-20 -3 -43 -5t-46 -2q-24 35 -41 76.5t-24 82.5z" />
<glyph unicode="&#xe8;" horiz-adv-x="527" d="M47 196q0 33 6 72q12 72 35.5 122t56.5 81.5t74 46t88 14.5q91 0 135 -46.5t44 -125.5q0 -26 -5 -60t-15 -68h-296q-5 -25 -5 -42q0 -50 24.5 -71t84.5 -21q35 0 74.5 9.5t65.5 23.5q5 -24 7.5 -53.5t2.5 -55.5q-17 -8 -38.5 -14t-44 -10t-45 -6t-40.5 -2 q-104 0 -156.5 53t-52.5 153zM184 309h183q4 14 6.5 31.5t2.5 27.5q0 38 -20.5 57.5t-56.5 19.5q-45 0 -73 -32t-42 -104zM208 731h119l35 -152q-20 -3 -43 -5t-46 -2q-24 35 -41 76.5t-24 82.5z" />
<glyph unicode="&#xe9;" horiz-adv-x="527" d="M47 196q0 33 6 72q12 72 35.5 122t56.5 81.5t74 46t88 14.5q91 0 135 -46.5t44 -125.5q0 -26 -5 -60t-15 -68h-296q-5 -25 -5 -42q0 -50 24.5 -71t84.5 -21q35 0 74.5 9.5t65.5 23.5q5 -24 7.5 -53.5t2.5 -55.5q-17 -8 -38.5 -14t-44 -10t-45 -6t-40.5 -2 q-104 0 -156.5 53t-52.5 153zM184 309h183q4 14 6.5 31.5t2.5 27.5q0 38 -20.5 57.5t-56.5 19.5q-45 0 -73 -32t-42 -104zM255 579q21 38 41.5 76t42.5 76h127q-20 -40 -51.5 -82.5t-66.5 -76.5q-23 0 -48.5 1.5t-44.5 5.5z" />
<glyph unicode="&#xec;" horiz-adv-x="305" d="M62 93q0 11 1 22.5t3 23.5l67 383h114l-66 -378q-1 -5 -1 -10v-7q0 -23 26 -23h58l-6 -37q-8 -45 -30.5 -61t-59.5 -16q-57 0 -81.5 28t-24.5 75zM92 731h119l35 -152q-20 -3 -43 -5t-46 -2q-24 35 -41 76.5t-24 82.5z" />
<glyph unicode="&#xf2;" horiz-adv-x="570" d="M47 193q0 18 1.5 37t5.5 40q23 131 93 196.5t173 65.5q45 0 82.5 -12t65 -37t42.5 -63.5t15 -91.5q0 -17 -1 -36t-5 -40q-12 -66 -37 -115.5t-59.5 -82t-78 -48.5t-93.5 -16q-94 0 -149 50t-55 153zM170 189q0 -55 23 -78t65 -23q54 0 88 38t51 134q6 39 6 66 q0 59 -24.5 83.5t-66.5 24.5q-25 0 -46 -8.5t-38 -28.5t-30 -53t-21 -82q-4 -21 -5.5 -39t-1.5 -34zM233 731h119l35 -152q-20 -3 -43 -5t-46 -2q-24 35 -41 76.5t-24 82.5z" />
<glyph unicode="&#xf3;" horiz-adv-x="570" d="M47 193q0 18 1.5 37t5.5 40q23 131 93 196.5t173 65.5q45 0 82.5 -12t65 -37t42.5 -63.5t15 -91.5q0 -17 -1 -36t-5 -40q-12 -66 -37 -115.5t-59.5 -82t-78 -48.5t-93.5 -16q-94 0 -149 50t-55 153zM170 189q0 -55 23 -78t65 -23q54 0 88 38t51 134q6 39 6 66 q0 59 -24.5 83.5t-66.5 24.5q-25 0 -46 -8.5t-38 -28.5t-30 -53t-21 -82q-4 -21 -5.5 -39t-1.5 -34zM278 579q21 38 41.5 76t42.5 76h127q-20 -40 -51.5 -82.5t-66.5 -76.5q-23 0 -48.5 1.5t-44.5 5.5z" />
<glyph unicode="&#xf7;" horiz-adv-x="409" d="M52 237l13 74h291l-13 -74h-291zM105 78q0 38 23 58t54 20q24 0 40 -14.5t16 -40.5q0 -38 -22 -57.5t-53 -19.5q-26 0 -42 14t-16 40zM170 447q0 38 23 57.5t54 19.5q24 0 40 -14.5t16 -40.5q0 -38 -22 -57.5t-53 -19.5q-26 0 -42 14t-16 41z" />
<glyph unicode="&#xf9;" horiz-adv-x="600" d="M59 116q0 8 1 18t3 19l64 365q26 4 57 5.5t59 1.5l-64 -361q-1 -5 -1.5 -9t-0.5 -9q0 -27 18 -41t58 -14q26 0 53 7t51 21l70 399q26 4 57.5 5.5t58.5 1.5l-67 -381q-1 -5 -1 -10v-7q0 -23 26 -23h58l-6 -37q-8 -45 -30.5 -61t-59.5 -16q-48 0 -72 19.5t-31 52.5h-6 l-16 -16q-35 -35 -70.5 -45.5t-72.5 -10.5q-27 0 -51.5 7.5t-43 23t-30 39t-11.5 56.5zM238 731h119l35 -152q-20 -3 -43 -5t-46 -2q-24 35 -41 76.5t-24 82.5z" />
<glyph unicode="&#x192;" d="M43 295l17 98h130l19 101q17 91 70 140.5t141 49.5q14 0 33.5 -1t29.5 -3q-4 -54 -18 -102q-8 2 -25.5 3t-28.5 1q-73 0 -87 -79l-20 -110h153q-9 -47 -24 -98h-146l-75 -427h-114l75 427h-130z" />
<glyph unicode="&#x2c6;" d="M71 578q28 42 56.5 80t58.5 73h154q35 -72 64 -152q-25 -3 -49.5 -5t-51.5 -2l-48 101l-83 -101q-24 0 -50.5 2t-50.5 4z" />
<glyph unicode="&#x2da;" d="M125 655q0 54 36.5 84.5t104.5 30.5q56 0 82 -24.5t26 -62.5q0 -54 -37 -83.5t-102 -29.5q-57 0 -83.5 24t-26.5 61zM206 660q0 -16 9 -25.5t27 -9.5q23 0 36.5 14.5t13.5 40.5q0 15 -9 24.5t-26 9.5q-23 0 -37 -14t-14 -40z" />
<glyph unicode="&#x2dc;" d="M55 587q16 42 30.5 68t30 40.5t32 19t37.5 4.5q12 0 26.5 -4t24.5 -9l49 -29q17 -10 31 -10q16 0 25 10.5t20 48.5q14 0 39 -5t43 -13q-16 -45 -31 -71t-30.5 -39.5t-32 -17.5t-35.5 -4q-29 0 -53 13l-46 27q-8 5 -16 8.5t-15 3.5q-19 0 -28 -11t-19 -47q-17 0 -40 4.5 t-42 12.5z" />
<glyph unicode="&#x3a9;" horiz-adv-x="686" d="M0 0l19 109h130l1 7q-38 34 -58 86.5t-20 118.5q0 17 1 34t4 34q21 138 101.5 216.5t216.5 78.5q121 0 182.5 -59.5t61.5 -168.5q0 -33 -6 -69q-14 -94 -58.5 -161.5t-109.5 -109.5l-2 -7h130l-19 -109h-256l12 90q63 29 111.5 99.5t66.5 189.5q6 36 6 63q0 71 -34 101 t-98 30q-38 0 -68 -9.5t-52.5 -32.5t-38 -60t-24.5 -93q-9 -55 -9 -102q0 -70 21.5 -118t63.5 -68l-20 -90h-255z" />
<glyph unicode="&#x3c0;" horiz-adv-x="644" d="M54 412l19 110h587q-4 -24 -12 -54t-16 -56h-107l-46 -261q-1 -5 -1.5 -9.5t-0.5 -8.5q0 -21 11.5 -30t32.5 -9q15 0 30 4t28 9q4 -26 5.5 -54t1.5 -48q-21 -8 -47 -11.5t-50 -3.5q-65 0 -94.5 30t-29.5 82q0 10 0.5 20.5t2.5 21.5l47 268h-162l-73 -412h-109l72 412h-89 z" />
<glyph unicode="&#x2000;" horiz-adv-x="407" />
<glyph unicode="&#x2001;" horiz-adv-x="815" />
<glyph unicode="&#x2002;" horiz-adv-x="407" />
<glyph unicode="&#x2003;" horiz-adv-x="815" />
<glyph unicode="&#x2004;" horiz-adv-x="271" />
<glyph unicode="&#x2005;" horiz-adv-x="203" />
<glyph unicode="&#x2006;" horiz-adv-x="135" />
<glyph unicode="&#x2007;" horiz-adv-x="135" />
<glyph unicode="&#x2008;" horiz-adv-x="101" />
<glyph unicode="&#x2009;" horiz-adv-x="163" />
<glyph unicode="&#x200a;" horiz-adv-x="45" />
<glyph unicode="&#x2010;" horiz-adv-x="250" d="M29 249l17 95h187l-16 -95h-188z" />
<glyph unicode="&#x2011;" horiz-adv-x="250" d="M29 249l17 95h187l-16 -95h-188z" />
<glyph unicode="&#x2012;" horiz-adv-x="250" d="M29 249l17 95h187l-16 -95h-188z" />
<glyph unicode="&#x2013;" d="M42 223l15 84h398q-5 -22 -11.5 -44t-14.5 -40h-387z" />
<glyph unicode="&#x2014;" horiz-adv-x="1000" d="M59 223l15 84h869q-5 -22 -11.5 -44.5t-13.5 -39.5h-859z" />
<glyph unicode="&#x2018;" horiz-adv-x="240" d="M70 441l12 70q14 77 53.5 132t110.5 82q21 -26 29 -61q-46 -17 -71 -45.5t-31 -63.5h41q2 -9 2 -19v-20q0 -38 -8 -75h-138z" />
<glyph unicode="&#x2019;" horiz-adv-x="240" d="M56 490q46 17 71 45.5t31 63.5h-41q-2 9 -2 18v20q0 39 8 76h138l-12 -70q-14 -78 -53.5 -132.5t-110.5 -81.5q-21 26 -29 61z" />
<glyph unicode="&#x201a;" horiz-adv-x="240" d="M-26 -56q47 17 71.5 45t29.5 62h-40q-2 9 -2 18v20q0 40 8 77h139l-13 -70q-14 -77 -53.5 -131.5t-110.5 -82.5q-10 13 -17.5 29t-11.5 33z" />
<glyph unicode="&#x201c;" horiz-adv-x="444" d="M70 441l12 70q14 77 53.5 132t110.5 82q21 -26 29 -61q-46 -17 -71 -45.5t-31 -63.5h41q2 -9 2 -19v-20q0 -38 -8 -75h-138zM274 441l12 70q14 77 53.5 132t111.5 82q9 -12 16.5 -28t12.5 -33q-47 -17 -71.5 -45.5t-31.5 -63.5h41q2 -9 2 -19v-20q0 -38 -8 -75h-138z" />
<glyph unicode="&#x201d;" horiz-adv-x="444" d="M56 490q46 17 71 45.5t31 63.5h-41q-2 9 -2 18v20q0 39 8 76h138l-12 -70q-14 -78 -53.5 -132.5t-110.5 -81.5q-21 26 -29 61zM260 490q47 17 71.5 45.5t30.5 63.5h-41q-2 9 -2 18v20q0 39 8 76h139l-13 -70q-14 -78 -53.5 -132.5t-110.5 -81.5q-21 26 -29 61z" />
<glyph unicode="&#x201e;" horiz-adv-x="444" d="M-26 -56q47 17 71.5 45t29.5 62h-40q-2 9 -2 18v20q0 40 8 77h139l-13 -70q-14 -77 -53.5 -131.5t-110.5 -82.5q-10 13 -17.5 29t-11.5 33zM178 -56q47 17 71.5 45t29.5 62h-40q-2 9 -2 18v20q0 40 8 77h139l-13 -70q-14 -77 -53.5 -131.5t-110.5 -82.5q-10 13 -17.5 29 t-11.5 33z" />
<glyph unicode="&#x2022;" horiz-adv-x="352" d="M66 262q0 30 10 53t27 39.5t40 25t49 8.5q42 0 67.5 -25.5t25.5 -73.5q0 -30 -10 -53t-27.5 -38.5t-40.5 -24t-49 -8.5q-42 0 -67 25.5t-25 71.5z" />
<glyph unicode="&#x2026;" horiz-adv-x="724" d="M25 44q0 38 22.5 57.5t53.5 19.5q25 0 40.5 -14.5t15.5 -40.5q0 -38 -22 -57.5t-52 -19.5q-26 0 -42 14t-16 41zM268 44q0 38 23 57.5t54 19.5q24 0 40 -14.5t16 -40.5q0 -38 -22 -57.5t-53 -19.5q-26 0 -42 14t-16 41zM512 44q0 38 22.5 57.5t53.5 19.5q25 0 40.5 -14.5 t15.5 -40.5q0 -38 -22 -57.5t-52 -19.5q-26 0 -42 14t-16 41z" />
<glyph unicode="&#x202f;" horiz-adv-x="163" />
<glyph unicode="&#x2030;" horiz-adv-x="1169" d="M58 446q0 54 13.5 98t38.5 75t59 48t74 17q68 0 105 -35t37 -104q0 -52 -12 -96t-35.5 -76t-58 -50.5t-78.5 -18.5q-67 0 -105 35t-38 107zM150 443q0 -34 12.5 -51t41.5 -17q38 0 56 29.5t29 87.5q2 15 3.5 28.5t1.5 25.5q0 32 -12 49.5t-41 17.5q-37 0 -56 -28.5 t-30 -86.5q-3 -15 -4 -29t-1 -26zM184 13l382 669q20 0 41.5 -3t38.5 -8l-391 -682q-20 3 -37 9.5t-34 14.5zM437 132q0 54 13.5 98t38 75t58.5 48t74 17q69 0 106 -35t37 -104q0 -52 -12 -96t-35.5 -76t-58 -50.5t-78.5 -18.5q-68 0 -105.5 35t-37.5 107zM529 129 q0 -69 53 -69q38 0 56.5 30t28.5 88q3 15 4 28.5t1 25.5q0 32 -11.5 49.5t-40.5 17.5q-37 0 -56 -28.5t-30 -87.5q-3 -14 -4 -28.5t-1 -25.5zM794 132q0 54 13.5 98t38 75t58.5 48t74 17q68 0 105 -35t37 -104q0 -52 -12 -96t-35 -76t-57.5 -50.5t-78.5 -18.5 q-68 0 -105.5 35t-37.5 107zM885 129q0 -69 54 -69q38 0 56.5 30t28.5 88q3 15 4 28.5t1 25.5q0 32 -12 49.5t-41 17.5q-37 0 -56 -28.5t-30 -87.5q-2 -14 -3.5 -28.5t-1.5 -25.5z" />
<glyph unicode="&#x2039;" horiz-adv-x="285" d="M25 268l175 215l93 -14l-159 -208l86 -205l-94 -13z" />
<glyph unicode="&#x203a;" horiz-adv-x="285" d="M-7 57l159 208l-86 205l94 13l101 -225l-175 -215z" />
<glyph unicode="&#x205f;" horiz-adv-x="203" />
<glyph unicode="&#x20ac;" d="M14 224l13 73h49q2 19 5 39.5t7 40.5h-48l12 73h53q20 67 49 112t64.5 72t77.5 38.5t88 11.5q17 0 35.5 -1t36.5 -3.5t34 -5.5t27 -7q-5 -29 -12 -56.5t-17 -55.5q-24 10 -53.5 15t-60.5 5q-24 0 -44 -5.5t-37 -19.5t-31.5 -38t-26.5 -62h215q-2 -14 -7.5 -33.5 t-13.5 -39.5h-213q-5 -18 -8.5 -39t-5.5 -41h201q-3 -16 -8.5 -34.5t-13.5 -38.5h-186v-13q0 -56 23 -84t77 -28q33 0 66.5 6.5t61.5 20.5q2 -20 2.5 -34t0.5 -31q0 -12 -0.5 -24t-1.5 -24q-32 -12 -73 -17.5t-76 -5.5q-103 0 -153 59t-50 163v12h-58z" />
<glyph unicode="&#x2122;" horiz-adv-x="783" d="M44 602l12 72h262q-2 -11 -7 -32.5t-11 -39.5h-86l-49 -277h-81l49 277h-89zM280 327q22 89 46 173t53 174h89l43 -228q1 -5 1.5 -14.5t0.5 -18.5h6q2 10 5.5 18t7.5 16l116 227h90q-3 -88 -9.5 -177t-15.5 -170q-17 -2 -37 -3t-36 -1l21 199q1 9 2.5 20t2.5 16h-5 q-3 -9 -7 -17l-8 -16l-107 -200h-80l-38 200q-3 15 -3 33h-5q-1 -5 -3 -16.5t-4 -19.5l-57 -199q-14 0 -35.5 1t-33.5 3z" />
<glyph unicode="&#x2202;" horiz-adv-x="562" d="M47 186q0 17 1.5 37t5.5 41q12 71 36.5 119t58.5 77.5t76.5 42t91.5 12.5q23 0 51 -4t51 -12q0 33 -5.5 59t-19.5 44t-38.5 28t-62.5 10q-13 0 -30 -1.5t-34.5 -4t-34.5 -6.5t-30 -9q0 27 4 58.5t10 51.5q14 4 31.5 6.5t35.5 4.5t35.5 3t32.5 1q47 0 87.5 -12t70.5 -42 t47.5 -79.5t17.5 -124.5q0 -29 -1.5 -59.5t-6.5 -62.5q-50 -374 -288 -374q-90 0 -141.5 47t-51.5 149zM170 189q0 -52 19.5 -75t64.5 -23q36 0 61.5 19.5t43 58t29 96.5t20.5 134q-37 18 -88 18q-26 0 -48 -5.5t-40 -22.5t-32 -48.5t-23 -82.5q-7 -38 -7 -69z" />
<glyph unicode="&#x220f;" horiz-adv-x="693" d="M41 0l119 674h509l-119 -674h-125l98 556h-259l-98 -556h-125z" />
<glyph unicode="&#x2211;" horiz-adv-x="536" d="M-9 0l18 101l282 251l-181 222l18 100h409q-4 -26 -11 -53.5t-16 -56.5h-245l140 -178l-14 -83l-224 -194h288q-4 -24 -11 -51.5t-17 -57.5h-436z" />
<glyph unicode="&#x221a;" horiz-adv-x="523" d="M54 529q22 4 52 7t55 3l71 -337q2 -11 4.5 -26.5t4.5 -29.5h7q3 16 7 31.5t8 27.5l143 469h174q-4 -24 -10 -50t-15 -49h-79l-183 -575h-118q-37 126 -67.5 257.5t-53.5 271.5z" />
<glyph unicode="&#x221e;" horiz-adv-x="896" d="M49 217q0 62 16.5 111t48 83.5t76 53t99.5 18.5q57 0 99.5 -28.5t71.5 -95.5q27 35 52 59t50 38.5t52 20.5t59 6q78 0 121.5 -47t43.5 -131q0 -63 -18 -112.5t-49.5 -83.5t-75 -51.5t-94.5 -17.5q-56 0 -101 29.5t-74 93.5q-46 -61 -94.5 -92t-114.5 -31q-76 0 -122 43.5 t-46 133.5zM152 232q0 -42 17.5 -67.5t66.5 -25.5q26 0 49 10t43.5 26.5t38 39t32.5 46.5q-15 57 -45.5 90t-78.5 33q-63 0 -93 -41t-30 -111zM489 261q17 -63 48.5 -92.5t78.5 -29.5q54 0 86.5 36t32.5 112q0 51 -24 74t-65 23q-50 0 -85.5 -31.5t-71.5 -91.5z" />
<glyph unicode="&#x222b;" horiz-adv-x="322" d="M-103 -212q5 53 19 102q7 -2 24.5 -2.5t27.5 -0.5q32 0 48 16t22 51l107 611q8 47 26.5 80.5t44.5 55.5t58 32.5t68 10.5q14 0 33 -1t27 -3q-2 -26 -6.5 -51t-12.5 -51q-7 2 -24 2.5t-28 0.5q-32 0 -47.5 -16t-21.5 -51l-107 -611q-17 -93 -70.5 -136t-125.5 -43 q-15 0 -34 1t-28 3z" />
<glyph unicode="&#x2248;" horiz-adv-x="496" d="M30 110l14 81q50 41 106 41q25 0 47.5 -6.5t44.5 -14.5t45 -14.5t48 -6.5q49 0 96 36l-14 -82q-22 -17 -46 -26.5t-49 -9.5t-48 6.5t-45.5 15t-45 15t-47.5 6.5q-29 0 -55 -10.5t-51 -30.5zM63 298l14 81q50 41 106 41q25 0 47.5 -6.5t44.5 -14.5t45 -14.5t48 -6.5 q49 0 96 36l-14 -82q-22 -17 -46 -26.5t-49 -9.5t-48 6.5t-45.5 15t-45 15t-47.5 6.5q-29 0 -55 -10.5t-51 -30.5z" />
<glyph unicode="&#x2260;" horiz-adv-x="492" d="M19 29l91 108h-72l14 81h127l93 108h-201l14 81h256l81 97h50l-82 -97h65l-14 -81h-120l-93 -108h194l-14 -81h-249l-91 -108h-49z" />
<glyph unicode="&#x2264;" horiz-adv-x="466" d="M24 45l15 82h334l-15 -82h-334zM85 333l220 167h115v-11l-218 -157l162 -163v-11h-114z" />
<glyph unicode="&#x2265;" horiz-adv-x="465" d="M19 45l15 82h334l-14 -82h-335zM58 158v10l217 158l-162 162v12h114l166 -176l-221 -166h-114z" />
<glyph unicode="&#xe000;" horiz-adv-x="525" d="M0 0v525h525v-525h-525z" />
</font>
</defs>
</svg>
